<mxfile host="Electron" modified="2024-02-05T15:20:06.623Z" agent="Mozilla/5.0 (Windows NT 10.0; Win64; x64) AppleWebKit/537.36 (KHTML, like Gecko) draw.io/21.7.5 Chrome/114.0.5735.289 Electron/25.8.1 Safari/537.36" etag="iblrlVEST_caX4Pf2N1z" version="21.7.5" type="device">
  <diagram name="Page-1" id="PllIAlLsdJHQT0mrAuUJ">
    <mxGraphModel dx="1728" dy="997" grid="1" gridSize="10" guides="1" tooltips="1" connect="1" arrows="1" fold="1" page="1" pageScale="1" pageWidth="1600" pageHeight="1200" background="#333333" math="0" shadow="1">
      <root>
        <mxCell id="0" />
        <mxCell id="1" parent="0" />
        <mxCell id="aOc6eSdLFPW7Dq4YAHv8-7" style="edgeStyle=orthogonalEdgeStyle;rounded=0;orthogonalLoop=1;jettySize=auto;html=1;entryX=0;entryY=0.5;entryDx=0;entryDy=0;labelBackgroundColor=none;strokeColor=#0B4D6A;fontColor=default;" edge="1" parent="1" source="dI0Qf1GJRR5Zs8NkCPmD-3" target="aOc6eSdLFPW7Dq4YAHv8-9">
          <mxGeometry relative="1" as="geometry">
            <mxPoint x="450" y="205" as="targetPoint" />
          </mxGeometry>
        </mxCell>
        <mxCell id="aOc6eSdLFPW7Dq4YAHv8-6" style="edgeStyle=orthogonalEdgeStyle;rounded=0;orthogonalLoop=1;jettySize=auto;html=1;entryX=0;entryY=0.5;entryDx=0;entryDy=0;labelBackgroundColor=none;strokeColor=#0B4D6A;fontColor=default;" edge="1" parent="1" source="aOc6eSdLFPW7Dq4YAHv8-5" target="dI0Qf1GJRR5Zs8NkCPmD-3">
          <mxGeometry relative="1" as="geometry">
            <mxPoint x="280" y="205" as="targetPoint" />
            <Array as="points">
              <mxPoint x="265" y="205" />
            </Array>
          </mxGeometry>
        </mxCell>
        <mxCell id="aOc6eSdLFPW7Dq4YAHv8-5" value="Somebody suddently &lt;br&gt;wants to take a order" style="ellipse;shape=cloud;whiteSpace=wrap;html=1;labelBackgroundColor=none;fillColor=#09555B;strokeColor=#BAC8D3;fontColor=#EEEEEE;" vertex="1" parent="1">
          <mxGeometry x="170" y="70" width="190" height="100" as="geometry" />
        </mxCell>
        <mxCell id="aOc6eSdLFPW7Dq4YAHv8-12" value="" style="group;labelBackgroundColor=none;fontColor=#EEEEEE;" vertex="1" connectable="0" parent="1">
          <mxGeometry x="430" y="160" width="120" height="60" as="geometry" />
        </mxCell>
        <mxCell id="aOc6eSdLFPW7Dq4YAHv8-9" value="&lt;font color=&quot;#ffffff&quot;&gt;&lt;span style=&quot;background-color: rgb(0, 0, 0);&quot;&gt;Call: /bltch&lt;br&gt;&lt;/span&gt;&lt;/font&gt;" style="rounded=0;whiteSpace=wrap;html=1;fillColor=#09555B;strokeColor=none;labelBackgroundColor=none;fontColor=#EEEEEE;" vertex="1" parent="aOc6eSdLFPW7Dq4YAHv8-12">
          <mxGeometry y="30" width="120" height="30" as="geometry" />
        </mxCell>
        <mxCell id="aOc6eSdLFPW7Dq4YAHv8-11" value="&lt;span style=&quot;background-color: rgb(0, 0, 0);&quot;&gt;&lt;font color=&quot;#ffffff&quot;&gt;Line BOT&lt;/font&gt;&lt;/span&gt;" style="text;html=1;align=center;verticalAlign=middle;resizable=0;points=[];autosize=1;strokeColor=none;fillColor=none;labelBackgroundColor=none;fontColor=#EEEEEE;" vertex="1" parent="aOc6eSdLFPW7Dq4YAHv8-12">
          <mxGeometry x="25" width="70" height="30" as="geometry" />
        </mxCell>
        <mxCell id="aOc6eSdLFPW7Dq4YAHv8-17" value="" style="group;labelBackgroundColor=none;fontColor=#EEEEEE;" vertex="1" connectable="0" parent="1">
          <mxGeometry x="290" y="160" width="120" height="60" as="geometry" />
        </mxCell>
        <mxCell id="dI0Qf1GJRR5Zs8NkCPmD-3" value="&lt;font color=&quot;#ffffff&quot;&gt;&lt;span style=&quot;background-color: rgb(0, 0, 0);&quot;&gt;Line Request&lt;br&gt;&lt;/span&gt;&lt;/font&gt;" style="rounded=0;whiteSpace=wrap;html=1;fillColor=#09555B;strokeColor=none;labelBackgroundColor=none;fontColor=#EEEEEE;" parent="aOc6eSdLFPW7Dq4YAHv8-17" vertex="1">
          <mxGeometry y="30" width="120" height="30" as="geometry" />
        </mxCell>
        <mxCell id="aOc6eSdLFPW7Dq4YAHv8-16" value="&lt;span style=&quot;color: rgb(255, 255, 255); font-family: Helvetica; font-size: 12px; font-style: normal; font-variant-ligatures: normal; font-variant-caps: normal; font-weight: 400; letter-spacing: normal; orphans: 2; text-align: center; text-indent: 0px; text-transform: none; widows: 2; word-spacing: 0px; -webkit-text-stroke-width: 0px; background-color: rgb(0, 0, 0); text-decoration-thickness: initial; text-decoration-style: initial; text-decoration-color: initial; float: none; display: inline !important;&quot;&gt;Line App&lt;/span&gt;" style="text;whiteSpace=wrap;html=1;fontColor=#EEEEEE;labelBackgroundColor=none;" vertex="1" parent="aOc6eSdLFPW7Dq4YAHv8-17">
          <mxGeometry x="40" width="80" height="40" as="geometry" />
        </mxCell>
        <mxCell id="aOc6eSdLFPW7Dq4YAHv8-21" value="" style="group;labelBackgroundColor=none;fontColor=#EEEEEE;" vertex="1" connectable="0" parent="1">
          <mxGeometry x="410" y="290" width="170" height="80" as="geometry" />
        </mxCell>
        <mxCell id="aOc6eSdLFPW7Dq4YAHv8-29" style="edgeStyle=orthogonalEdgeStyle;rounded=0;orthogonalLoop=1;jettySize=auto;html=1;strokeColor=#0B4D6A;fontColor=default;labelBackgroundColor=none;" edge="1" parent="aOc6eSdLFPW7Dq4YAHv8-21" source="aOc6eSdLFPW7Dq4YAHv8-18">
          <mxGeometry relative="1" as="geometry">
            <mxPoint x="40" y="110" as="targetPoint" />
          </mxGeometry>
        </mxCell>
        <mxCell id="aOc6eSdLFPW7Dq4YAHv8-18" value="" style="image;html=1;image=img/lib/clip_art/computers/Server_Rack_128x128.png;strokeColor=#BAC8D3;fontColor=#EEEEEE;fillColor=#09555B;labelBackgroundColor=none;" vertex="1" parent="aOc6eSdLFPW7Dq4YAHv8-21">
          <mxGeometry width="80" height="80" as="geometry" />
        </mxCell>
        <mxCell id="aOc6eSdLFPW7Dq4YAHv8-20" value="&lt;div style=&quot;text-align: center;&quot;&gt;&lt;font color=&quot;#ffffff&quot;&gt;&lt;span style=&quot;background-color: rgb(0, 0, 0);&quot;&gt;Heroku&lt;/span&gt;&lt;/font&gt;&lt;/div&gt;&lt;div style=&quot;text-align: center;&quot;&gt;&lt;font color=&quot;#ffffff&quot;&gt;&lt;span style=&quot;background-color: rgb(0, 0, 0);&quot;&gt;(deployed Flask)&lt;/span&gt;&lt;/font&gt;&lt;/div&gt;" style="text;whiteSpace=wrap;html=1;fontColor=#EEEEEE;labelBackgroundColor=none;" vertex="1" parent="aOc6eSdLFPW7Dq4YAHv8-21">
          <mxGeometry x="70" y="20" width="100" height="40" as="geometry" />
        </mxCell>
        <mxCell id="aOc6eSdLFPW7Dq4YAHv8-23" value="" style="group;labelBackgroundColor=none;fontColor=#EEEEEE;" vertex="1" connectable="0" parent="1">
          <mxGeometry x="620" y="160" width="120" height="60" as="geometry" />
        </mxCell>
        <mxCell id="aOc6eSdLFPW7Dq4YAHv8-33" style="edgeStyle=orthogonalEdgeStyle;rounded=0;orthogonalLoop=1;jettySize=auto;html=1;strokeColor=#0B4D6A;" edge="1" parent="aOc6eSdLFPW7Dq4YAHv8-23" source="aOc6eSdLFPW7Dq4YAHv8-26">
          <mxGeometry relative="1" as="geometry">
            <mxPoint x="160" y="45" as="targetPoint" />
          </mxGeometry>
        </mxCell>
        <mxCell id="aOc6eSdLFPW7Dq4YAHv8-26" value="&lt;font color=&quot;#ffffff&quot;&gt;&lt;span style=&quot;background-color: rgb(0, 0, 0);&quot;&gt;showing for user&lt;br&gt;&lt;/span&gt;&lt;/font&gt;" style="rounded=0;whiteSpace=wrap;html=1;fillColor=#09555B;strokeColor=none;labelBackgroundColor=none;fontColor=#EEEEEE;" vertex="1" parent="aOc6eSdLFPW7Dq4YAHv8-23">
          <mxGeometry y="30" width="120" height="30" as="geometry" />
        </mxCell>
        <mxCell id="aOc6eSdLFPW7Dq4YAHv8-27" value="&lt;span style=&quot;background-color: rgb(0, 0, 0);&quot;&gt;&lt;font color=&quot;#ffffff&quot;&gt;Line App&lt;/font&gt;&lt;/span&gt;" style="text;html=1;align=center;verticalAlign=middle;resizable=0;points=[];autosize=1;strokeColor=none;fillColor=none;labelBackgroundColor=none;fontColor=#EEEEEE;" vertex="1" parent="aOc6eSdLFPW7Dq4YAHv8-23">
          <mxGeometry x="25" width="70" height="30" as="geometry" />
        </mxCell>
        <mxCell id="aOc6eSdLFPW7Dq4YAHv8-13" style="edgeStyle=orthogonalEdgeStyle;rounded=0;orthogonalLoop=1;jettySize=auto;html=1;labelBackgroundColor=none;strokeColor=#0B4D6A;fontColor=default;entryX=1;entryY=0;entryDx=0;entryDy=0;" edge="1" parent="1" source="aOc6eSdLFPW7Dq4YAHv8-9" target="aOc6eSdLFPW7Dq4YAHv8-18">
          <mxGeometry relative="1" as="geometry">
            <mxPoint x="490" y="280" as="targetPoint" />
          </mxGeometry>
        </mxCell>
        <mxCell id="aOc6eSdLFPW7Dq4YAHv8-14" value="&lt;span style=&quot;background-color: rgb(13, 13, 13);&quot;&gt;&lt;font color=&quot;#ffffff&quot;&gt;request&lt;/font&gt;&lt;/span&gt;" style="edgeLabel;html=1;align=center;verticalAlign=middle;resizable=0;points=[];labelBackgroundColor=none;fontColor=#EEEEEE;" vertex="1" connectable="0" parent="aOc6eSdLFPW7Dq4YAHv8-13">
          <mxGeometry relative="1" as="geometry">
            <mxPoint as="offset" />
          </mxGeometry>
        </mxCell>
        <mxCell id="aOc6eSdLFPW7Dq4YAHv8-31" style="edgeStyle=orthogonalEdgeStyle;rounded=0;orthogonalLoop=1;jettySize=auto;html=1;strokeColor=#0B4D6A;entryX=0;entryY=0.5;entryDx=0;entryDy=0;labelBackgroundColor=none;fontColor=default;" edge="1" parent="1" source="aOc6eSdLFPW7Dq4YAHv8-30" target="aOc6eSdLFPW7Dq4YAHv8-26">
          <mxGeometry relative="1" as="geometry">
            <mxPoint x="600" y="210" as="targetPoint" />
          </mxGeometry>
        </mxCell>
        <mxCell id="aOc6eSdLFPW7Dq4YAHv8-30" value="Logical Process Handling" style="rounded=1;whiteSpace=wrap;html=1;strokeColor=#BAC8D3;fontColor=#EEEEEE;fillColor=#09555B;labelBackgroundColor=none;" vertex="1" parent="1">
          <mxGeometry x="410" y="400" width="150" height="30" as="geometry" />
        </mxCell>
        <mxCell id="aOc6eSdLFPW7Dq4YAHv8-37" value="" style="group" vertex="1" connectable="0" parent="1">
          <mxGeometry x="760" y="102" width="179.26999999999998" height="176" as="geometry" />
        </mxCell>
        <mxCell id="aOc6eSdLFPW7Dq4YAHv8-35" value="" style="shape=image;verticalLabelPosition=bottom;labelBackgroundColor=default;verticalAlign=top;aspect=fixed;imageAspect=0;image=data:image/png,iVBORw0KGgoAAAANSUhEUgAAAQwAAAE8CAYAAAA19o8+AAAACXBIWXMAABcRAAAXEQHKJvM/AAAgAElEQVR4nOy9eXDc13XveRqN7sa+AyRBggRXkSCpjdS+kLK1b3ZsS3acjOdlqTeTUaZmpqZS9d7UuJ7/fFUvqbyKn12JncQTx3EsWpa1U5IXkZYlS5SoFYC4bwAJgsS+NYBGo+d8LnDgy58aFCmRxMLfoX7qRi+//i33fO/3rFcklFBCCSWUUEIJJZRQQgkllFBCCSWUUEIJJZRQQgkllFBCCSWUUEIJJZRQQgkllFBCCSWUUEIJJZRQQgkllFBCCSWUUEIJJZRQQgkllFBCCSWUUEIJJZRQQgkllFBCCSWUUEIJJZRQQgkllFBCCSWUUEIJJZRQQgkllFBCCSWUUEIJJZRQQgkllFBCCSWUUEIJJZRQQgkllFBCCSWUUEIJJZRQQgkllFBCCSWUUEIJJZRQQgkllFBCCSWUUEIJJZRQQgkllFBCCSWUUEIJJZRQQgkllFBCCSWUUEIJJZRQQgkllFBCCSWUUEIJJZRQQgkllFBCCSWUUEIJJZRQQgkllFBCCSWUUEIJJZRQQgkllFBCCSWUUEIJJZRQQgkllFBCCSWUUEIJJZRQQgkllFBCCSWUUEIJJZRQQgkllFBCCSWUUEIJJZRQQgkllFDOXSIzfQChXFhJpVKVIyMjqwYHB1fr84265Q8PDxf09vbm9fT0FOpjQt8r0tfyx8bGCkZHR/N1K+BzuhXoaxKJRIZisVgyHo8PRaNR91hQUJAsLCwcKCoqGikrKxssKSkZ1r+H8vPzeX9/Tk5Oq362Rf9u1c/0zvR1COXiSAgYc1hU0deznTx58uETJ06sPnbs2Kru7u6Kjo4OOX36tPT39wMgogAiQ0NDMjAwIAoW7rXx8XHJZDJnbIiCxdQjG6/zqGAgCiKSl5cnChRuU3Bwr+Xm5rq/FyxYIHV1dWx9Chqt+tkWHnV7WkFmt/59YiavVyifXULAmEMCOJw6deq/dHZ2AhINyhgEcDh+/Li0t7eLvuY2fd+9nkwmp4DAFF+ZgFN+FN/+tkdffKAAYJSROOCZZCDudfscW3FxsSxatEjq6+tl6dKlU4BSWloqNTU17j0FjTYFld26/Y0ylh2X+vqF8tklBIw5IKr4Ww8ePPgdZRANLS0twtba2jr1qCDi2EM6nZ5SZGZ9NRXco4EBjzAClBkF5j1jCGx8F+WHfbAhAEtfX58DJECI30F8BgKIsAEsbAZSgEhtba2sWLFCli9fLuXl5bJw4UK3VVVV8dpOPY5vJRKJHZf+qobyaSQEjFkqqnhbDx8+/K2mpqYthw4dkv3790tzc7N79JkDisrMD1jwGgCAMq5atcpty5Ytk+rqatEZ3c34qpzuM4gBhoGGAQYb+zPgYP9sgAGvK9NxIILZ09bW5gAL8AJU1CRyoGIsxBgN++c1jgHA2LBhgzQ0NDgzhm3t2rU7lZ08pp9rmsnr/lkFFrhv377/qvdqE9fuyiuv3K3n+dBMH9eFkhAwZpEw2GASBw4c2AJzULBwIIFioqCYIPglEBSQ2R/KDzCsXr3a+Q8qKiqcUir9l8rKSvcIWKC0ZnqwmQJn23yfhvk6AApjD3wGoDK/CBvH1tXVdcYj5wDYASb4Tvgev8vxFRUVuWM3U2blypWyfv162bx5c/MVV1zxmJ7bjhm8Fectem3Wf/TRR9vefvvthnfeeUc+/PBDd+3uvPNO+dKXvrRz48aNW2f6GC+EhIAxC0Rn7/UKDNt2797doINOjhw54nwRJ06ccGABo0DZMDHwByxZssRtzNTMzvgM+JvnKCFKDUDwedgDAGFsgc32ZRJ0eprj095DfDPF/B6ImSPGdAARjhcQ4Rw4F2VK7jnv428BSAAUvgN4ABqAG+cDcMA8lHGIAsdOPa/HlBXNWtaBufjmm29+Z8+ePQ2ABAyQc+Y8uXZf+cpX5Otf/7rce++980LX5sVJzGV5//33m3bt2tXw7rvvOkbBjIyvANpv/gabjQELlOmqq65yszEORl5HUD6b/Q0UjFUgvvPTAAUJMgo/SuJ/x17zwcTeg30AIjzaczNHcJYCDgAGLOm9994TzvXYsWPOfAFcYB9sfJZzXrx4sTvHG264wZlU+rx5PSc8i+R4a+uOzo6OLR988KFsf3G77N2zV/YfPOCAMsO/8YzkRHPkT//0T+Wxx/5y59VXXbV1po/5QkgIGDMkOttuff7551956aWXZMeOHbJ37173OuYDSoNiMuviMLz++uvdtmbNGqdMvG8zPhT/bMJnABMeUWIDEV4zppANCMwUMWD5JDGwYL/mfDVnajACAwvB96FgKTo7OxBRM8wBpQEfAlgCHA899JDccsstcuONN27Qc59RtpEcHl5/YO+exr7uHvn5E0/K9u0vyEFlUHn5BTI0nJSMXsYIjE4fC/Ve/r/f/KY89hf/2x0F+fk7ZvK4L5SEgHEJBTtX6fh3VEm2vPrqq05ZoK/MSsyuRBGIJuCPwC+hlNyBBE5LlAeHpW9KBCWb4iPGIPz3g4wim9h3zkX8vI6zHY8xFxgUwGHsA7OlsbHRsY99+/Y59mFOXFgU1wHG8cADDzQrcDx6qYHj2EDX+o6uU9ta9h1o+N2Lv5LXX/mNHD/WIsNDw3ryIgOjSYnm5Uk6JyKjYymJxqLy6B/9kXz1a1+Te7bcMW/0bN6cyGwXBYam5uZmZ3r87ne/c+YHioJYuBGgYEZdt26dMzdwYKIs2ViEbzpke/1SSxAsphMfsHgOG8G3AXDgHDUfzsGDB91GBAYnKmCJcxTfBo7EW2+9tVnNs0cVQC86cLx94kDT4UMHGg4qoH206x1pfu0t6W5pk1RyWPIS+couiqS9p0sy8agMqzkiiVxZUr9M/vf/8/+Qe+65d+fyxXVbL/YxXio5O58N5YLI7t27My+//LK8/fbbjoZDv1EQwABGgV/iyiuvdA4//kYxzHlpM7cv2cBipoDifMV3olrUBjOMiE9JSYkzuXp7e52PA8ZBlIhrhgkDC7Ew7tGjRxs2b97cqKYcUZWL4t8YGR1d/+HR/Y3vKcDv+u3rsvfd96Rj/yFJneiQgpyo5CcKpKiwVOIFhZIaHJS+sWEZGR+T8ooyuf7qa2Sjgtt8AgtkboyyOSxqdmQwP5599lk3e0LDLaHq6quvdrb5TTfd5AADs8N3Rpr/wf62x+A2G+RcGYZ9zveRWKjXfx/WgU8D/wY+HkDDHKU4SIkIcf1uv/122AaPF/RC7DuwL3P42GEF972y4xe/kHdefVMGT56WSsmR2hw1C/U2lZdVS2l5lYzlRmWvfvZksldG9TTWbtwo3/jzP5c//PM/3xC7BAzoUkrIMC6SkFPx3HPPNf7rv/6rG/DQbAY6IURYxF133SXXXXedo9iYI4QXsevJdbC6jWy+h2x+CHt9puVcjiF4/D7jsEdeA1RhWrAOAiSELH/5y1/Kiy++6CIr5KO8/vrrzrR76623ZNu2bZkvfvGLGy6EicK9e/GFZxUoXpadygzbW9ukcHhEVipKVKrKlOohL6upl2hpmST1PnWNDhGmkoge9+IFi2STsosbb7qpeb6BBRICxkWQffv2NX33u99t+NWvfuWceNjgODWh20Q7Pve5z8lGnYVItCKxCuWwXAabbY2uW1amH+b0JRgSDUYkZpsYMPh1LP55GcMy4CCkbElqACtM7Bc646uZ53JUYCIAB9d4z549jWr2NSvzePTTZoyOjI6s/7d/+/8af/3cC/LBG7tkpLNL6kbGpSKTK4ty82VxXrHUFBZLIr9YuvTznYP9crK3U7pTg4L7YtXq1bL5huukft3axz7zxZqFEgLGBZY33ngjA6t47bXX3OzHoMZhd+2118rNN9/s6DNp0ZaBaSFUxJKsEBQh+FpwZvbBgseZBIvzYTjmv8j2fXv0zwWwAFRhG9SmALQ4hX/729+6iApgQXYlfqG2traGO+64o1EZXbN+5rx8G+80vtf0vX/+XsOvnt8uB9/aLePtHVIbUaaTiUltLCGL8oqkOlEo+ZFcySiwdSvA9ytgtPd1STI9JpXV1XLFunWypmGdxPPmRxg1KCFgXEB5+eWXMz/96U/lhRdecJl+KAa0mpDgfffd5/wVODaZNU3MnoddmD1vr9n7nyTn8pnZIsEU9GDUxP+cJYMh5hzFzwPTsApYQAPfEMCMgxQfx2SRHCnaGQXqc0Kyw0cP73hm+3MNTz7+uBx5v1Fye/pkmYJFQ6xIFkfjsjCaJ2W5CUlIRE2WYRnL5MFGpHdowIVUE3n5suqKtXLF+gapW7Fy50W4dLNCQsC4QPKzn/3MMYtnnnnGOTYZ8KRr33bbbfLVr37VRUIIn5qJYQJQYK5glzOTWo8JniO+HyOYeYnMtUiJ7+D8JLHaE66PJZ7BNHi0iNLnP/954br/5je/IXLiQtWYgkRTSPjatWtXRs3AT7wwx1tbtxxUtvL2a7tkUTRHKnJjUiMKGHnlsrakQqIDQ5JJjciYHkc6npHekUHpHBrUx6Skc6NSU7VQTZGbZOXaBimpWTAvzREkBIzPKDjIfvjDHzb+4Ac/EKIhOONQCBx1ODZhFvgrAAJLWGLw+yXnzJrMnn5hFzOrKQxijMOXII2fC4Dh16Qg2SI+fiSF88ekQyxnA0A1lkaC21/8xV848Pj1r3/tfEZUzRLCJhUdtrHzN7/JbPmEKEpVZeXOyrLSLZVF+ZLXPyhLY8WyqXChAkaFJDr7JCc1LInChIyXxuToWJ+09LRLS3JIOhVExvXe1tQuliuv2ST1K1c1585wNurFlBAwPoMcOnSoSWe3hieffNJ56g0scGoCFjfeeKNL7QYMeB2wsAY0/E0+AQVmDGwABYptpegoDBmgKIZFTPguz/0mNrzODGz9L0w4FqsMPV/5NCbOuYKV75idjh3Zcz/EjFiVrX+cXA9MlAceeMCZKYRbMVNIAiNv4/nnn5ee3l55Zvv2zMP33TftQa5YsfKx66/d1Dj05S9L++tvy5LetCxJJyTW3S/lahUNpUclReq7FEhKQaNzcET6xlMyqpcqlsiXho1XyeKly6R88aJHz/WazUUJAeNTSmNjYwbq+/Of/9zlCjDz4YzDX/Hwww+73Ar+tgiIH/kAOKDOePfJL2BGRLHJ8sTPwWxpBVx+cVg2Ku8nQFk9RzB9/FxSti+VnOtvZytys/MMOnwtC5QwNc8JXXNtcYhSzDdCuHpsXH723PbMlx/MDhrxeKKp5fD+5rLRdENzUu/RO3sk93iPxIbGJJETlbT+7qCMS//YsHRnUtKTk5K+iLKlBP09FsuGa66VqiWLm6Oxud3P45MkBIxPIXv27GmiDmTbtm1uNkNBAYdrrrlGHnzwQRcFYQDjh7BwqRVjMeDJZMTmfvrppx3Y8DfKQGm0hVJhGjTCsWpQxGZXUybAgvf4HQALVoH/hFmW14yBmHlj8klFZb6/ZCbNHN8ROl1Y2QdhivUIW8M48BfxHkV9rS2t8tKLL8qogsbzz7+UeeCBe7Ke1MLausfKRsZeKThySvYebJfU/hMSi6gZkh6TvPw8SeaOSV96SE4M9EmPgsZgNCOJ0lJZsWadrL5qvSxcsWRWVdReDAkB4zyFArK///u/b/jxj3/s7GUUFR8E+QGPPPKIK5DCjDCFRPl5bnY7zk1Sw5944gn54IMPnFffAAHwIFeDAU8difk8ePSpuGWB+gVf9JggWoB5A0sBNPiO+QIsfBucnf19nu3v2SDTHRPnArPgfWsFwGaMjKSv9pPt8txTT0vO6Lhsf+qlzH1f/DhoxBJ5O5IH98uajRsl+e4eOdZ8QPp7k5Kfmye5eTFJ5aalJzUsp1P90j0mkqa72eJqWXltg2y67YbZd8EugoSAcZ7yT//0T42keRPCgzlgN99xxx3yB3/wB252Y5BaKzuzuc0cAVysrBvlBixQbHILYBkoPSBCBIC0ZxgDporf14J9B/0A7BfGQxYkz/kO/hP2PV31qi/BEOdcE4ugmJ8HoanQPffc49gfOS/vvvuB9PT0ufyYwnievPTE9sw9X8linsRjIotqZNl1myTSckJO7HxdihOFMp6BXeCzUKDWyzcyLDI0PiZdpzul8YN35b/9t/+qnCMjbHkF+S4nQ++S5MUTpxdWV5+uqag6nYjFTuXF804ruL1bkJ/fGkvEW3Kjua25udE5syxDCBjnIT/4wQ8yTz31lEvIIs0bZgFIEL7bvHmzm91sRrfwoT+b48Qk9AdYAAYMblLDCQ2+8cYbU05QaDTAAsW23AzEd3z6r8FaOCaqYAELgMeABfGjEpbz4Zs3ftg2m+/gXORigU22Y8r2N0zMv1YANsldgHk8ntBzHpfXX39DOjtP6+NrkpMelzd/8dvMDXfdesbO8uvq3d/9O97IVLe3S9eRI3K6e0Cv26gkI/T5yJX4aETyFTUS6YwMdnZJ01tvydGDB2VUX4MrxvJjUlJWLBxmXiK/uqyktLqsuESikajEcwmZ50s+PVaLCqWwpFj+5d9/2FdYUNSqrKiluqKqdUF1zdNqUs3KZRlCwDhHefLJJzPf//73Hb2ljT+ONVjAF7/4RefgZDY36m8+AyvfRsx3QU0JJglKi58CvwdRFb5LujOAAVhQaIWZE3R6BhOfEKIkBjaADGBkn7ffD+ZyBCUbaJxrQZnJpWAowWO0R2vaY2zMTEVaBvD34NCQdHR0yrGjrXLk2BGJKFOoX75M3nlzd+baGzZ93DxZuaS5pHtDQ+2hQ7J3x6uSSY5LJBaVRE5cCodypFqUaXBPh0dk8NhxaT3WKnAbtkxUuUU86prpFChY5bliQwX5iN4/jjEWV/MnIfG8hCSUjcQL8ktyE/GGvLyChorySh1LC/+spKQUNtu2cePG3TopzZomwiFgnIM88cQTGRKyXnnlFafoOBRhBiRkERFhYPr9HUyxrfO2DWoUmdkf0OA98jMAHWZC0sZJQGI/fI6wIEBgtrkpr7ELv+LT8jZMrGtV0HHpV4dmk2ygMtMMY7rfCjKPoI/GGBT3qn75cmeejIym5cknnpDD+w9Ke8cpefkXL0tuUUIZ356mdevWnuGwzKtbsj7Z1Jipu/s22bu/WcZP6z4VJOJ6mUvHc6U+Jy1V0bj0jUekJzUm/cotxiITgDGqvz80rPdGjZLE6LCC07CMTbKPlG7pzMTztH5izD2K69A1lqNAp9/R6UbNngzgv0jB4sHHH388o2NtVtiLIWB8gmzfvj1DngX+AVvUB0X/4z/+Y/na177mbGS/0hJlp+bBBq/NetaaHybAxmfJ/sTW5jl+DMABZWYfmC48AkaWHQooWLdvX5E5JvOXsC/MJcv5QHwTBpkua9T/ezZESc4mPjjYdeHcLTEOoJhK9NL36F72Zwtr5YSyt5HBYRno7pK33t0lp/u7pLC8pCHbb8RXrbwjNZx8ZflN18rp9xol2XZKoiPDsiheLDWxiCTTOZLUz43GRRVd1T8ek9EcBYv0mAylRiXDNVcQACDG1ARKK6tJ6fPUeNptfGdEXxvVfQzr1quXvBOwU+aR0fNjwiA0jH/q3XffbVI2OuNRmBAwziJvv/12huxBfAqYIQxEbOIvfOELsnXrVgcEth6IbRYhQYkRU3aUnyIpHg1gyLeAXViuBuBhHbUZKHwXBbCMT9/h6T/auiHGaAAM/Bp81/pq+uFVP6Q6HXj4gPFp8iYuhfgJXtnaAiAGJCOqwCWlxXLvfffI+Mio/FbZYm9/t3Se7pA3d+2SbS88nbnm5htkddnCyJHelkx9aV0kmsjfMfTRu1J/+02S1HvSq0CfTqWlurhcEWJMoplciUZiNPFUVjGmDAHgUFDQLR3Ve5OIK9MY1t8ec2zDbWTy6nGNKlgMZdIyOD4qg/rd3khGTul7MT3WTgWXpH5vVI9zBJapJkxJccklv77ZJASMaURn+CbyJEj3xudg9Qv4G/BZkGeBQqLs5iuw8J45PU1JTbFtdTD+BljwYfBovg9yOcgfADQAF3IqzJFqNNv2beaIvz4JfhV+D/8HDIVjxKeB+CaLT+f90GwQHOzYffHftzwQO/4LXS17Pv01gv4dv4xe7HXFyauuuUrSsC81FR5/XFnc4IC8s3u3lNRUSHlNtYymx9bHo7lTPxytqtpZtGJ4S8261dJ3/IT0DAzob0UldzwlxQoABVy3tO5P/1bIUAaRdkleUWUJSiukf3TMJY0p/9NPRyUey5NxZR1DChgDCi3DBfkyqAylXb+bq6xjQD/bp7+RxPzUMVdeVi7L6pYyNmZFBmkIGFmE+pBXXnmlAbDAEYny4tQELIiKUFSGgkAZzclmgGFiuRdmFvgrizG4ybOwXg98xgCEtHBbbYywK2FbAx9jGYhPxQEL2vEDEPhHyG6EoeDwY5/2ed9Z6tezmOLbcfsZptb+n88Ahr655a91MtMVs8aikCBTAjNiMTwQGamuqZIblEmMqmmx661dclxB4LBer/zfvqHv1Uj9krpt+rUp6p+ortuaPNKcqV67WgaPt7n+GMMdPZIYHVH1V9NnXMGKGGva8Qr9p9cDp2cqLmmcpKP6q+N6TfW302MpyUvoPciJSVJNl34FjmQiKr1RNWMUcGLjJHfo98nWnVzBbsO6Btm0aVNzPDE7mvHM7m4rMyRqLzZiNxIRQWlRSJyTOM6whZnJUTYrigomQwVnuyCY8BqKZ5WX7IdwKGBhTATAIKqC+HkY/qOZFoAN4ICJA6DgIwE0SD/HNAl2s0IsIcyO0VYyM1PGgAAAIncB8MQ0swWZzbHqL5Y02+QMhqKUP1eZQVRfq6qqlOtuuM519K5QBjY8NCJ7m/fIr1/+lRw6cKhhdCx1hq8gXrvijoJldbJg3RpZuGK5DOs+hhQwUiNJiYwmJU+BoDAzLuX6eqVeh3K9LvnDSckfSkq5AsVCNSmqozEpVCYSGeqRqLKawtGMFOfGlZ2kdYx1SltHu3PEdnZ3yeDQoMsd2XTtJrnzrrvk6k3XzAp2gYQMIyAtLS07cHCSiYlpgFJQH0LKN+wC5fS99EZ/jRbbzG0gYfZ10IkIOKCYKKj5MMyssMgIeRtWaHa2XAS+zzECGtu3b3eKTwIYGaMciy1VYP4Ui7b4laO29ir75Ziob6FrNzUZZKDyHv0ziQ6ZnOuaJZda/KjQFMDyt/4bSg5KbjRXaqqq5eGHH5K9H+2V3e+8I6c6T8v+j/bI22/ukgWLahrF63cbjeftSO5vklJlcQtXnpDWPftluKtbUlw6QqV6azNjGRdGxZpRDimZUTVR1CQh74LWfWR75UXynJNzTN8fUYYxoMyiU5lFayopJ9IjclrZRc9YjhSX6AR17bVy1z13K2DcOata/YWAEZD3339/C70j8QGgOEREMEUobEKZGYRmFvjJT75pgpiD0l9B3RY+tpJ2P2Wcz7C8AElcpIfDQFB4vyMXEkwK43f4LuYIXb3I8IQZUakJK+B9mArnAcUFGPxIi5/HAEABkpgzZLLu2bPHbTAWnLOwLD8fxFiFXz07kxKMHvnXzZ7F4jHJqGLm6Huc0/333ueA+41du6Sro1OefeY5KakolcPHj+xYvrh+q30/p7hkZ2519ZbCVSulSreTPX0ypsyErM/MuE4QYyMTGadqfohd00xaUvitIoRWE1JQVKaPEenVzw3EMnI6Myat6aQcHEnJYQWXbrcUZpU0bLpett7xObl28yapq18245ERX0LA8IR1Mv/6r//aZV1aw16AgtoMHJLBDlBBdoFYZWpQLEIBezAThEcDGpSY3g58F+UGaPBL4NAMJlL5SmGOSQCIMC39Nzh2AAOlBwR4jjnB/vCJAEZW2Wr7Q2kABgCCrFHYBSyDUDDXAZ8Lmw+OdkzZenXMlGRLTnMMjZyH8TFlF/iRIhy4gmeh3HTTja447XjrcWnat0ca33tftj9bJjUVFVv8fcQqFzw20tPfmL9yhUsb7zt5SkaOHpN+NTtiER0DUcaCXsvJ+5xxm7LLjDi/RiQnIrG8mAync6Q/nZKTmWE5OjIse1IDclBB/bh+rqCiXK677Sa54677lc3e2Lxhli0PiYSA4YkCxXdovAK7QAnxVwAYPDIzI0GnoGUY+gsUB00I8x1Yx3BmavZJRMQvKkMh+R1MCGtJ56eAZ2s8Y/tnPwACi/yg+LxHtATQYKPnJSzEIifsD2emgQZMhNAxCWN8H7MGQIPlAESAJuPXGE8wA3W2ycdMOFrrjY1KIjfuQMMZKHruS5fWyeZN18rRI0ekjQWwT52U13b+Vq6+6mpJDie35k/25syJxZuSLcckvmSJLLpBpO3AIek8PeFziKtZUqzMJTLGhEId0biLhET0t8bU/BnLict4NC6jCix9yjra0sPKKAZl3/iANI8OSHu+Mr7yEll+dYPc9dCD8tUvf31DIj47F6AOAWNSlBms/+Y3v+lWT7ckKJSPHhXMyCbBgeivG2KOUJQPZTRGAVsADKhkpaHO/fff75SQ1w10jIFYmz573RiMH6L1C8/ML8FrHCf7JamMEDA5JLuUatPvEhDEgYlwboAXoGD+FT9Uy35hLOSF0AgIsKBkn+Qyn2WZmM9ltkjWY3F+Bj2/KIskR5xZktTzLygolquvuUa6OrtkH+u7dnVLX3evHDl4RN58Z/cr4vky8uuWTj0/8Lf/I9NDD9HWFinIjOs9K5aCRI6khgd1UyAWvU96L8dzdTzE8mQownIEw3JqeERaFCT2pwdljySlQ/dVXFcpG2+9Xj53z/3y1S/90YZEbPb4LIISAsakvP7669ug7RYVIdcC0wAKb/UhiN8a36okgzNssPuVKbuxDOuNEaT21incWIcpsimzvecrt89AUH4ADLAAPGASmFL02eD3CQ/DHkgMwz8DKPA5AMpyPPjbGgHBgmBEhJHx2vudvxDfFJvtwrEqW3BRksjECxLl2PW64MhevmKlXKOsYp+aYp3dnWqa7ZOdyjQa9+5t2pBlZbXqq66U/n17pdmqGJgAACAASURBVK23V/pbWyWeUnMnv1AyuayvqvcChhHPk0HWLdGfOa3spmV0UNpSSWkdH5Y2GZXhvITUrVopmx/4nNx85x1y3dXXN89msEBCwJCJHhd/+7d/24Ctz6wLSBAN8Dt8++ZGtmIw3zwxRfITogxcbFnAYH8LC20au/EZRfBziLESaxZsTMSACjYAM8BMoSgNkDCwsLBp8Bg4VxyufIdHAMeaEvt1Mj7D8UFvtksmM+7qNMgmoBAsHsc/pM8zEamjYfOtt8o7778vQ01JOXzwkLzx+u9k7RVrG1LKPmOBdU7yrlizs3bz5i1pNWOOKStp7+uXvHiBJJRJjEfTLtNzLBaXrkhGjquZckwB42BqUJ8PS2dGAbe0WJasuUJuvvdu2fT5rbJ0zUpZU10363wWQQkBQ9zCQ45dmO2PslFFCnDYzGvU36ftQVvexMDEBwy/6a8vfrKRX5odzMwMFlsFHaHGQCyMy/FyHgZ+MCccmAZqgJOtU8rrfB+fCpEagNIcnHYsFp3xz+Vc08ZnkwAazqOhQBGN5RLKcOYKqdfr1q6TG2+4UY4dPy6tbSeUmR2U3e++L9ddf/0ZyVxIbnXFYyVrr2isPNYipw4dk+7mPdKr+ypBpaJ5koqoyaO/0T6alCPKKg4oaOwfS0pfXq4U1iyS+oYNspllMu+4Q1auWd28srpq1oMFctkDhpoB67dt29ZAohPRBZQG5x7LA5gvwSSYEWmvIb6yB1vp+wBi3/cVz08rt78ti9N+wwcGvzEPiu+DmB2Ln06OmQGzIVvVCrIAEEwVfBtEQwAZGAbftQgObMVvBBTsMWrnli2tfLYJhkgsCvinHUC4/41Pbjl6L3OVYRUXyZbbb5fX3nxDunp79Br1ymuvv07yVMNoamx93OvXGY3Hm5J79zcXrm9oWKiA0XX0lAzormMZvVZ6vYaVRXSNjsnxoX45ODokahTKEVGTr6pa1m65TT53z31y3XU3yMYV9RsSn3KVtpmQyx4wmpubt5HVCWBg1zPD0gyHRCffDEEpcWRadmY2MwSlg/Jb9CNburRvxpjPwnwS1sDXnKGWRGX7x1wCIPA9oNAW6TDnqjECvm/HbGAF46DlPiCBY5eNGhlyLnCK8nlAhSQtIkMkaZHTwblYSnuwIM2qQznvoJk12yTiPUbsfxEAe9w95/oUl5bI4iWL5cqNG+SEMowTRE1aj7u8lpqaqo+xDCktfaxo8eJXaq/cKEfe/UhSJ7tkYCApBXq944XFcrLnhLSnB6U9k5JO0sWLYrJgVb0s37BOlq9ZJZvXrJq9CDuNzN47fAmEmpGnnnrK+S5QdAY+Dj6cnaYQvGazOkppM7qFV02Z7DVm82ydrbOBh7+okQEMG8AAEPifYd8AhWVnGlDYMgL2eUsvRwAPzovoCJmf5FdYyjggwe9YpIT985w8DEwVgAT2AXDgz4B9mH/EXyqB4w42GZ6tEvH+GYSQ/RkhVRMlz0/I4rpa5/D+SE3UI8eOSpeyr7feeJOIUcNIKrU+4a05kr+wZkeyeZ/EV6+RResapKXjdy67MzcRk7hez/7MsAxRxep+SH9Jr1tvZ4d8pKCcM5yWf/7nH2WqC0ukuqBEahZUNZdVVTQVLax4IhqPNUVzo7OSdVzWgHH8+PH/QmYjyxqicCgFoUScfsGoiG1milhUw8wKlA3nIgpp7ffYh9Vd2L4MZHiOfwE/A7kR+Axsv3641JoI23cRv2GOHZ9FMOxYOC8YBL4ZNnIyAILJZQTdsQNugCMZjwANIMF3ABTMMzY+SwYp4VqO1ZgUYqXzVrE7+2XCd+HAYhLfxifzMXIIt+YqKBcVyoYNDbJq5XLZvXuXDOk1+OC9d11I/MTJ09/Rr2z195gpKdoZq67cUrd+nRx75wMZ6xmQDEWC6YxzgBZKSre0JNx4GZf+1nbZO/iWnP7ooDQVlUl1XoksKK6QirLShoKykoacssJHCirKZNs//6ssqa9rXrJ0adOCJYu/m8hL7LjUVyubXNaAoQq0HsVCQVBCMi0JIxJWRaEsrdt3MJpiWEMcZnBSr0l4YgankzhKyfsoNcplCuanhyMAE/UfhC8JY1o2pa2E5v+mMR7fh+KHVDlOgMLa+7GwEjkYmB7mzDVWgJmBycXvWvgYpkLSGiujY5bwHc6FfZLQxTnAsAzYrBI3uLjQbJeIq7eEyU38Taer9LgypPS4xLg+0RxZoizjijWrZcniJQ5EW5SBHt63X44ePrYluL/cyvK/ybR3bKlcs1Lya6ok1TfgrJxUakSq40UyEqXRzoiMjI9Jkf7mUPeApLr65KQckQ49miOSJyV5Be5+p2O50pcZl0RlqZRXVciSpcsa6lesaKiuXfjI808/I+uv3LizfvnyrZf2igXOdyZ/fKZFlaLBIgUoHf4LAMNvNoP4vRUAAsAEsAAkKM5ibRKoPIrlz/7Beo1gSje2sVWu8tvWawPwsDb5BjLm4IQJ8dx8KebHsOULWO+E6lJMEGv6Y0rNoIQl0CuUmhWaAVFfYqYXkSFA7Ic//KFbn5R9Ah5W4o7gDLaWhHyH6+Gnr89eiUw6O511MBEtcT02cybCrQoYmbEJUOT81q1dK1eub5BD+/fLsJ7/R42NcmDDRr0OI1vzvNk+GovtHszJSN6CKlm4pl7HRa+k2zuUtYwqcyiSWDouidSQVCuA9Osh9KbGpU/fSyqAjLgWfSOS1vHUOdIloxLVv+LSfbpVUnpMOVG979FcGUwl5fobbpRH//APt+hksE1Z8IxVr162gKEz53oqUjEfEJSW6AhJSzZjI76iojjM3igjMzgzMmCDYlmkwxSI/TEbW2IUwntQfCIUbPY9jgHFZN88btmyxW2wD4DBWIrlRCDm4OS7MAGOh67h9O9gv4Aa5wCTYD+bNm1yKemwKKIlVoRmvhBjUgACx02G60svveSOBx8I+7OlGwEWEtAQ8+n4qfGzUgCLzOTx4XNy0VRqPGjKq9c0J+0iKBM+jYgCxhVy6803yzu73pLOrm7Z3/yRfKT3va1ly7fEM0uiubknevZ+1CZ9g4uWr10lh48clfbWFkkoKMSGM1KhYFKcXyz1ZZWuOU7PsAKH3ssh/a3RHJ2AlPAMZUallyULFMM60pi9edIzMiQjCmAs/pyjx/v+++9JSVmZso6lMxp+vWwBQ02J9YQTcf6hLPgu/PwDFNMUFZMDxygKCcWnMAtThhncCr/wR1B3QUYkCsnfbNYUB0E52Re/y0bmJY/sC7bCsRCxYb/4Q+i/gXKipNYjw8KbKC+KzOd37tw5tTQBoAbI4LyFqWBuoPz4KTguK5/3nbFmrgA0nDff4xHTBcCzTukAJIyE3wdcOVczc2Y1WEwK6eAUgclktueYNRHi2HMmHKGZCWSRiqpK2bBxg1ynQPubHb+R3h46jh+SfY0ffcwsSZQW75aO7gcLFtVIYU2lxBNRiSQVMFJjkgeLgb0Mj7t1WBdGojKaG5eReK4k4znSr0DVMT4kp9MpyVNGUVZQJkl9/6je/47ebqG5X14iX/qHh+SUjpWjhw9n7T96qeSyBQydme83J6ABBgruL29oOQqEIpm5WYAIB6kpJfQekOC71IhgzhhooGiYFcEmvoAG5gzAwSPHgLLDWrCX+RsFBRBs1jflBLz4bdgJ5gesArAAxPCluA7ZCgwcB2YHYAGjADysu1ew25ZvdlnuB8fM96zlH+cKiwHEMFU4L17DEWotBv19zUohSjE+aYZMxFUnroP/EbE0/jFXBs91I8T8mpqcY/0jcrqtXY6w/khyZGs8//dmSby86m9G89sfzCkrkoIFFVJYWSKDvV0uHyOhTCI2pkzE+UqUFebkSiqmzE4ACzU5c5VlKKMY0y2Tm1CNLJBkaiJUnxuNuWI2OohXKHjXL6vH79R8qS+dL5ctYKiy1gMWbCg0SsaMalWbmBr4J1BGgKJRbVjrRg1rQDFRZGZjmAmgAVgAFD5F95O1UDLYBizGQpMAAMqN8sFg8D8ABkRb8EdYrgYDF4GJ4Myc7CTtPsvvocQcBzkkbDAToi/GJoJLE1gRmZ8UZn4R6znKud56661TfTs4Hq4HjlHAhI0sUstFMQn6bGYLkHA0Vkfi/lldiZAsHpnqY+EAUJ8WU8y3Yb0UKhD09PfJ6Y7TsufAHuk4eepb4pslibwdQ/v2SqSkWAoWL5DCxQul+8QxV+Keo7tKkDTGMgJjdAmH2ehvpKg3icqYMo4Ia5bkqumrnzvd1yutvf3Sp4yCruIpNWniiVy58qprXDHk+o0bZjTcetkChs709dj/zPTUTKBkKDIRE5QRxaUvBoyCSIGFVPEHoERsVpxmYUU/0xIJln8H2/hZMRqzOb+NwxHQouMXIAUwYK6gvCg/YIOysvoabAS2wgaAUVX6wAMPuK5g1u7PErgAJ/wniIV1/QKyYCm+X0bPsQEcfB+2hVnCcQFE/K4Bhu0LMf9PcBHpGRU1OaLx3x8H1z8vnjA/qETJ9pSoA5DcvHwZTg47l8eCusVy9abNChg75JCCwNvvvytHj7ecYZYoqG9NKZDn1FRJ3vJlEq9bJIONcZHkoNTE9B5k0soahiXF2iTxPBmJRWVQzZEhnahG9P0BNV2O9wzIoeSAtAirwov0jgzIyOiIlCqzvO6mW+QP//BrcstttzXXzaDDE5kFd/LSiJoVGVX2Kc1QCr/Mltcz6o9ZAFjg7IN+G1CgrIQgUUicorAJzBFmdSvMMkrvrx2CZGvoYuKvowFQYApYqJL9opyYGkRhbDUzZnmco7aWibEKFkJCeQEgvuvnRliUxC8WO9emNxZKhU0BkuZ/AUi5XjAfrkcwG9R+15dgPcwll8jH/8x2NMa2chRkSlPlsnrdWnn7Xdr4dSpw9Mqe/XvPiJYcbGv/TqmCQTHm54IayV+2RKLKMgZPHJdeJhIFpqi+393TJ0kFhGQmRzqGU9LSMyKtmWHpVWTq19c69dK1pQclGWEl+Yl6JpzQN998i9x0802zgqZdNoDhg4Uqdf3LL798Rqu7F154wT3i0MQcwIfALI25QIo0MzfOQ5SaGZxZ12h40PH3seYtXng1CB72t6WEY+JYBidgAcMgZGu5IjzyPsCFshIapVeF+SkQv6FPsKp2uiK46cSqWGFWmE84WvGbYLLBggBYwA4fi8+kfOYyHWDOVrHK31wFXu4DQFxZVSVHjh6Vru5u58/aevfd39KPbj3a27e+s6e3oWHNxPhKfvB+Jr60TgpWLpfW/h4ZGByQnvGU5EYUJDJj0jk6Jt2jw9KtANKpJkqfAnlPelz6xmEWGYnq7928eZPcfMstLqplrHO2yGUDGL7ogKjH12DpzvgJmMWZ7S3PwZKptm7d6nIjmMn9ZCrEcjWCVZzZFCQbaASTnjgOjomcDF6nSxb+FNsQWA3HBoBRvk4WJqaBpW37YBWs/chW7XoO18rtm9/Az0K4F78JjmA2TDdeB0ABU/uOD1gzziw+pVi7APxVsDn8NziqAYzjJ9qcWTKUyWyLeL1PIuUVzfHFixsqlZEdO3VSOtVUOTE4pGMLsBiRrhEFBr0eBPP7FUTSkZjklJdKpZozq2sXymJlazffeovcetttOxUsHmOfR48ebZyZK/BxmfeA0djYmNEZ+IzRqgO43q/iNGV0y+pNOkC/9KUvOb8Azy1RyZx/QedhMA8hm9La68GqUtsnG2FNS7cGOCxqY5/leKGpLAANVcUU8B2YZnIE61c+SyUprMbMNnw9mCX4MLhmhIVRHswhzDYDDH8xajs330yb7eKbV1xbQslca0wzzEEA89Tp0xMfzok20FfDJK+ubv3Avn1NtcMjDS2nO2QgNyat+w/IkY426VRWMcY1YOlMHWeDiTjFP7JOmeuNt90u99x7b/M1Gzc8pmNwR+CQZs2Fm/eAAVjoDc6sWjVRGUizHJ0Zf2ALFKGYtoQh9j/FViyyTDNdS5qyBZgRv3Q9yBiCpe5I0AwJ/u07JC3fgpkbk4mwKWYJ+yUCA4Dde++9zmdBToW/VKNJ0GkZzJE4n8iFD4x8nmsA0wKsMN0wjzCZME0w3VAofykD2zhGv9BuLogdu6ti1XGBacA1xyTr07HSrYD53pHjmYhbXfnM7xatWeOSqxqffDJTsWq1jCh73T/8G8kkh9xizHEF/iX1y2SlmhzX6XhruPpauW7N2sg3/5//PO3xqFmamVyPd0bBY94DBmJgwfKHL774YoOlTzNbQDFRBGg1syeUm1nc2vLZzGi1IcYKfMptMp0STvc5P9xqnyFBjEjI448/7o4PxyuDFV8Fiz9jT3O8lsRlYVPLuESCDX6yybn6FQw0EXPwYgbt2LHDZYFyHERsOFZb6tE/X7+5z1wRHyiN8cGgYBqOUep9az3WIhsHeuXq+sWR5tbOrBezdt0GqVq+UspWrpHVN90irafa3XqrNSyKtHSZlCqDLKgql9gkMzub6H2fFSzjsgAMBLB44403GlhzBH8F+QwMbCvCYoFlnEzYqlBr3ydhGZ+2unpQEc/FRj+bw9PMEpybgBnKCMvgdcKaxN+J0HB8vq/Crxz1j8n3q0zngD1XyeYwBRgALsreiZZwLUlyA3TxsUwHVHPJl+FfI+4D48SydgHx/XqvbtcJBmlYUhlpO961Y9Hiiq3+PirWrZlgtcmRrbVrG77VfurUltLqip01i2u/G08kmoJt/+aCXBaAQd8LumoRLgUsCJlaViSzJawChQQocHrCJvCO+4sNI35jX1+CM+p0C/pkYxq2jir+C44NdkG4kvewmwELwAwzhBneVkozkPFLzc32PluEwt4738iF3yzI1kDBOQuzIGJiC0gDItP5K2ZbItd0EiwYtApfTBKiQQDGvo/2SHf76anvRJKpM3Izuo6czlTUV7udxCayQrdeshO4iDIXmhh8Znnuueca/+3f/k2efPJJN7CxtbG5Wf6Qlvy0/bcICMqIQqAcAIfVithSA36+hZ8SnS05K5v4ymL9N3EgEsolUQx/AH8zQHEmfuUrX3E5EDZwrY2fmSAAmy1x6De28YEhuGiRHce5bPZZux52jvgyAAyOAf8PGbOkrNtnsp3zbFi0+VzENzutMRJAgR8JlsHrLUePSO+pTkmn0pV8pzgvMfX9npbuTCo9MTaOHzh51hPef+DA7L8gnsx7hqH0PvPtb3/b2dvMzlBmysjxCQAa0GurJkV8h6XfLAcJRiHsNf+7vqL6IcUgoPAazAJFJNv06aefdmDBcwYm4dxHHnnE+S/8dn+WpWm5AsHfDtaKZHN6+tmn5yKWHYrY78LOMJcQjg9fEIABQ8NJaF28jG1Mt0bsbJRguNx8TUwaRK44t66uTj3nbkmPjnIROguXlE2dWFld+dTzxasWnvWEV6+aW2365jVgbN++PYPzEI8+NBJFJAkLZaTcG/pss7Mv04VFs71/tveCYVbfmYagUGRNkgjFIsqYSjAL8j4eeughl5BlyVhmfphZ4EcjTInPljg23bmcj1iSGwITM7ZjvUzZAMHgNTDzaS6ARVAMODhX7gVM1DmZ02MyMNgnycHB1fqxN2f6OC+VzFuT5Fe/+lUGByLhSRSRWQ+QsHoLMiP9/pcXUoLp0b7C2mYKhNOQojNADTpv65gyQDGfABSYke3DX6nMX4Xsk6Ii5/qZs51LUOkBAnxBtkiSMQz/9+xxbrTwO1P8CA8TC/fGxgxXpau/RwaHB66a2aO8tDIvGcaePXuannnmGXnllVecIjJYMUHoL0HoFGZhDsfzpefnIsEFmhHfrLHnpFrjuyCD0HIVUDheY5lDvo/jk5R0i0DYbG0hXlszxd/vJ4HG+TANP8ckeK0ACxgR+Rj4MPC9GGAEszw/jaN1psTPr7HrbAwDf1Y0OnHdT/UoSA72Fcz08V5KmXeAQWLWk08+2fDqq6+61GoE+owZgnMTT7d10bpYYb6z7df3g5C/QIEZmYMWuiU8CesgYgK9Z1Yjs/Mb3/iGM1WY4VBKW6zIL347W4QmeAznKv5nfSevJXLhBLTFkNisCtaUDTmXY5pNEjxnA0mu9UQVcEJGUiNyqqtDunp7i2bqOGdC5h1gKEg0QvFRRgYtMyAJT0QccFrZzIHSWcfrCz3zBRUyW1k7nwEoSNQyhyCD0Zrr2vIGFMGRZGYFb0RM/GP2TRXkQitnNnAxM4tZl2tqSw34kRifzvsOxLkgvtnmp/5bX1RXVdw/Ju2nOuR0R+cnZ13NI5l7huVZRGfmZ2l0Q2MZaDK1D+RYPPzww86jb9EGlMsy+C6WZHOcBsOUzc3NzvwwE8aUzhRvgv5GXRcuUtlhTERRgpTZmIUf1Zlu+zTig5092rlY+HG6aIyfqj5XoiTB6BPCuQDUML6JytyoWxmtq6snBIy5KkrnN6FYKCGKROiP2gu//6TVhlg6tr+G6YWSbAzDf87v48i0xZFN+S39nL8BM1gFCgkbwvlpncn5nK+M/sJKwZRs2z4LaPg1Mj5YcS05Nqu5sO7mQefqXPFdmGQDDARGxTjCKU3DncHeQenvGQgBYy6KKmBta2vrItgFszCzMzkW5Fr4HbGM/hv1vxiAERSfkhsw4PBEbI1UOyZbQsBfwR1BMcmqJBphTXf8c/HrNc7GLj4NaPj+EQMM609qizZxvAYYSLb1WOeaBJPczMkLc82lvd5ISkYHk9MCRseBw5mew0fn3omfReYNYHR3d2/CDMEngLMQwOAGMzMjRt2xQXkdhbUGtxdbgk40FJ68EI6BYzXzw2ZwZm7eB/iM7qOcdBXHp+GHUg1wfPMkG0AEXzsf8Xt/+o8cO4DhMxwTS9qaq4Bhq9b5DmwzSSaWw9Tz4l6NjE7r9KRjaNnyZbPfBjsPmTdOT2UX/5HICArFDcZjT+YkyseKZJgmpDIjllxkgxnJZltfqEEenKl8ZTJfigEH4rMhAwRTyGygEAzfZssyDZ6fv3yjAY79nu8fsWM0kLAwIwKIEU4FgIk+UdEJZUf86MLFCF1fbPFDwXb9uA6Wd8LlZBGkoeHBMxhG07sfNA0r2G+65cb1lavq5xVYIPMGMFpaWjaRz2DRBWY+ehfgI4B1YH9CmUm1Nrp8PoP4QoVgDTB8+m7KzWt+voMlZgUjLEEnqimxbw4E/SbBcwk27kXMtLHftUWZfPPHZxHmw+C4sesp/7YmOv5xWgOduSQGtEEH71SGrW7jNPcd/r1JcuTwkb97/N9/0tDd3SUvb3+x6e777p3RRYcuhsytuziN6MCt/dGPfrSIaAJidNIGNNSeSlXrYkUC1MXKwUA+ad/W5BflQpHMCWvtAjlum9EMANmngV5wIPtMJBiJyBapCB5r8L1gdqeZJLZvQBiHLSag/T75GACGLQrtg8Vc64eBBFmbAcjv17TlHMclNZaaAoyW1paK3/7uNRfVyissaNDrs37hwoWfWMLuN3ia7TK3eOI0okq1yVKT/bU1rBoUwLDFiRnsyMUO7/lK5yuizdIcp61lYu8zm6P4/kLHfs4DSgnlRynNyRjcf5BN2O/5Zo013rFZ31/k2f8e+zdfj0WYbL2Wbdu2uUWNeB3gg7mRQWsNfbIxnLnmxzDxu475JhzidxLTa1VBFAtmS7Gjmsf/67nsf66ABTIvGIbepAfNuenfVPMTIDgRmRFBf+uFeTEl20zuJwOhWPTiIMGMmhFMKNiFRUns+Iw5oJQoJE43P9rDe34TnSDQ2G/7j/7x+YyE73KdzOEKAOOjIMHMlojkOsPaOFZrWkw0inJ3AM3MqmDjHX9x69mei+HfK2Ng/rkEqlgH7Xv6WiX3lXs5uXRl1QydwkWTeQEYOusRUnU3l0FsFBgb3GZKbq71nUBRL6YEFSJbXQVAQKcvGuPQXYukLGuOY+X2KC4C1SeXhBAxJpV1/rJ9298Gkr7DzjcNLCnM1mnl9ywvhb9tTVfS09kAV8AB4IDBASKWd8HvEGJkiUiWIKBZsmXSIn4ndVO6uZTt6YPG2dL89TpMAQYMw6Jck9fsDMB4++23mzCH9XrNWd/GvACM06dPL2ImhE3Y4kSI3XQDEOg1CmE+g5nw3PugwYxM/1DADnCAylr0AjFnpq2KBnBwLiiuzdich5+gZWXw5sMx/4M5MW1tV9fMVh/5XVtBDXON0K0tVsSg9+soADKiIbAdmA7MgsI4W1fWyt2DkRm/qnYuSBDgg71GfMah12QKMNQEqTAn9WRtUKW9t2fPnme//e1vN9CyQNnHDp0sts7IyX1GmReAoQO91tYT8ZufIBYutMiAzdoXMz8g24yU7bfwWZCyfvfdd7vjwTFrjX/N2YkSWrYnRWm8ZsVnnCNKzHn5TMHMCms36IMFG2yBBZ8BBEDUPoNYhim/Czjw3BZoxt8CMMByeM9f8d73ifhmjt2LudgPwwcMxK6jmYCIXp8Bew7D8CuV9fkUw3jvvfc2/fu//7srIFSw/dgK8HNF5gVg6I1cZA5Oc/D5tSKWVWmzZJCyX+iB7M9GSNCf4L9O1iB9OmypRFYSIwWcGR6l5zOwIprs4EtAMS1D1bep+RsTgzwUQIHnBizBgjYDGvYfnPmhzKTUs5FXAXuwZCUYDk2SATq+b0lvZqL4Yd3prstcAY1sDmSuH2OJ62rgoefjBpf+Xfnd7373jPwWZYIOMPQ1F8XDt2HZunp/tuo13HGJT+szy7wADB3MbXrxF/HcKLrNBAxsU1JrYHspeksGMyuzRTL8/Atmalry4afAww5wUPpuC0YzUIlQfJKYSTJdDYn5TwABGAKbrbkBGHF9YBBsBmJcU4vMABZ+ab1JMBIUBOO5AhQmfjjYEuYspR+gtT4ken0cYOi5VvgTEZ+3iUpZ3yaAHBDB8Q5o6ITwiL61Y6bO79PKvAAMHdAn9GYu8m+Yn2lo3cBJC0cxuNFQdz8RxzcZgtGEIAsJKuB0Jogv2bIz/fwHjsWiIBwnAwxGwSOv8R4zPN8HwTvB+QAAIABJREFURMwksYY6COeCQlstirEta6fHfmAQPPIaEQ7LnyBca8BgjYX5TtAf4Ydpg0wieJ2CZslcAw07Xnw9XAvfAQyTmLyWxjAqDFRN9P0OHtVkvhOQsXuHc1n3WT0T5/RZZV4Aht60tqlei5OU0JyaBhxs3GAotQGGSTb7errchmyZlsH3golKvmJN9x1jQ9b3wvwSvIefg8bFRCPYl7XCM8Az5yjnzHe5FnbOxqp43QDDX/rRN9+yVZpmk+myNrOBRbZrMJfEwqc8whisuxivwcAqKiqmTBLf3zE53jom3ys3x7OFrhU4ambwtD61zAvAUBA4QZ0IjXShjRNdkSZyGbDlrVcm7MLa89m6I74/wF/RzKfVfuIO4iuVDywWkTAnK+InTPnedsuXQOx7DCT8FZgkmCM4OfkMCxix1iv+BI6b79pvmPPWFN4AknO2dVEBC/tNc3D6vpy5OPtfTPEnCK6NhYthGkS0AGyuIexMAcOcnhWMNculmWQbnZPvlfv1OJMmc8gwZkoUBP5Oleo/EuZjFS7zX/h2POEsum7R/NeUgxuMEqE8NiMH2YCfS/BJSmWfR0GDn83WSMaK4Ng3IU0WMKJxMe35KJjj2PBpELrECcl+/VwLqzkx0DA727I5/V6f1mvTzBU7Dl+ysam51l7vQok/DrgG3CuYBYAOsHPtJkPdLuym460CRzUmB9eYyJEykCmGEWSmem9DwJgpUcVo+vDDD5vvv/9+t24qxWbQR240djrAgFMRsOB1y5a02gxTHN9J6IufT+DnO9h7PnOYHAxnpBD7BWSWXMYxMWORIEWIk8paW9zYnJswis9//vMONMyGNmebXzpuYMF7fmMgM89M6X0m8Un1HXMponGhxWeNFnmDVZDIhv+B12GxOIzLysoO8FkFk7sYd7zPBMTkpWDiAEP3UW5jwJhsCBgzLBs3blz//PPPZyyz0xyGtugPj1B8bhw3ms9hywMopmTnQs/9z/l/+2aMz254DkCYh51ZCi+5LS3IIwMN4DBzgcGIv4KYPUslkvvgr+3Bb3M+1sCG/ZtPA+cloVo7Ht8han+bwzR4XtkeLycJOrL9yQMgMDDnPcxbQEHNlRO8r2C/ifHFJAC74D29Fy/znt6r8mCDI71Xpz92AHNA5g1gIA888EDkueeeyzAbAwL0zLQQGDUbZn7gRERhCB1yY7n51hDYWIffKyMo/gyE+L04LR8CcCAcCihgbgBeBhC22jmvmwnBb+NEY4Pq4rdgSQTMERgR+7VMSvbFbAfQsPE7gIYlW2F+cW4WDfHPxRhP0HEZAsXHnyPGzsiAtXVkGTuk9eMP07HSRp7FU089tYj7C3AzEcFm9V7u5rs6/soN7M2XFALGLJEHH3ww8uqrr2aYablx+AJQTByJ1GswAFAkgIOZmNmbOg3+hm3g4LL3fXPF/AU+uzA2Yd2zUGTAgsHBAIM1WGdwa2VnDMjCnxbZALhYYAllx19huRAckzkw+R6/R+0JiVys8k5LQovxAxhEQQAZ2AmPgCPOOf8cLDfF5HIECZPpomCm4Oa/gD0AGBZiJaV/csmKEwoSmwBw80nBEBVM2vS+Ovah9y6PceH7wfS+h4AxW+S2226LqKI2qcI0sMAxVZYABzfcfAcoGXYpr7EsgfWnQEFtSTzfVJkuKmKAASBYFqBFI/zNNw0saxKgQqExkQAuqKy1sTfQQoz58HuABX4awAK/B+dgKeT8Dk456DPVktddd50Lx8JUAA1/hjPxTStfTHHmajj000gw0Y6N+8v4YcLh2gLu3C8YoGsGHI2eePPNN4/zPmPAEuKuvfba3bZfM2cQJjLuhbKPT87Cm4UyLwEDUUVcrwq0fuXKld9RJdvCDMFNI4piPgNuJDfZlMXyGvykp2w+Cn9gmX/EL/bysxzNH8EgYkaC1QAWDDacmtalClPErzSdcrC6Nnn0yEhLZ0en7HrzTdnxyivyvg7QXgW++GTimeujkR6XdGpMkqm0HDtyREaG1DTqG5DxsbTcfvsWqayu1M/FZDwzzsFnTUozuRxYRzZTJJhjw2TAZMPyFbBGGBwgj9moTHAxzW94H/BmEgIQMEf0nn/P9o0zm2I/831gyujnQoYx20RnZrodbeU5uftKG/9ct9WHDh1atW/fvgoGgDED8yvwnJmdWcAWFrK0ciuXDzINC2EyyzMDMagsddpmHAYYxVsAg7EHmIw1zDGwQPyGNpFIjuTo60PJEWk5fER+/YtfyYfvf+CYhfNN2MnCBnSsxyTHvZYeHpWTrSfkrWEFMQWz8rIK2Xz9dVJeWSGRcXEAZJgQjPhcDmIMMXgv/eY4vA8bZclNxgfsEWXH3FOGsUE/V4v/CDBhIsIkARCYCHQcTDEMmAksxQCDcaATx09n5sw/m8xrwPBlstBnR7b31CTJ/OAHP5hK/KLoiqbBKLqxBhQacPGzIi0Ma2nWzC6YG8wwsAYAxDZjLkGTxh+kwdTxKYaj+jzY2y97mprljddfU6bRMeHM1H0O6axGq7h4LC6xiDIkvjyu+4zGXN/J7tMd8ptf75S6JUulqmaBFDhHaMx1vM7JOTOcnC1pbb4yDTPN/K7rBtyWFIf5CivF/CPHYtI3gZ+sWe9pkwLEQ/guWJnOmk/jf1JTuA1TxX4LcMdZaktf4Juai4VnyGUDGGeT2tpaBkADSg0DwPH4hS98YWpNE2MRfldtU6pg017LgUDMaeaDRBAYTGx/2SSj++tQWvvaq69OVLBGJl5L6+fz9PicjyQ1Kngm4BxRva3lBUUS0Q8OjYxKcnRMfrbtCVmydJlUL6iRuqWL3acADI4s2D/Ejme+id/HwpzP2cLodj9hoLQhtEQtJoIbbrgB39NjfE5N2lozRwAXxg6TjDKM3f7+YKtMQmwbN25kYe2dl/C0L6iEgKGiNPExHUyvWM4Ej9Zf02+XZ1ET31Fo7/m1AsGOWEi2YrVg5+7gZyf+EBnWwXj02FF5/Xevy5iCQ9z5IYjQjAqqHlOGwa+VFhbJkppaWbJosYLgYulTRrRHqfC+I4eUWnfLnj3Ncm3LJgWOifR4zBjxlMXP25jviVt+zo2f+m/mJ2BBD9gXX3zRmSWYmTipiY7oONjBPo4ePfogrQj4LN8jORB/lU5Af+P/Fo5nmEdVVVUbYKIs5SF7by41AEZCwBDXyGbHX/7lX7rn2WZ/X3zbN9hVyphIEEh8yeZE9Z9nk1EFhu7eHjl5qt0t0ecUnYIzMjv174XVNVJaVCx1C2tlw5p1UrtwkdQuXiLtnZ06+CNy/GSrjI0My949H8mej5rlyqs3SlFB4bT9Ouw456qc7f75YgBhUSO7d7xGDg++C8LiTCCAAa0d1dyYYgcsbQFY8B3MDN6frPfZ4f+OfmfaizmXwAIJAUMmHKJ/9Vd/5Z5bboWlYWcrdffBwJ+J/S7cti//MRuD8L/vK6n/mRFWSksOSSo9NuF3wKdCUVR+kVSo4l+9foMsU7BYvmSprFqOwy1fZ8QyqSgpka6uDnm/6UNJdZ6Wo4cPy0cKGB06yIuXFTofh5lVZpbMZaA4m/jA7Iul1PuNiMjGpcs8IXl8E0S0CKNiTixbtuwx+64yyUU4MXkd38aNN94oa9eunbPmxrlICBgqx44de8WvAyFSQrKXzTymvFZxaK/5m6/02SINwe8FweZsDAPwGhyc6KeQUvBIxHKlpqxUli6qlaULFspt190gq5Yuk6rScinIjcsQuSAD/ZKv7KJ+8SJZUVcnHb1d0q7gcfjQQaXSh2X5smUfA6hgBGguS/Ba+vfIzzHxwdwqhkmGwxwh/I5pik+LnBY1SZqpW7J9wibuuecelyCnDKRZgaNp6dKlj36a450rpkkIGCo6azyslPIZKwPHiYjdaoPKciym6xdhs5RJtrTybH6K4KwXBI2J90UGBgekR00SyIVigCytXSTXXXm1XKs2dVVhsayuWyrl+YUSTes+h5JSmohLZ2+vZPQLZXpOa1Yul10fvutyOgjxvf/+e3Lrzbe6nIzpakrmYuJWNpDwnxuT8Fd48zeAmfDnCy+84HIvuI/kzdx+++0wBwDijG7fChAXTMHnAlgglxVgED6FZhL6pI+m0kx3k5Q57CZkBoMALAiDkdjlN3s926ybrfNUNienL2erUwmGM9OssKXmCJAUi8ekbnGtbFi3Vk2R9VIgOZKvb4z19UsmPS7xaMyF/9IKFEPplIzmJZR91ElNRbmMSFoG+7qlubFRWM6vuLj0DAdtkPWcqy9gtsl06d4m5qC2miFrp0cI9de//rVrj0gYFFOEcQK7uP766zfMxLnMNpk708cFEJJvfvaznznPN6nTIyMjbsZQoDihLKPNEq6YacjOAzwQ6y8RDKcGlwEMgsOnpffB77gM1DgZFmruRHKksKBQSoqKpFCVvUjZhIwMSw6mynhGEuQXqN2dS6EdXZ8K8mVxTY0sXlAj+bG4DPT3S/vJNmlvP6X0e/AMs8svw892HHNRsjmxg+0JLEELByc5FyTwES0jC/eWW26BSbi8i5k4/tkmlw1g6ACohY7TyQqHFgsadXR0/C/2fkNDw24GiC0+TAafJfAE8ykQPwcjOCCDK4/Z54M5GOcCKHwSEIuzBKH+G0OpGfAsK0Cx01haIqkxiZGTob+Zp58f7eoSGR5xSVxFNHOhEzjLGOp+kmqydHd1O1/G0FDynNKjZ6NMF83Klt/ib2Y++t8nIQ+wgFlQEwLbIHeCPBzyLurr6+fswkMXWi4bwNAZZJMl4FCGjCc8mUxW2PsrV6583BrrMJAYNDawzIcRzMT0602Qs4VkgwM3mwSBZOJzGZdzwVtsqdFJf4q+l0+lK2uGKMgJx8iaK/oedmaCNnH6+aiyjiIFm7VUrZaXyjgFasfbXcEd6eGWms5vWbHdbAQMH2x9hbfnwS7p5nw2dmgM0V/Txb7D5PHcc8/Jj3/8YzcueG3r1q3yJ3/yJ/gvZs9FmAVy2QCGDpQ7AAFTfoROz/a+Dqz9ZOph/9u6oaT9AjL+wseXXhj40d+HPTluZRXjmBIORVTZdSPMypaDo5LisjEFON0iLlcjR8pp/hvPc5mghGUxTYYGh86oXD0f5jPbxAdwAwOrFLYEOc6PGh6/Lgi/BdmcVADbYt60csTRuWXLltBvEZDLBjBU8Uugntb3EqHTs72voHCA1F0cXSgRYVUqXAdcrcbMRgsSiTw1lQrcc4rRqEhNpcYcXmCzTHj8xSVp6V8KCRNVrhkFFqGln765oLJKiijZV/BJK5B0dXY5u92uRdBUmkviMw0DO78/q52bnas1ImKBaSIi9BYhhGqNcR5++GHAonmyeDEUT+YdYOzbty/zwQcfZHj0X1fFL0FBzEM+maQzxTD07041S7qwXXmfDD4Yhq1jOnMRAzqcF0hRUbGaITqD6r+RkVG3OQXJwYQYd9RDsUSfpyfTvccnXh+fqGKtLCt3qeNxTBAFkq7OThcpgW0FE9JM5lKUxLqd+dmrxjjMoWufAzhwahMRefbZZ10Ile/Rk4Qeqjg615MHHsrHZF4BBv0vaKj76quvukFgURBE2UWJrauKTNLWCv/7K1asOECKL4OHXhnWo9H8FzMl+Xn5UlZSLnnxiaUBBulzoVs6rcyCXp8y4RxViHAh2Eg0xwEJr2YmFak4v1CKCwqd3yOjDArHZ3d3zxnrs/jySSnys0WMTRgoBPuR+K9jbuDDoDcFPpznn3/eOcBhkRSN3XbbbVSiYpLMLYp1CWVe5WGcOHHi/yJkCmjg3b7yyiv/s778x7ynYFFqrfZt9vEZBlJbW7u/qqrqeuvLSS4GDtKZXHk8ojqbiCWktLhUaqpq5FR7iwOxHvp4ptQOjxbJOG4J/eCYc4xOpHln1PTIkLk6npaUspGEsovS4hIpVNOmK9klA7oP60HpJ4755kgwL2M2izVJNie1z5oswsV9p0z9F7/4hfz85z939SLWw4JcC0wRZRjndLJ63bZ2dHT8B2Wh9QpA9TpelilDOVpWVnaksLDwiE4+/+Ein/KMyLwCjMHBwSU0MyHfghXOdHCstvf0hpb4K4SZEuggq8Qc4bmaI49XVlb+ETYugEGoDacYzlKcoTOnOBFnktTXL5fOrpPSR0Ph7m597JfxygoZxxSxng74MmAXbJEJpR8bTUlCHyvULCkvK5OjnR3unGz1dr+Ybi6wCl+seMz6jfj5MX4oHDOEdV9gny+//LIDC8CS6lKYxR133CH333//J97ggwcP7njvvfe2/OM//qMbHzTOIbLCVl9fv0zH0DIde1t+8pOf/M9f+cpXNugxzSs/yLwCDGURdWToQTFxcKqdusre0wFTki18qBsswwGGDjpKj113LBxi5G0wKHgkqYscjZkQjpXs1CvWrFX2tFuSen69LNI8MCijlNTrecSccammSCbHmSiYJxaKHY/oX+MZqa6oUsAod638LB/DIkdWOOdnmc6FFdHM5LDWA0GnJ2aoObABCgCDewuAYH7SeBm/xRe+8IWzRkQwd3fu3Nn45JNPOnMGpgLgWn9YxhvjhEZK7Bcfid6zRiavNWvWzO6LeB4y3wBjCQpgHnGl3BXGIAAM+5wVkXmA4YQuSTt27GjbsGHDImYgBgExemxeCo1sceJLLVSoYk6sWrNa4rE8GR7vlaGRYRlQZRihnyjnEZkIv9JJixRxoiTjgGJkAkTo2lWh7KK8pNSFYnGa9vVNrApvSx2YzHRU6HzEkuoQc2hz/EwKPGcCgXXiqyCLEwXmnGmTh3PzrrvucmXpZ8vk3Lt3b9OPfvSjBrrO0ywHpgJI+AyGpD9Yqa29CpDw/je+8Y1LcyEukcwrwDAfBTcRRyU3UAcNLKNTB1FJsE5icqv090GDEx1ADz7zzDNuH/gx6NRNTQGzR7CXhf3exZRIJCOFxfmydGmdAgYhwRwZVqDoV5YwCjjAJDgGQCPi7BD9L+O6e+ZGI+69iCpPaWGxlBQWuc/g60BxmIH9tWB9Z+FsYRfZslFNjDEi1k4RwTcBswAsXnrpJQcWRL0AFQrKqDD9+te/jhmywa9A9QVWoeZHo4KF2wflBIwpfpN2e7baPQl/+ECswTQgxURDhA1A0mOq9Vv2zWWZV4ChVLBV7cgGFAF2ANLrwMGP8SY31xYgZiAxoIIMA1m0aNF/AjBozU+qMIOEno2UOGMW2OLGlvxjmYSIOdjOVYJ1G0EFdccnEyuVRXIysrC2WgqK8iWTmyNdvX3ScqJNhkbHpEhBJDKelvRoSqKYFyRr5cYkTSo0HcfzE9KrbKK0oEAWlVdKSW6eJFNJ15HLcjHsHOy8UKyZMsF8yVbjgvg+F0DP7/jO3wAFIVNr4Mtr7Id077vvvtv1bD2bg1O/3/Tf//t/byD0yr78RYqoXKUR8JYtWzA3psADs4ckMCYbGI1F2vR6btJdhoAx20RpZUt1dXUDpgP2JNESNSeIlPyI/Ao2W5uUWYDPNDQ0nAEYzDbKKJpvuOGGBsDC1julRwINUiyL0OioLXRjK3abY/VCzs4oQSIvIQWF+bJg0QLpOH1ShgaV/p467ZrrlDNg+d3MkERIe4YdEC3B6+lyMdIuuzPOIk6FBa5wrb1bAUNnQMCTWROZTT0xfIDIZh75ndVt8WsmCgrHqAdhQWt6WjDrA7jc+3Xr1rlICMqu9/djJ2g9KVhy81/+5V/cPmjBx35hJQAFSwwQgSMbFF8XYGHHSoNfOnNh7lhDYfwcOnH9T/r2sxfpUl1SmVeAoQyiFaclEQ1bC6K5ubmBfAxuPDfSBh8gAPqrwtylf/6dvx9lKY9u3ry5kXRhZmAcXMwY9GZkQBgwWH1CthZ3F1JyojmSG8t1PhQGaeuRo9KvM17b6XbpGxiUxcp8JjuITnXREjMxUCwK1AT2k6OAUSTl5RW0E3dgwSyIPX7G780C/4U1tLG6j2ASlr/0oK2sDsDv3r3bdcrCBwUrsHVhyMPCuXnbbbc1s2ZNtt9kPPzkJz/JUNFMkSLmKMzEOm7pmHCmDNmgROFgrP4x8luUF8BEEVvEWa/xvEkCm1eAoTfsRytWrPgz2v1jrzKImG10wDTq7HCHzgCv4MEGAJh5ABR9vim4H1iG2qDNrJwGE2HgQEvJ8Xj00UenTBtzrPFoM56/lMAFk0kAYHmA5SuWywfvvien2k5IR/dE8lV60SLXQXzcsQyX3OkeDTwmKL0430WhsovKSgWMQxPt71EqlCI4o88GP0bQHDGQsNesOxr3GmckpiOOSVgGn+NewwrwPxENeeCBB7L6K/ReNym7cKvkEUUBdKyuhIQuQILaEhgmEwb3n9+2cLQtfIXAdiz13IoY9Ro3XMLLdlFlXgHGggULdjz11FOuv6IlXaHkxNmvueaaHaw7ApUkaYf38XZv3LhxUTanlILLo0pdG/kcoMFMzL7xqENv/W7iCLMMGw6wCy1UleKkpCfGsvplEk/EZXQs5bZTXZ0yPJqSOBmeABafty8yS9MvmBXsIzluHwU6oCvLJ6yw/kkfhplUfo+Iid8dPy+fzLnIuTIw+xyzNoLZxPW1ZSMBOUxKmCNgAQPkkXuFc1pNTeeIBCzwW+jjx5BvdHR0q7KSV3CI4qvABAFs+G1YAuYHQHHfffe5vp1MRFwTfBnW/9P3YVnXeLuOHC/P9RyaL8jFmwUyrwAD0cGxU2eCLcw6sAK81cwWiNLSnUpLt1BshLLwGfIsVGE+5pRiJtq3b1/zwYMHGxiY7IvBxOACkBiEKJstlswgu1hOQvOV5OnMtmDBQknkTzhdlajLyfZTLuMzR1/LiSnTSScncjD4Xs7EKmjkXTCEMU1Y8KhEQQ2jY8Rb3jHbb86kaWIFZXYcgISBNPeT1H/8SrCC119/3SkxIMLsTxEhJgROSRRdWYYDC91fLfda2eX/rUCx5fvf/77zc1l/FECJ3yFEip/izjvvdKFX/BfmDLbFs80UMRZmQGL+IACHMQbI6P7mTfLWvAMMNUm2vvzyyxluHpSUR5QaUXq5VQdYhkWKMFcYCPg1FBCeEZGPzUC6r0eVmTRiuuDzYPbC644fgXRi9m8zsym19Yq8kEJdCEVnbiHn0hLJdd23cnQAp+SomlYDQ0mpKSyQKOHF1Igew0TyVnTSeUmxmcv6pIVfLNcBBksY+f6ArL97kcyRc2EZwaZFzNwABWFLzEzAwpa3xMSM+WvMTtYCwT64z9/73vcyKPs//MM/uP3g36J3J/vic3yfcYL/Af8EjBQzBN8Hjkw/g9TCqpYohvgLWOEXYpxYFI5xogD2rxflQs6AzDvAQO6+++6IMoJndZbZpGCwCEZgouwj8vbbbz97/PjxTcwUqvy7lXpmXViGtF58GQoYLmJCXJ2ZCOoKXSU059cq+EVPF1TZmGVxfOZGpUCBoaysXBIF+TIwnJTDqjB9gwMyVlUh8ajeTpZIVIBIy2ROhjuuieQvjo2BXlRUOIWOtgI9iuQD3WzwX1gCGUwO5caEhA3ACgAKlBNBKVFmlNSABacnwMC9sR4olq9hjmzAgnNkQoGJYG7i2MSUYTKAbdgkYKaZsTHLXfFBjeOxhb4BKCYknKP+OqtzXeYlYCAbNmx4aLr3dFBM+16wezOdotUMyWC6MCvhF2HAYpqwChYDy2YgC6leSHGmBRofmYiWFBYWOYZTqbT5uDKfE8oy+nV2HFH2kNDPsJp7Rk2UcdepS6ZWNsM8AUBQgiLdx4TR8vtybzbLZPWBb6YEhcTEIIKD+YEzEqDm2sMGLK8GheQ+AAJEOTAfAXbYh18bY123ABVzTgMUtqIZtSSYIEwEBgJWp2LFbH6HNZiG/c3+OCbGCMcHYHAtYSk6ftrmS9IWMm8B43xFZ6RMQ0NDVg25+eabNyjNbCTUZr0UGLwMtC9/+ctucNgMbU66iyGkfheWFLsU8YWLa3U2OyiD4yMySncpAMt10cl1laquclOmoquOYThfAH0/scEn98lgtw5jls/gt7u70E7PcxVTwMcff9w5rgECv3tWfX298zOQSQnTs+IyKlGpGbF6Easp4Tn7BGSs3gOHKPcPdoHPwTeD7PxhZGzGYGAq/M1+bAkKQA1mgT+F37W8DcK4ym7nDbtAQsCYlOnAAqHzEqaJDswGBgep4lDin/70pw4g8KTjKPNZht/7EzEHGQPSaO7ZTJczSs5R78hEsxwShaqqq6WkrEzfi+o+I3JQB+vaJXVSpa8N6WDNs8rViQPQ38t1zYOJorhGOwol7N3ySUyxEIuY2MzJozlGzfmImOJam34/FGvRAx98rH7HX5bQz2Gw30HxuL5k2eLMhDXgh7AIFE1uMB0wG8i+teQpFBimwd9f/OIXnbkB68DxaKvYcb44IfFVkFsBSGDO+MWI/nq3dk38nq6WDm7vAQ6ABL01iLTg72K/mDY4Xuvq6v7Tpx2Ts1FCwDhHwTR57bXXMtBNKC8DGTuZUC3KwWyHr8TqWBC/TZyByKdJ8BpzDWBSTtnjsXzJJ7MzkedqRMYz49LS1ib9eOerKtU0mQit0pbP1ZdMduWKTin0RDIXwt8og9n+iCm6zbZ+IZoPbsG0dv913+a3vxHro+kDKo9cT3NE4szEWYkSonxWqYtzmjTsyTVCHMPAnADA7DcADVZYJ3fCeppY018DLT4Dk0Lp/boZOw9zYptvB/GbCJtzk/c4Zo4V5klKOMfP+2SUkuSnk1DzdHUqc1VCwDgPueWWWyI//vGPMwxwlAx/BjOhOdNI7DEHnJ/L4Cufn9J8bpJx+RMuF4P9xTIOMErLy6SguEhG+wfklM7APcp8RsczrkI1BWhEcyZyMDJp569wtNo1AJ4odbdjs9wBXzk4P2ZnlMcovEUhgswJ8c/VB5hgBMZqVBCuH7Mz7AFWgZ8CkwIzhPaIHA9AQYiUyAV5FTAKHgEEMxNsf3YuFsHwC8NMDKj8qlbfDDFGZOfps0BjRIBQp2uIzTxPAAAgAElEQVRv2O3K3Enywl8CWPAZ669BLVL9PFyeIASM85Svf/3rkW3btmUYfE8//bQzTfDcT5bTuyQf7FfLyfBTm22g+oVdn8w0xl10JJqbp7qeds7MsopyWba8Xpao4hzdc0BOdXY50BjSWTc3FtffHHSdwqkj4TsUoSUwHbzZ3u3Z639pwvGhtGRMWlNcsiU5J3vfnH0mfvalKZedu83svI85xzUCkFA6YxSABWwCALEO7Zh4gAOKR7Idiogp4Yc4DRzO5mvxGwTbZ/38jqApxTFbMpblfZhJA8jBKnBscty//OUvHcNgH4AbvhCcp2zZalXmg4SA8SlEbWSarTTixYeKWnIYiWCE1rCxGTywDQae1WpAn80H4DvWPkmM8cMUkslBZRgFsmBRrVTVLJCPGpvkWNsJOaAKd+XKVVKvYJJMDsnY+ET6FmXuGVeDRtSEpQkibjkCG83mUzGWgCLj0MU/w/FRrMUsjZ8AkDPA8CUYUQk24bH9omCYclwnQAJmwTU0pyufxaSASXAN8UkAFFxHS8c3n4v5JNgsTTt4HH5kw/62941Z2fU3kOAcbf+2ODOMh+PnuGETMAtyQQA/vodpBLjBLNi2bNkyL8ECCQHjUwhO0GaVRx55pAG6TuaoNWph9mTmhHkw4HHSoWwm5i+waMonA8ZE56xxNS1YqaztdIfEE/lSWV0ttYuXOLNjTP9H8laSVnwFhZLq73drkrj8CzVNcHE6MygyMaNG3RomURnJ/H4RIGMDKAGKjGKgDCgJgOc7A6eOzMuVsPcsFGnl5rzG9/FJkJLPtWHG5jrZEg4oHHY/YUiAFv8ECVOETN06sen01PowKLTV8NjvBhmPNVAKVt8GmYXvV/LNKn7HTCUmA+qO8F2xmRMWNgT4A2gsekQFLD6L+d5tPASMTyk6ONarUjUpYDQw++HLIBsUigrLIAyIcuCgI40cW9yK1KbLrJxO8F90dXfJ+40fykd7D8jiumWuar1MzYSE/nZGgaKtvV1OKF2+euUKibMK/dC4y9+ITi20rIodm2AWv19P9fcNkU1prIIVhYBZmD/AzAyT6bqKZ4sQcb7szxKmUHaAlogGoACooniABv4JTA9zTPK71qjYHJKAmjVn5toDyCgvz8056bMN/zFokli1qx0fjxwjQAFoTi6pOVVPxGc5do4TbMBcuvPOOwGKRy+HdUxCwDgP2b9/f0YH9tQUu2bNmvU6M6/XAdQIIMA0oNqABTSWwWaNhHGIohgMNvPsI+eSHIWyt7WdlOeef17eee8D2XjlNapcDc7Or61dIqdbj8rhlqOyd/9+ueWqjVISV5o+mis5KAbmR2aidDVGUx0d8G5Bp0knqkvk0mMyym/l7igeMz/RCUKR5tgNdizzFwtC+NtCqL4TFGBgFsbWh80QUYLGs7lENAU/W03dvm/+H79fJ0wDtoKDFJbCsRMiZSO3gmPmXAxs/OMzPwQAZDkd/Ab74X5x3wAGsnq5Z7xm69JYhAWgoGKViI2aa80KGJcFUJiEgHEeAlh8+OGHGaXNU1o+GTaLUCK9YsWKBipasXHxaeDIg86S0ANtpYYFGxflYOD6ZdFnE/IomP1e/c1v5OCBI2qSFMiqVWvcoL3+xhtkx/ZO6ezukcNKmVt10K9XBWS9EvwWbmO2neypMdLX62ZM4wZQfgCBWRqFxAQBNAwwMA1gGjYbT9clzBLXbBa3PA4r/wcYYA4oIMoMwAIe/oxvLIZIhJkGFva13AeuA1WpNONFsS1Uy/5QZjaeU1FsYVc7FvYLg8JxaanhVrHL62z8HTw/joP9YmLCKPReNq9du/bRs3UE90sM5pOEgHGeYmDBymp+N2jyNOgBuWHDhkZyM0hlxqfBjAV4ULSG/UvMnkQvbHWAI0j1Py4ZxwZQtGNHj8nY+JiwImI+VZUV5bKoplqVKSoj+hlqSlpPtstqBYw02Z6SdpESlxeh7CKRkytDwyPSoeZNzkT5mVMo6D+Ki+Iws6I4rtBNFdqAxMKu2cKqvOaHHZnBARmb4e19FBkW4IcpDYR834clUvnsyw+Jmvlgbfd4DWAGBHBGGrswU8rvq8FvADKWjOavmGYgBVsx5kLzZxywmB86YTQrSzwnRjEfwQIJAeNTSrbW8ZMDKaJmSZPOQA2EW4k4kOCFwgMg0FwyGf02bwxOZvrszXdwUipNV5aRG9H306MyMjAoMjoiNWWlct3VV8krLzwvI129ckqB4K3GD2W1Mo9SVXSWVhyfWmxZlVT31dalTOTIMf2tmBQX5E2ZSCgkig77wCThOKDggJqFF/2uV0FnofkELF/DnKR+6HLyGp3Re8Nmf19hg20C/WQqYy/WdwJAszA2fg3Azvd52H78LM7/v71zi62yXtP4H4UNgqihQjlJFUGg7ZhNEcpBaAUGtiKaaCQx0W2il9ubuduXRhPjjRdeMDPZmei+mJERRxMPEAYFCsNZYdChSOVgVWwpJ3c5FCho5//7dz2dd3/WQ5xNV9da75OsrNXVb31rdcH7fO/7vCdge0k4B48hOe4RXQmZIDg8rEgam2NI9YdiK8L6NXDCuAZAKUfbiP/Z9uMa44oTH2s+KG4/WRRupBD5D8qN/7hKc+oq2f2f/bu0fHnI4N+EC+cvhisXL4dOVPoYZkyPhDFl8qRw7tTpcOrsX8K+z5vC3TEUmnLnpHALouV1w5KGgbGcilfk5m9awpfxs2CuZbm4X30UeAcqpeYzQGISPiWOAlvcZA0S8Fjiro4B9gqv56VN6Lw2c6HX91YxqufkteCx8Tfw/Wq9pUgm+xlFOPxtaEDcCMkgHWkhkRwOjB8/vrG8vPwf49/ScG3/txQWnDCuEaRtkEmJZFCJl0FVoMIUfkYUxcMgi0KIgnFytYc4IBkVKkEYLZFkunIt61evdoZzuOSXLoap0ypD7ew50WtoDp/Fc39z+kTY07g/DIzewV2TJoURNw5PczAYAnz4yNFw4OiRcPJse7jU1dmTodACarwgbULjc2CEXLmteGhhiUIeQHa7nK134DmFA9l5F/axwhO9h34v47e7R6jbWLZsWSI+iAIPCdLjMyvsyL3ucvxe2+N52qPn1B6/6/b4/bbHv7E9kge3HfG5xvj3lrwX8VNwwrjGIJOCthFJYz/kgItLCpYcP8aJcEcmBbFUV2f+81NhSaqx7NayVEtx9IujYXC8Kl5POTWzOKPR42ATcsycPSts2bY1ZWguXfku7IlhyUCMMxJFeTzX1WikFGxs2b0z7Dt0IHREsqDPZPacOamdm/fEuLT6D0+DKy5XXmUcsoRhr9rKPogoskuR7M5TzqXiNZ5XkZQIRMSg91CFLNBjPCCVgd+QppCVpzknffMvWtpwwugDSNtobm5uiCRQh4hGvQY3ioFwpYm/AUZF+IKCj4DH/E6KJzASjum80pn2qpIVufLd1UBydFzFhHDfooXp+T27PwpHW4+Fjh2XwtGvvwqjoveQQpKr34UDBz8LLadPhRuGDQ9TIlHMqq1NBAa4MlPujJeBwWKIEJzauIUfm5NhZ2nYLAdGrjSy9Thsx66Os92tlpDs3hQJq/Jk+sOE81KCE0YfInoZ9dxHQqivrq5+7tixY3XoGEq/4kqrcEopv+sH0YdxNXWsXjfw+rSpnRmeLW2t4dDRwymUGTL8xjBr3txwlgnV7d1FYy2nT4Zvz58NQ78cmuZ3YmjfRq9k0OBBYeLEO0Pd4sVhciQNRD9ETsgreSi5mRF4OZzbroeUt2BFTBm27ZlRy7slCTJF6AsQkjwNCakIjYQ/3GspkPVeIAwgXQJvhnuOQ4uI52rNyz9oCcIJIw8YO3ZsQ7yr53FHR0d9W1vbEydOnBgf7287cuTI+Hi7CaPHeJnfee78udB+7my4+v134avoNZxvP5vut27bHmbMmBlG0Iw2cWKoX7woeR0f7d4djhw+Eo5Ta3DieKru5EaYQagze/acsGjJkjB6zJhk6BAWYZLKtnHxEWOpvMxOR+8NtstTgq2atiREUjVJdghPRh6DhE9IC/GSzAQhErpEtvbDhj5oFZAOZMZx8fVFNaSmP8MJI8+IV8iGeNdgn4uGcXM0iPHxdlv0LMYf+eLoPzQdaqpsO3kyvPkfb4b9+z4NLd+0hg0bNyaj//0Tv096w13TpqaU6o7tO8Kmhk1h966dMeTp3tExINo8lZZMgZodQ5GKO+4IA6OxIr6S+mVpEySFQTIpm45LvIzemrqy4HdqTNM4O84DAVGPQoMeYq/2iGiQLlD4A5lR88C8C4rbICwyGApXNGAHr4vUNOeQRxK/w3eu4T+Rw8AJox8iGkd7vOMmxf5frly9UnW4+Yv9p9pOhnNn2sPnTU2h5etj4c+v/TnMmzMveQNDBrNOcViYe++94bczalIm5dLlS6kkvDM3gg9iGT78pjRRnPAAomAHKcSBkXO1Z1IUPTDAhiB2CpWFyrgtUbA9jHNrIK60B45V56udx4HnQRhG5ghPZPny5WlUAGlO1W5QqMUxpKYVOkEq8TMf67N/nBKHE0aBIBp9Ek63btvWdTK6+We//Uv35raW42H1v7+RZlNSuoy4SVx/w9Abevo2ujtU2QF7KZWMUznaerx7/SMeAAaqnR6Mt8O7gDjsYqNsA5edVqUbOggkwQ0CovKS8yrzQ7UkXoTWDEIukBaeDVkjMka8hsfcCGdEFsrkEI6gh2hkX65a9us8/tOUFJwwCgyzZ82qbj50eP/p6Glc7mAhc1vYunlLGB6v2uwfwdO4deSt4Xpc+QHRMxg4qGd2RCrMOt8eTp44ETZ8uCGGLLtSX4aG1hKK0O+CYastnSs/BKSmLqAshrwGhFpIB6KgBJ7wA6+CkEG7PRjCw2PNt+DziAAgBprJOCfn4WcIg9ADPUMZFA0pksdCnQq6RyQM9zD6CE4YBYaBgwY1Hm48eODC2XOVlyJhbG7YFNq+aQkfrPvPJIZe/N3vwqRJk8ONw28MQ24Ykpt29X183cXQ0toSmmOI8Mm+feH1f3s9GSaeAYVbzKJ4+umnU98EV25IBNcffQMywdBpwNICYvV04B3gTTAch8I0XkOYwTkRWAlvmM4NCWlRMWKl5n7qPBAD3gifSZ2jEJYqXoFaz+Xd5KZ/n6UYK8//LCUDJ4wCxKSqqVWNu/d2QRhfHjkamo99GY4eOhwunIsewclTyVBHjRmdDF3NYxR/NUbDTjtI49X869zCYrISeBaM62fSNUaIPkA1Klf9lStXJh2BYxiXp8wJngHeAJ24kAraA+EF4QMeBMdSsg0BEYbwObSTlFAEzwTykKCJtoIoy5CdbJ+KNBItCtLIvFzxlnsXfQgnjAJC25GvusrvnJCsqGpWzYC9/7Wz68K5C2HDxg2h8bMD4fTpU2H79m1p5mSqpkxhA+sGukOIjmik5+NVGpceY6V/hbZ7dpCSldBMDPWwoBVADFztufpDCBAJmQq8Ct6H+hHtNYUo0FFEFIQiIgW1uYsItFVMFaI8xjvRQiWIi5tew/MQBtWokIV6P+Ixrl/0IZwwCggiC6Fm/uwB+7Z/1FVWdmv4eO/H4b8/3RcOfX44tJ4/ngovaGmn94Tq0O9zvReDWQ/JbIea6ckToWsWfYEwRMarTk6ESgbokPVAYIUoKO7CeNE2uEEUvIbQg3ORFoUsIA+NIcQ70Eg7NZzZ8XoQDgVsaCCcTx2oeB02K8M5qOnA4+CzcYuf2z2MPoQTRoHjt3NnDvjq0BeNFRPvqLxz8uSwI4YIn/zPJ+FEDE1IXY6Khsvy5YG5+RYjykaEiooJYVbtrJStQDtA0NQGNJVc421AKBAAV3TSo4QD2hWCoWPYkA3noL4DoqCZjVSnvAZ1h9qeEjuXAnJCt6BwjHAJiKj4XHq9ajDwMngO7wJSicc05PdfoLTghFEEmDD5jqpogFVTqir33x2v9P/0p38OO3fu6l4yfPffhfn3zg83x6s1V+zy8pFh1OjycHMkD7uBXBO4MUyIA2NH30DbUAk2IYNCCn6GHJjpQQiCIMr58SJ0DpAdZANsyTdaBpkatoYhaEIWjMBD94DgdDzHER6p9R4y4RbPfSg/33ppwgmjSMC4uM7OK/e1nTqxCW8C0/zNkMFhwu23h79fuiR6FmU5z4CahkHd5eIDrku1GdqTogE4EhQxdMRLMiSsG1D9A8SAV0HYAUHIK1H6UysYtRXebg7T9C2N51u7dm0qHIM0cn9HytighUB4Iijem+xJCN21ILyeWzz+cP6+9dKDE0YRIRJBw7boWQyLV16a1tqjC085+YV4tb81N9MCTYPVBJ3xSj1kyP81lmlOhdrZJVRqRge9HpprocyGbVUHdry/nbSlqVp4HfqZ4yjUWr16ddi2bVvPWD9mg5CGpVPWzshALyF0URFXbvDNmUgYp/PyZZconDCKDNGwN4+/bXwd6xRPRBefLAZZjvLyUZEMhnavW8TocwNmgAxTZdqqrpTGIGKQFqGRetmhvxqbJ0KxI/F0LO+J8SOessCYhctkXggvIAoKx0jd8n7qagWUhHOcPBiOLysrc++ij+HDBIoM40aXPzd1ypRwYyQM4v7jkSyamg6GSxdj6JEaydKG1bR+0W5gty3rgm0xx3hFCMAWVNkdqnaSVraWgteTDcGjoNeEmgtIAAGTEASyQDOh6MtOy+Ie0oP8+Jx4IoRFkTRcv+hjOGEUGeKVuWFaJIxbbhoerr+O2P9M2LNrV+g4fzZc7byUJnQxdbwzN7rfDqbRIiCgK7m0B2U1bJ2GiESah8IFu1NEYifZDTIt69evD6+//nra4aKOUwq2nnzyyfDII48kshDhiMh4XzI01GDwMxkUQpKhQ4e+kc/vuhThIUkRonzUyM333DOjrq2tuydj06aN0d2vSbMvESs1s9MuS5brj3GiNVitQqIlUFiiRUDKgiikQYvQrAoRDSEIy51ZsaBlT5AFQitFY3SmQhqQh2ZkAGVVtFwJ8H5arnTTTTf5HIw+hhNGESIa1MszZ86sQ1QkBMDgVq1alYx9yZIlSVCELNSSDiRS2nDC7ky1Q2y0ncxqH3abun5HGpT3JwNC+TgjB/EyOJ40LCSxdOnSnkIvu37AhkfUfpAh0WpE6kdiGNMaH7f0/bdb2nDCKELEK/4e6hm4YguUcdMghiGzthHS0HBfu/dDoYANK+xQX4UiduamwhJ5IbxOG9rxKrgxcYs6CzwPir0gC+Zd8FgVnTqvbZ8H6lwFeCV4SWVlZe5d5AFOGEUKSqy5YbyEDBg1V3ieQzwkPCFViuCIEQKFGHpM2GHDEnkYljDkEXB+zq12dQiK6k1CETwEzgFZkDZl3gahCFkRrR5QRkY7TUQYnJfPiwai9Y20tMfP/ae8fbklDCeMIsTly5dncFVGO9AcTLwNtY3Thk46k8YzjJfGM7WdA3kZtsZCAqdNtco74Yb3QEPa7t27e7a9paXPOb0EIyeUWLFiRQqLckVX6dx245u0E70n/SMQEPdUlxK65IjOPYw8wAmjCHHw4MGXuLLTqKXVf7jxtKMTKmDEhAjoCaQ3MWRqH2gg0yZ1+kS0zMjqCaoE5TxkLWiBZ5s67e2adI43oL2nhBuce+HChSkU4jHnB6oCVeYlu1ENckIDEWGgX0A88fWt0Sty/SIPcMIoMrA06dVXX63EiDFg0pR4EfR8cNVn9wjdp3gatKtjjNz4GXESgsAwqXUgXNFSZbuVTJO4NBGcsm0mYakHBZJiWzvCJmXlDM9hZYHdc6Jsi9UsBIUkkA5ExPuQVWEAD8QXPQz3LvIEJ4wiw86dO/cjbqIb4A3QyMWVHcK46667UkMZpAGhEKLgDWiSFWGMqj/RNTBQlYnbhcYcjzGrLoNjtVcEksGjwZOANGhQI4RAe5DmYQfkZPeyAukkpGilX1zODTHmXDEseTlvX3CJwwmjiBBDjkYaudatW5e8ALQJpmhhwJqupfADzwCCIDQhtJCnYCssIQbbYapUqwbgaPo3RIEXwfkhCNriGZ4D4UhQBZzXbjgDdiK5npf3AUngXUBOgPfh81Oc1udfriPBCaNIwLb4N998s/K1117rqbpU+7n2p2owDmEC3gazLggt8C4wTO4JY7SUWRvH7KJlDRROszVy29/RKfAmECQ1Kct2p6rXxHoqwG5YB5rxqb4UPAs8JTWmQUI1NTWb8/YlO5wwigXRdV/JmH9EQgydqzxpS8gBTwDIQ1DlplKdiJB4IegEXNXVls5Ne1LtOgEMWzoHN87Pz5qoJa9BoYXqO+wuVNukJig7AyAs/hY0DF4PCVHhWVFR4eFIHuGEUSTYu3dvHXUWGBqg3oEbPRcyWBtWaC4FBioNwl7tRQ6QR1aU1DkgB3ku2WIuWxmq82XR20Y1u4sVcRYNg8+AeIuISlHatfoOHT8PJ4wiQHTZ659//vlULAXQDhhCQ0iCMeM1qN/DtqRnr/rAEgaQd5I1eFs3kZ2kZZ+3+oR9b3tOey6Ah4Qgi8YCcfA6wpEY9rTGx55OzSOcMIoAe/bsWUndBXUVhAhapEyoYcMBO1dTrr812uzczWwjWNbA7fN6nQgDKOTorXVe+oX9HPJSVKylgb88R8hUVVXl3kWe4YRR4GCW54svvliJ6w6ohiSNSjpVMzE1u1Pl3hrJZ2Gv/Po5d/5ew5HsvAt5Kb15FoIlHA32ta/TZ9BqA2aIauAvhDF27FjXL/IMJ4wCx6effrqfUm+uyOrkpPsTI7NZB6VKsyFIb0YPetMcentNVvPo7Rj9Xp/lp87LMRSBIXhCGryOBjX0C0+n5h9OGAWM5ubmRpYpIw5Skk1aE6GTiduQh52WZUORLGEAFWUpdWoFUB2T1SM4l0IK64ko/Mm2x2c7UbM6CD+jt1B2jnfB38T5CbEqKys9ndoP4IRRoKDuYt++fZU0ezHmDkOnCpJwhNoIRE5zbI8RAxsGYOhaC0CBFPoBqVRqH3je6hAiCYRUFWwhiqq/xJKAJQkbxvB+QGldm35VOThkgcfEc4RYFIXFkMTDkX4AJ4wCRSSJlxAFWf6DkWHIeBg0kEmfUNpUFZZaVGRH33EVJwSgaIvzcSMUoKBL28p0HoiBcyOsatkQJIW4SlOY9rjaEvBspWhv4qm8IOkXeBhkR3hv0qn0oMT3dcGzH8AJo0ARDXsG4QhiJ4ZPUxbhCGJntqJSj7s3uXf3gkAevJapXKRj9+/fn6oq8S5UtMV5swKn7S4lfYu2gCBJCTrvj3HjFXAMRMa9drZybk3lAvJwgGZ2QFh8JkgLAmIiV/zbWuPf5OnUfgAnjAJENPqxa9euHYPBU8qNoVHZSe0FxpkttlJqFXA15zXM1oQkME7SsYQ1XN05jlCDcm+8CM3vhGCyN3kl9KPwWTgHxAGJ2LCIc2hzu8iMz5ytA+F96GvBw+B4CAky8tkX/QdOGAWIaEwzCCPotcCwuNrTy0GsD2wdBbC1EZAH4cbbb7+dDF1Ddggz6C/BSAkzcnMze5rAeB9ueAmEC5AFBAH5qMCKx+gPs2bNSn0qVJkSVuizSLdQCAKhSDSFLOhhoYuWzyQPhrAnks8f+/5bdvQGJ4wCRCSLBxAFIQ2u0tRb0DNCZSforfZBUGigiVhqGafQC8LhPHgIGDu/yxIPhg1R4AnQJo/oinfBuXbu3Jmeh0wgF4gDbQPSUNYmW9yl5zgezwLC4O/S4J/4uQ5EYmnsg6/V8QvghFGAiKFDOUaJh4Ex4hlg4NIqbFbDVnXqOcKFRx99NIUT6ASkLdmhioFquZEWMCuUkPDJ+dBLGIjDa5jiRYPYu+++mwgEMqHFHkJ69tlnkwah90e7UIpX29W0lgCSoHmOzwShQWJ8rvg+f8jbF+34AZwwChAdHR3lzLsgDMCA8SwYUIPh2QnfoLd+EYzxqaeeSloHRKDpWngBtsRbY/F0Tq1S1LxPwgVIBQLh/QljEGLRRKgN2bRpU8pyzJ8/Px0nbcX2lAzMrWykdwRvhXAEYsn1jvD+DX353Tp+Gk4YBYgYFowmNMCgMWLSmspM2J4MIVvNiVeBV2KzKLanQwSj6lAdI9FSBo+XgM7Ae0Ms3BPGvPPOO8ljQFRFiK2tre3JrOj1doCOMjb0w/A3QTKERtOnT/dirX4GJ4wCRLwil6svBChkUAhib9keEWAzJiIIqy+IQDB+1UdYsrC6Bj9zHDUgZEj4XOgQzAclvEAEJezQlC61witLwjnxLghh8Ep4Hg2FcvCJEyc+16dfrONn4btVCxCqjFSKUmsLf6zhy5Z56/Wq4lSmQgQk8tFxmumpc6k+g9frXhkPxFeNACTMIWyCDNAk8D6yDWp6DFFQgMbxnIdaEjygSEQNffSVOn4hnDAKE20YqqZeyXDtVb+3jlJB4YQ0CQmj2kNit7EDW7oNmXCcbpxHC5gBz6FnaAkShKM2eVsBqs9IKpXQBcGU8/Ba9ItIGikcOXz48I93wTn6HE4YBYhIEseJ89EPVBshF19ag4wcWNFSHaMKByyxAHuO7K7T7A3Y0EfNaApbIDE0CTyH7CxP3agyJYQhLcvvyYwQjlRUVKTsyKRJk/6a7Rx5hWsYBYjo+rdxJcbDQDDE7adKU1kP6/prILB+/rF2diFLHNbTAAp9JIjaMnSrg2QzK3psBVWIhEVIhCT8TNiCSFpVVeW1F/0U7mEUIIYNG9ZGpkNaA7MjKHpS1kRXe2kOqq2wtRnZ+RVCdnyeJRug8ykMsh2nao/XQiMJpbZEXPe8nvQr4QifneNI0+Za2Vdcw6/P8f+AE0YBYsSIEWtJpSIyYmgYHjdSmbaPRB6FbSUHEj0VomRTp4K8C3uMDScsWejckAWfQ0Isx4gwJLByLO/PdneyI9ReUNkJWdTU1BwYPHiwexf9FE4YBYhoUHvIRuSmaKerPt2dVH8iOqq5yxZJAZGIJn7LC8Gwle0Qichb0OoB/Y7jFPrwXlqdKG8GssBjgDAImWH9ciAAAApJSURBVGhiQ5i1wivnVGs+laEa8rto0SKa6Ny76MdwwihA0OpNy7d2lWKMlGerPwTDtR2gdiCOSrNtkVdv6wtl4Mp06Hi7tR1otSLgvSEuCIP3oQSdKlA8IZuSpUkNsZPMCOXt/J5u2/nz57t20c/homeBory8fE8kjAcpmNLSYkqrqYGghgFRVEatoTmCfhZJABGCsi6cU52w+j0eBSXkek4EoPkWeBfM1KAxjveg8QwvCDETqPMVUvn444/TZ+Z9bu+eCM7n9r6Rfg4njAIFLd/RjX8QguCKjWsPYRCqQBRcsQkF1CVqZ29KBLViJZ4CxktYQ5k2Rs15RQbqakVnIHxQDwivR3+AZHgNGQ96XHgdZIGHoffmnuPQW8iO4F3wGfCU+Dt8yG//hxNGgSIaZOPBgwcPLF26tJIrO1vPuLJv2bKlhyTUlMbPwGZFeIz2wGtJy/Jayri56mP0eAqQh7QQzsOO1unTp4dnnnkmeQ/SMTB6jmW+BrMx+JksDv0gkIsVYSEVQidICaKCVBgrOGPGDO8bKQA4YRQwpk6dWhWNtAstAENFSKRFHCPH+LlqM0EcLQGowhNDR2/gGNrTMXQIgmwFJKJBwIQbHMv5CCV4ntfcd999KTTRDE+qNTkPWQ9+z2vwLPBy8ErwQnQ+irQ4Du8CAuGYnNfi4UgBwAmjwBHj/gGrVq3qQm/QABtIA6+BGgdqG9A5IAoN8SU0INzgKq8J3RgwpKBKUJWKY/C8hjCD4yAaQgqqMdEmIBHeG9KBNCgggzDmzZuXekLwblTkRb0IO1QIR3gviGzBggV4GAfia1zsLAA4YRQBHn/88QHvvfdeF6XiH374YQoPcP0xbDWFYdxKpUIK6BWQgIRNjiHkwJAxeogA74GZFHgTkAHnxfjxZPBEMHi8Bs6D1wABcS5IBsKArATeEyKDLHg9+grb5XNb2jyVWiBwwigSLF++fED0KBrjlb+yoaEhCaAYuDITGLjWJKp1ncd4AHggaBP3339/Mn5ezyAcfk9YQ+iB1gH5IHTyGMLBA+HckACzLPBqVE+B+KpmNtVnEDrhpUBeCJ0PPPAAWkiPdxFJqWvy5MneO9KP4YRRRKiurq6KpFAVr9wrm5qa6jBObgiZhAya0EVWAxEzV4adPAu6Q+PP9W+88UaX6jLQPzSTEyNXRsWWiXPODz74IJEToQxeDgOAIQ7tR8FjWbduXSIhvAs8Fo7JFWpV6fM7WfR/OGEUGXKFT/U8jmRRHz2LJ+LVfXy8+t8WH4/HqCNhHIshwdcjR448FkORf40hRINej3Fr3QBhA94FXgikIbLAe+B5CrRYV6BZFhyP2El2BOIgBCLkITRas2ZNElbxUAhl8GgiUVXn6Wty/Eo4YRQxRo8e3RDvGn7p8TG8qH/hhReSIKpCLTwRCwiHcm8Mn1Dk/fffT8Ip3gdeBSlSCrE0HxRSoUiLtC+6CERCZqS2ttaFzgKEl4Y7ehCN+zlqMDSIlzAEfQNozB76Bx4I6VFqPrZt29azdAiymDNnTnoNx6GZIHRu3LgxpV55jvAHsTOGP55GLUC4h1FkaGpq6opX8B9oAdFwuzD43n4nRC+gDm8BbYIBPRg+4QMhBVqF+kYgAPQJ0qQ8T2akpqYmLFy4MK1LVI+K6i7QODRNi1CEfSU+fq8w4YRRZPgxQpg6depPCorRS6h/5ZVXUqaDWgs8BvWNQA78zA2CILwAaBqQAB7DQw89lO4JRcigUKhFVoRaEA3HYZcJhKHxe47CgxOGIyESxXPUWiBeSqeAABA3Kd8mm0JRGDoEIQnH4IVAAMuXL09eAx4JoQzeBVkTPAsEUXkXHEOT2bhx4+rz/fc6fh2cMBwJzc3NdYQY6BF4AwiYeAQYO6lVCqwIVXhe7fNkSyCVurq6v9qjSijCmoEdO3akcAbPhL4WwpZ4vGdGChhOGA7CB+ovUjgCYeA5UNbNPUIlVaDUTeAd4GFoFYGaz6jr0JxPfk9fC9kTyILXMx2M7WfV1dU+76LA4YThoKhrJeGIlg7hRUAO2n9qJ4tDEPY5jdzjRjhD2EJPC6lUqjupzaAAbMWKFfS9VP38p3H0Z3hatcRx5coVOl4rEScxeLwEyrYJR/Ag7HoApVoRQdX1qhF/6ilhkhbeCjoHYJgPguiUKVM8FCkCuIdR4jh+/PhLlGsTRpA2hQw0L1Swe1DVvGZvvI46C1KoeBbc8xw1F+gbCxYs8CKtIoETRomjpaVlBl2m9Jxg/GQ6IAxCCZDdzZpdvajmNvpVEDkhDK1hvPfee1NtxrRp0zwUKRJ4SFLCuHr16tho6GMQJxErMX5CEbwLzfvMrhQA2cnj6B54Fdu3b0/TtAhb6CnBu1i0aJGHIkUEJ4wSRmdn5wzIAu9Ai5iplSBDooVIvS09EnmQXiUUQeikE5V7nocwGON3zz33eFakyOAhSQnjzJkzDxKOoGEgYNJlSnaEdKoNOeyOVksgCJt4FOvXr09iJ9Wd1GzQT8IkrcrKSg9FigzuYZQwoncwlm5SxvORLqVWglBCm8os7CIiFWcxqZyOVXpLSMniWdBLsmzZMrwLD0WKEE4YJYyTJ0+OIaTQlrLa2tpUEm5XJvamYxCuUGPBUB5mdNKRitBJNefcuXNTViQbitAUl5c/0vE3hYckJYxTp06NVZk3IQkzOKnq1Gg9eRKEInbxESInPSJvvfVWCkfIkqB7UD7ObcKECT8IRayH4ihcOGGUME6fPj0G3UGrE6nBkGahoixuZFD4mZAD72LDhg2pOIusCIRCVoVxewz+nTNnTq+hCNPN+/rvc/zt4YRRwojE0BoJYQzeA7qFsiJaxIz3wfPc8CpoTsOzWLt2bQpFIBJqNiCKxYsXp85V37xe3HDCKGHccsstLYMGDRrDYwiC1QQQgIb3KjuCF0E2ZdeuXSkMITNCGTlFXqRhmf798MMPV3sKtfjhhFHCGD16dCudpngV9IFQS4GOwQwMvAo8D56nMY01AlRyUrOBZ0ElKCnYJUuWhMcee6ya1Y35/nsc1x5OGCWMcePGtZDZYJYFqVXSowy6wdOANPA6CENInRKCkBVB4GRREZ4FZd/z588/4GRROnAhqoTR1tZWv3r16k1vv/122Lp1a/IqIAMNw9GOVW1JY3Qf6dfoUaSlR0z+rqio8OKsEoITRoljzZo1XSwZQsikEAuCUFeqJoXjbTAMmPUBjOpD4IyE4ZpFCcJDkhIHlZ0UbBFqMFaPik1IgzQqQ4DRKvA4IApKvuvq6g5MnDjRvYoShXsYjjREp6mpafX69esr0SrQM8iUkAVh6VC8tU6ePHlPJJc/etq0tOGE4ehB9DKq2traVnZ0dNTFkGRzDEVejl7GnkgeLfn+bA6Hw+FwOBwOh8PhcDgcDofD4XA4HA6Hw+FwOBwOh8PhcDgcDofD4XA4HA6Hw+FwOBwOh8PhcDgcDofD4XA4HA6Hw+FwOBwOh8PhcDgcDofD4XA4HA6Hw+FwOBwOh8PhcDgcDofD4Shd/C9bv9XrGd2gKwAAAABJRU5ErkJggg==;" vertex="1" parent="aOc6eSdLFPW7Dq4YAHv8-37">
          <mxGeometry x="30" width="149.27" height="176" as="geometry" />
        </mxCell>
        <mxCell id="aOc6eSdLFPW7Dq4YAHv8-36" value="共三...." style="text;html=1;align=center;verticalAlign=middle;resizable=0;points=[];autosize=1;strokeColor=none;fillColor=none;fontColor=#EEEEEE;" vertex="1" parent="aOc6eSdLFPW7Dq4YAHv8-37">
          <mxGeometry y="38" width="60" height="30" as="geometry" />
        </mxCell>
        <mxCell id="aOc6eSdLFPW7Dq4YAHv8-38" value="" style="shape=image;verticalLabelPosition=bottom;labelBackgroundColor=default;verticalAlign=top;aspect=fixed;imageAspect=0;image=data:image/png,iVBORw0KGgoAAAANSUhEUgAAAVoAAAFkCAYAAABhIfOrAAAACXBIWXMAABcRAAAXEQHKJvM/AAAgAElEQVR4nOy9B5RlZ3Um+p18U+XqnKSOaqVGSAgEIhskMBmMsT2PpwY8xth+ZuCtcWRm2cseY3vNvMfYXh4/G7oxfvAwJklgI5MRtrAQRiBQRN2tzl256tZNJ76993/+e09V3+pY1arqPlu6XTec+J9zvv/bGcgll1xyySWXXHLJJZdccskll1xyySWXXHLJJZdccskll1xyySWXXHLJJZdccskll1xyySWXK0+MZ/oAcsnlcpFGo5EYhoGjR4/K58npKZTLZVx7ze7TnrNqbfauOIrR19u7/1IfZy6XXnKgzSWXc5DR0dG7TNPcR2/3Dg0N7dffN5vNZGRkBAcPHkSSJNizZ4+Aq23biJGgXq8jCEIQ/tLfAJZF38dRe7u8jpY4jFCtVuW7Y8eOoa+vDzfffHP+jF4Gkl/EXHI5i0xMTAgaMgAS2DK4wnVdjI+PE3BaWLVqlXzPCzGgNhpNRBGBq2nJ71EU0fIOwjCESZ+ZySJdti20smyD9uHRtvlH/szAOzkxgd7eXgFvYs3YsmVL/tyuMMkvWC65nEEmJyfFHBDHMbNaEJsVAGTQLBaL8n1IDJU/CzjSi8FVQJWWi+MkZbNhCrYR/W7O24t6DBlkeT3HseWvbTtwHYd/kN993xewrdVq8nnjxo3587tCJL9QueSygMzOzibMKNkUwMDX29+HqalpAlBDGC0DHgNnsVgQwGU8ZCbL4jiufGfQsvwDg69exkipbMI0NkkUE+b/6HveT4G2x98zsDIb5vV4fw6BLn9msGUAPvz0YTm2DRs25M/xMpf8AuWSSxchEE3GxsZQKBQE4ISlMugRLMaRsrGapiWgG0VxagYwCASVqYBFEdFEAFTbYnkd9T6Zs4wCW2U+CPX2xXxA24sV2FqmJfZdNj/Y9N6mv2zG0Ax69erV+fO8TCW/MLnkkpGZmZlkemYGDqn5DLKMgC1ilgyowjvbTwy/SRRQGumnjl+rvVyHwWpgTdqM9mySqJX1qm0w5y8YzHkC4GXYxMDmiOPHj2Pn9h35M70MJb8oueSSyvj4eMJqeXV2Fv0DA6g36khipfYL3mWR9BmWzqFopmzSxFDEyMmTYmbIzQnLS/KLkUsuJCdOnEgapIavXbdWbKOskrPazqYAXxitKZ/b9HIZCJsTlAPObIeMsTmBD5GPee3atfnzvUwkvxC5XPFSr9cTZrF9/f2YmpoSZ5OyvTJ4qUeEP2t76nIRNhkw2Pp+S1g3x+gG9L7gFeQzM/Cenp78GV8Gkl+EXK5oGR0dTZj9DQ4PYXp6WuyeOjTLMDgMK0nDtOLzsq8utQibhQol46eYj5mPjCeJVssXm63reQiDAMODQ8vjoK9gyS9ALlescMosh2hZAq6BgBaDrnYyqWgBXjJJ7bMGlgnOppI65KDCw3SEg0RBEAOPJVHCk/OaGBvDVVddtayO/kqS+ZHTueRy2QuxwbsIUBNmsF6xIKo3gxWbCnSSAUs2DIsBbHmBLEt6bJn3KntNwa7KSgvl/DZv3sw1GJaP3eMKE/uZPoBccrmUwiA7MTGxj22xnDrbarVUiJSpOEeHyV5emMQ26GKp9EwfxhUrOaPN5YqRZrN5V71e38cgOjw8jGarKexVhW8pcOXPlxvIsjSaDXgFj4vfXH4ntwJk2SlDueSymDI9PZ1wIRYuXVinv8NDQ1yUBbV6DZ5XQBAGaVJA0s7wYifY8jMTXJxwaBqbEDjGduTkKVxzzTWX2Rkub8kHO5fLRtgsQMC6j22vQ0NDe48fP76vUqmgRCqzIeFOc+sRZFO6OvUGnsETWELRVcSYrfN4TI5PtIvY8G8crbB+/Xo5ex5HrvHQ19e3/xk+7MtGLtPbKpcrTSYmJu46cuTIvp07dwqg6BoAUiOA/gYErgwsDjG6iEOh0opcBttmE+W7Z6Dlv5wNplJuLx9R0QiRnL/fagnYOpbdrgjGY8G1c9lmzXVzOZ139+7dc2rv5nLhcnndTblcMXLy5EkpxM2MjF+e50mh7GptVn5fLvGuy120PVpFVZhpBpyJUqEgtW9PnDghQNzT07M3LbCzjyauva7r7n9mj3xlSX435rLihJjZXQQC+2ZnZwUEWDQrixJdVDu/tc9PDBUWJmBLzF7s1WoM2a7LkxkzXmbC3FGCTTP9/f37n9ljXjmSRx3ksqKEGJiA7FMHD8LxXBiWKXViZ+s1BFF09g3k0kXm2qaZ5SbsH6RXKwik91nEnR8KBTE1sDORtYnjx4/f9Ywd8gqTfNrPZcUIM9ljx47t42LXhVIRzWYLrVZTogd0bYKsKpzL2UWPkzId6E4PEMehTj2O0xY+URDCIc2Bq5r19PTKgjViuZ7r7h0cHNz/DJ7Gspf8bsxlRQgxqbuazeY+dtawmSCSmNco7bPVqfmaA+35iQbYDsgm7cgMNhkwg2WHITsKebxVsRqkdXDZbJPAot/HRsewdevWfNAXkNx0kMuylzAM75qdnd3H9kEYmrnGnd5clurhdRnmGSy5KIA9HR9Vt95Yep2ZEldstCM1GIDZ+SgNKNP1OcX36aeflivAkyKHiF3aM1neks9AuSxraTQad01NTe3jB5yBNozjtGRhjqoXKmlLX3mvnYm6k4OYCtLatlmWK04yy0zDjlXUsbRDixPVaoe+46gENi/wBEhgzFEK+y/1uS1XyRltLstWmBXVarV93G2WEw+4pcxyqgd7OYtir4mKNU7DvnS7Ht0rTf/O3yntIpLOwBzDzBEhuXQkB9pclqVwdAGbC3RLb65LYNpWu0liLpdClBOMa9vqBA5t+pZQulg1q9RTH//G0R89vb15VMI8yYE2l2UnDLLs+JLuAUEgYUa24wqjYhaV27uWXlS5RSstuGO2HWA89gyw2QgPNikok4P63OIuD8UCmw/21ev1u565s1g+kgNtLstO+AHmIjCSNkoPtVJjI1FN+cFnZpvL0krbXNAuGZmIU4xtsnRR9ELyR+r4SsJIlLbUsTBbq0m6L73f98ydxfKRHGhzWXaSzfjSTEmxKxNBFCDWD3ouC8pcX+HcyAJjznJJZoWkbRpQWWKdmFq9rNhkoWy4ArzodHcwpbZEkhZQtwR4Z2ZmcOTIkSvesJ4DbS7LSjgpgQtzc71YLm5imqpvlw6gN8XbnRsPzk0MNWapjVVhajZu1mir+7oOrwAoJyokCTodJoyMTRbSJoe/42tipPvgH0zDSJ1kqtxklNrSe3p6uFzlXc/ECCwXye/YXJaVcLNEZrNiNkji9KHNb9NzFk1D07RaXSyGAVPZVTsOLR3SJQ0e0QHaRMK8orSVuZEmMSTt/mnZXmravKBfelkdkVCplDE7U8XY2BiuvfbaK/ZC5ow2l2Uluk0259izKJDI5ZwlBcv5GV+dyaqjxWuVP9vdt5NlpzeXtF9zQ+sUYss+tC23cwgSi2DbFmZna1KTYvXq1Th27NgVa0LI7+JclpWMjI6qMC7bko4HeWLChUsWXDvjOMdCC20W0EkI6juVoGC0lzXSrhPz/qa/t7eYMlkNyGx+4OsoJiD6W7qCe5blQJvLshF6IO/q6++TONlYHCrGZVeAe6lFYK7L5KRV/yzLjRPl/BLba5xltUk7dtYwzfZ10CCra9bqa5M1F7QZsvoBjXpd2rfzpOlewT3L8rs4l2UjDz30ULJ95w4pOJ3bZbtLlpgamc96uLQNVjkR5zLabMEd/ZnBUxfn0QV6pFBMWjxmoUy89jYyB6Vjbeevo22+BS7O3tt3RV7YnNHmsmykVqtJJSiJlU1L9OWmg3mSRmplrKiYY3c19F9jzm/ZcZxb4Uw5tPib7Hir93PD6OZX+ZLPc5bohIfpbTCQMzs20hjcK5XR2s/0AeSSC0u1Wk2mpqakZxU/oCwdhpWLltPpoAbU81vrbEvEGozbUQracaZBtsNg20m4KQPWLFebIHw/SBtjJlesppIDbS7LQrgQydDQkJgNOOWWGyiybS8vItNNjAyrZUDLRgl0Wfq8sK0DptkV5wBrovZpGJ2wr6zpQl8zKRae2toNwxan2ODg4Pmd6mUiuekgl2Uh4+Pjndx5HTQf5xlgCtw6n5X6jnkRAXPWwFxTwplRdqHfO2aBBNkQr2yoV9tGO890oZMhOrbgjrmCr+vDDz98xc2eOdDmsixEZ4HpttiqmMmVqWaeTdpge87jc27LZdFv/rZ15lh72Tmpu92OUW0jlNbukKgDM7W/j46OnuNxXz6Smw5yWR7CFaASDusK0qeU4zS7Bcpf/jLfAdiJLMjWLNCJCHMZo7YpaG3AUPS3be9m7z8vqTO+5u6os/muIWKdvWaw21gQx1XtWhX9wNl+CU2g3BqH06uvNMkZbS7LQhK6FV2vCK/gQYLoE2Wnne/5vpxlfqNEY46NVMexZn+XX+as2wn7SjoxtQnmLG/gdMaqtnGmY8tA/ALvT5dE4nDjzDXkCYBt8Vea5LpZLpdc/vX++5NPf+4LGK/WUSj1olZr4OjhA/j0Jz4K2wgl/dYwHZhJ1PZ+XwmSrSHQ+azfm13NBUqlX2AySmsVaCacpLUjtP00TktQLrWo2rbEqKNYmO3ExMQV18jxsjcdzNYbt9z71S8969FHH3cOHT1ht/zACaPYoZnWsX3fNkzDppvA4Rd9x+Nhx7FvO67rFAoFq7+311m7ZrXd39drmwkcum14eY/uVYdun6JF69PtXJRtGFaJblyuUF3wPK/gOE6Tlm+apuHTg1Kn+y2gzTZo2ZBu9QZ9F9DyLbrbQ1o2oO9C06KXKd9HtG5AzxctSy9ahl5B+gppt/I5XTagmzm0LDug3TaglqenCLKsZduh7TqRRfuzTIuWM2V79AiTnp5wiSXuEaP/Eo1M/wIt07Jai31N/te+T+ITn/ksNly9FbWmL3pVIQphOwU4po8m1zlIErHr4bxskStbskkF2bCtbiCrl0vOYlbppNbG7boE7WisSxJuZcw5St4fmw+q1epdPT09+5d458tGLlugfeInT374b//2796xbfs1aFSnUW+0kBBLskk95avO/en9sKFsgRxMLZO+uh0criBPr4BUV3AzQPreZsTjIn2CXxx2xLjEVaZiCcQ26L2UouMbGpHURo6iqEAbKOhjSmJa34xS1U6zDPVb3L4V43YsjTABq1Pker7dTHuGs2mX3QP821Hs8t6aV2lpIZEH0fIW3H/mh/b2jfZ+aNtSASqzf1ElLXzy/92HSk8fpo4flJJ7Nk1VJ8amcejAU9i1bTNdBl6OK/fbKv7yCrHRzh3eFCC7OL4SdIlhRRf1tB13pWNaLSkzyd1rlf3UwlLbv9vmjaQD7Myq200hrxC5LM/2L/7yz5M3velNOHDwCLZt24WeHTvgeCUB2pjj//gGjUMFOGCQNdKgGPVQJ9manayWMemjP35iM0lkayL9ZRCmv1ZAoMpswZJqRUQs6b6Kadu2WhXsbeWNc7gSBJgVwKqXACqDswW0CyvzX1ab5Yb05jAQEfbiJkHn4ZPlVRxQpyJTuqicYyLn0c78ic/MZFjd1PVItY1P9pnWF50P6kaS7eGVKRgdh3O2K5uhScvhcYoMKeDNba2bzTqsHuDU8ePYuXWDqmmqc+evDDIrosbNaL/vVC6bNwjta9OZnjsT3Omi7wVdfrKTPKDatF8ayWajgZs47r9EO14WctkB7f9+113J7/zGf8V1Nz4bd775dow3Gzg1MonY5we31bH5yZSu3hrZHG1+tplFZu7ZNCoQrGknBoNaSyA5Zo7LBY+hmCyCoM3AkthX65pGpoNo9mZT6pzYrriDALFdxV5sRFKt3obl0HalXKDRUaE1hbWK6pgybMfUoJoedcc/kvVWZ85LwJNVdkeKuBjpccaiYhrtos6aOVtZT7begIxl1kbYAQrXseXc4nTikm1xTn3KcpJYnX8vM/exUdz3wP144YteSOvFODk+hdV9PdJRAUtUKlGDjUyHciyWOG7Uec+1l7ZnjyWUubUFzPY1EEIo5CBrj1VsF2maq06nNdJJEvrcZMKL4HkejasjnxthPe2GEAvLVVXSOttdTGuCCusy0qaaah/ccPNKk8sKaH/z/e9L/tff7MPuW5+P4vAafP+JAwQgpDK5buY50Q4GxWxZBGL1w0//mprFpdK59fV7zeSSFByNTCiSoYDbUA+JAEwn9FscArIhQyl9fHz8axSEso5pqAc9JmbM5ovEsFKcnas6RnHQfj/nl6Rb88LuT46RslTbsTMFtrNhP0mGvXbUwLl/u4uwcgJxPvv5rulueDU1OYXP/NNX8N5f+VUamgBrVg3Br9cEmJcK3ni7NgFAsViQ1F+2HTL4G6aVVrPKgJ++tkvIsLP3qB6y+fje0URS3SUNn9KONNVXzRQglRhW8ITnqvCqWCcNWO3z1xEJS6E6yLWLmHyYcly8HwbcRx55ZNH3tdzlsgHaf/zCP37pve/7T7j+ubehbhdx6MgJ0uAN9BU9hHGsaWkqKetqA6ASncloLPBkGx38SW26RodlzmONp3cGUIzZsU1ZWTFiJczq2DPFpowkfcANNnGYtrBL2XqbPaJdVLl97JkncS6LRddlsgvrIi6x0SkIctqSKcrOZeTZY+oec4m0g+qc77LrZWRwcAhPPH0Ujz/2GK7ZtRV8erMEFK7rdTuiRRFh6cy2CHhc25HzELBN4tTebGRA6NJYijv1XtXnuUCvj1pfZx7beI6tndvW8HsGWdZwGGSZzWrbKF9rnlwCmQQ7LFh1uj2zzf58hSct9nMUCwW5x4OWz8ew96qrrtq3aDtZIXJZAC2B047XvvHNd3ibt+JkC6hNVNHX14+IVCQ/btDv9lwm0AUgEsPoAGjXey1BpJksOkAWz7s5O2zPQCcFPV1GbKtKlUvYpGCZolpJixFLqe/83iGGKUZbVrNPs3OqffFynTjKzv7jOQ1Kz8JS0vRIbbtVNmWlonacMKb2p5xmK24nYHZ5OPXu+ZySlHfr/l9RfPryNmkdfmTiH7/8Vdx0842YmhpHoVBErD0/SyBGes3DQNm7PdeT68otzmN0Og90HDpLDbXKZJPtidZOd1WfOr6D9u8dZ1d6UnJPshZVpPFzaVy17V+fs86+s2lymdtdYXHNJLz9oqGyw9S1ByqVyn76s/+iN77C5LIA2kd+/NjrH3zkCZS3bEWDVJXeSglRowaTSEpMbEXY4WnsUt10SeYmTvRD3VU/7DwAiZEJV5nDHZG60ubspr2c/ipOCymL9zdSdTod+lzp6xMHUa3VRLXeat+c7XVTk4aYN+bY77IMKPuAnIuqa85RkVWkg5kZkw6NX6gId1eynE42sdFBaFMhN8wuJtcwibBu/TC++cBDeNfoJPpKntj0EixtCBJv27bt9mTDwMRdAQRsY+1AbC+8ZL65NpBiLsh2enWhPW9mj6HjQOt49D3HkUmjfV5sJ0/idpug7PY779Fu1Ggai6NDBIGv+pGl9nkG3qeeeirZtm3bEhpglqdYZ19k+YsfGm85ND51m02skE8oTkj9s5RDKQ7NuQCRvYOsNKxLe3rRMSqcJgYPlqHNq2rZRL3MlO3oz+LVx9xljHRdtXRqxyWQHeztxa4d2zHk0Hd+A0bE9slhcVxw220B27bvqXNc7e+T7AOZZdbndi9nF8sWg774J8HIDLV20sXyf7eHmO3RA5UCfnLwKJ53yx5cv2sHWs1gqfxgbeFxtlLHkB4/iwDKSsOPdBhV+zyWEiJSe6meYJNMNAnSCXxuHzCzc515PTqPglcQkNWVs8TJlxIKDcQskUwiUdqYsZPMwJtT6boXD7W8P65hYachimxK2LBhwxUHsiyXxUlvuvHFn4rLzls82132rajt2JRMgNAkYCk7uHbz1Th+4BgOPP0kPKsHY6eeRF+lDzc87zZM0oNy+OSossdminqwTVHMIW6ERtgi5scgzsydw8qstmpomcoRFYZB21bKYWiOoxwlOkKCR4wf0ijtfJokquK+TB6mig5IVDgGHJq8bN4fh3rZ9JtLIOVHC5/wOQpHJjdo+zO1Wdy2YyPu3vdXmGo05TeeKJutVqpW81TFx3LhyljW1lwi9Vq1Wok6ds602wALf68dZXHK9tmZpEFLg1M3MdIxbDsstUaURgqYadtutH2F2dArA7o9jLT3njeJmulkGKeRG3wOdntyWBgkdZZWtVaTfV2KZJAoBXce6+PHjmHXrl3L+yFdArksTAf0EO50y8sfZFkiIxI7rUMPysbV63Ds6SMYOTmCUtGBQxNFsTyA8alxPPX4E9h6w06cdBUI2BKGk6ZMMpCaxBRCH5uIEff3DNDvtkQqJGYidlFVNckUYGBRUQAq91w9YHQMpi3OCnlwuUAzqXoqZMiUB7ltNEi1/2YUYnRyUtR8l5sn0g+tegM8wV2sBDH7zhKU6Hz/5cEf4KOfvgc/9+bXEaufof1botLzsYc+H+Pi0NyOs2uu8FjpmGEWCY1iGzJNWDyuGpQ1++uApd6Wjj/utOjuePi1dSrBfDyU+OE4W44wXXeOTTt1Shqx3BN8bLojxZmcWdl0XhhITVcXMmrnLnz/sfmgUCjIuDUa9b0EsvuXdq/LUy4LoA2i5EZnhdQujS1DQrwKNgFowxegLRbKdDOWMFUNEBsluIUGjpIKvWv3ZpRKZUxPTdGToS6VqIR0rmHs46o1q+C2Ahz90SOoE/szJUzLEtDUTiz9bOmQHpNYY0AAzZDADwBXv9fl67j4NrMi04rTGExDQE1sd/T/1VvXo7h6FX5y4jgiAna2fXvGxYOsjAsdkWcyxhPIOSX897/5Ozznphtw9ZaNaDRbUtWLY6E55tdImd9Fi9ExsWRZpP7cXiy144qJwY0RhWoiE9DlsCWOrgAy9mSjrQm0ra9tcDXak6Xadudg5tZuzTjh4jSRBRAthcfASY9HmxLOS9VPOvfRUgpPSDJB0eTYU+nZe+jgQY422L+kO12msuKBlhjV2lU3vjhVdbHsjSFxHNJD6wrIMWscGx1Fb08L1lAP6nUfnlvEhrXbcPjgcZixTSqhIY6MbAEQcdpYBRRp2Ue//yias0204gDFSoW9SqoUXkYNTlJHCA+OcnjEss1Zw2rXgWUgYRWZ/4ZhM01eYHuhDW29njxxGNfcdiux7yKp+DV4lit262Qxxjxlc8yOh1atwROHDuMTn74bv/HeX5EQLx63VtQUZ6GKYLj4XWpGOz9sbf57Fp1BpUGXX9oG2gr8ttMpQdI2PcwFcb3djp11/j7mtoiJ9RHKck5qS9aAr5fXL73PrAmk6zmn+5TU7iBYwPG7OKJLM7Id/Mjhw/t27969zJ/OpZMVD7TNVnOYVTpOeTUWyVu6lMLZ5gmp8NV6HZtWD6PcU8T09AQB1ygqpbX0AIQYOTVGLClBSOfUaMzOeSg7zg0VKtbkli9cvyEuwCHg40QGTmu1dJ2AWHnjRFUMOVmCQZcTOFQmlGaI+iFmE0QUVZStNk2BZZODqNNhC7XqLAFrLGYHfoBaxDYt++J9qmzhaLXoXIjpW2aIdWsG8bF/uAe33foc3PlTL0WtNgMV8G6qkK9FutJnslHOB14NYNqhxGNmpeo7fxelJpss2Gk34JxC2VY266wTnsXjLdu0rbZTTF6G0WavWbOGmZlt9P7P1eZqzemSu0SSxvNarrt3586d+5d2Z8tbVjzQRnEyEMqNHaswl2Vup7UTUtGJlfGj2koibL56Cx77wQ8JvCK0/BlUq2PE0kNcu+fZMLwCfT6eAqfVfpgcUsfqrTqBdRVbd2zF4ceehkVMtjE1y1RFxsI0g3Z2U5vJsm2Y1o18xcQMS4cvsRPNTJlRJFk8Yn4A0lRUBbgmMcuBwSFMjZyATftpNZoolDwiRhdv7ItDH6VSD02cAQo02Vg2MW67gHf94nvwra/8E7ZsWQ+/1Uyv87lHVZxRDCyodncrutNmg5moABbWBPRExcwzyzS7mSJ0FuL8U7CMuU64bIxr1macZcpZNq7vkYWkbR5BJj56iWVwYGDvyMjIFWsy0LK8UekcZOTU8ddtfdlbP8+hQR6p492COpOE6w64NKsQyzN8VYjYIibXJXA+XSEN/Nb57+rriD4Xick1EKkgLT+E4dhdB1GKohBYOVzHgJ6sJgGpE9NN7tmSbsvhXTateM3mLTj2+BOYna5icnISXqmIwXXrsGHbVhw5eRKzjYaKmU1V0ThWpW8sSOAjVg8PwqHvuTCLndpVObJAsoCMtDoTHYtlGBnnlg4VMtNzNBDGarLiz+K9TtIUDQa2NH602NePkfFJVJu+ZK3p7aqEhmzQfMrkDBW/KfGnqQdeipPBmAdgaMcE6+HXjPXEeBVbBsr42z//E1y1eUMaHeHTGHLMqyMrN4lVu4WiMHbT6A76be6YscWy/bBIk5lqINgBz8UqHzh/G90+z08m6Pb7+dhfFzrubuaROmlVkiGWRkBcaEhXnEZWmJkJgK+n5zp7e3t691/QRi8zWfGM1veD1bovUTuwdJ5YVhmNhKtuEdgZHmr012V72gLPUpKCRxKrgHsBI1bl0ipVNgOd1PETa2f36UqhBxftIhBTx2c6pqQFc4VZg0A4oO+fOHYEm4jVDtO2N7HzwHPFHPD0iaOSuODYXue8BLTThAgCOo5wOjE6IeFeHAIWxi1EHHpkqjhdXcxGB93rMeqkDceSpSaNELUdkeOFG6kKmmqmAu20fnTsOI0HbZMdZlIMJ54Tp6lCwNI2KTIpGCoEX8zChkw4EihmdoLs9VjNMQdkxnNtXwnHZmbxS7/1+/jY//xjbNq0BlGTFnEIYDlsDUjbpND1PRcb/RnssGf7/nxlPhueD3Znaz65mOmw3WSxzlPbo6UwUVqkx7LMvTMz1SueyWpZ8UBLbMTJhsJ0E49LVxd9AtsmwkYFiVMghtlEOexuW4xTj4SVqEgiCS8l+tkkMGsIIphSjVYyvNiu1uXptiRMKgXhKBHWySHkYHsAACAASURBVJW4mokvqaU+qcpNAn8/NPHIkYPgwhu9PWW0RltKrSfANB2PVlXs1zA0iCl1nu3SJnchKKiqSD4BNXNrL9SMLlblIHlg2NHEzg+dYov0IeZaCrFaNk5ZHINVmKh0Ax14wP/wOh6p8vyZQ8IiP0yr9/OElbLV1GPOR2BIoWlbOdSUmVh5u3XQfAZ0DHWIyKb5ajFdC6t6+/DE4aN4xc/+HO7+yN9gz57rMTIyKozWKziYmZ6mCUplQjEz7yZz2Kz+boEog6WQ+Sw5myCRjRy4WPA723lk92kuhkcRKi5YEjxY22CbrGXtHewf2I8cZNuy4oGWbhhbz6haJZ4vAamTzagIDwWUzRhTZgOc1d50ujMKzbzMNPMmJoxim6TLZWm5hqqCEYkeUIr86Q83172N2XbpkJJv2XDp1fJZxSXG2mig4Hpiz5M8cItvUhuNWZ/2Q2pckr4iC4GZ5lQlHWbNYVUFw0UQhMLQbEPVcuAwIz9VnQXnxXNN64ihQzGNTjm9FEx1xlCSFhXj/QluRh1AMlVcre9H8ruweVtFJbADJ2SmbXBYWcrUdAxpup92AT7teU86MaeGtlUm3VN5Yz7PsIo1qwZwYmQCP/tL78Xv/uq78La3vE5Ufg5J46IlfAyReSaQyTBoreouEtCcr5wtoWCpkwh0lIKOXrh4MTr+A8fZO9DXv3+RNnzZyIoHWmG0p1XKmitjNjHJiICCGGxPQECXqDArM+l+ozG74iwpZpUMRYH0OjJhRw16mLmHjYkWOyuITZlR2klgnjAbhk8QU7LpT4wSe9VDU7FKOg6H1muGLViOC4eYaatRg+2YAoriqSXQCIMWvPQQkzT8Ce1EAqX+K1usKYAv73XZPEvVVhUWmaa+attpe6wkJClWtUmF4VrCUAsJb89sV4GQ4ugMquw8YzONqcHCVHVzOdsAuptCBkQNNZhih2yPbQZ5Jd40q+0bmLsFeseTSbEi16DUO4SxyMf7/uhD+P5jP8F73v1L2LB+FSbHR1Hw3K7Xob1lowPkGsxMY26q6VKBXPcwrs51mG+HXWqw7WavvRiRzD2a8Hp6evf2qqIxucyTFQ+0rVbLieJOoPhc3VN9bjRD/OXmXrywvyrxn5Y9SGw2QKO1gI3MgqowJUHdXEshVowzdhDblji1ZlstBHYsdlyjyzAKw+boAgLjKt2EHrfGoe8mCSg8AlculdVkqmxxDyUCVKdHYlq5s4LtFFX6q1FEDSqYn4GvFQai6nNGllSjTRTbNFJbn9hamVmIg0vFeXIIGDM9H7o7glqRH7bAVOnAvI0oSbk5h4zRMWrmK7w3TrcTulCdJFS2WkAAaxErD4qGRCpIWm8ct+3TUZSy5ZT3a6ea7gvAoN4uPiP23rkAI+BIx2JHHk2OCXoc2k+LxoAA96P7Po5vfeUb+IPf/wBe/JLb0fRrkjxgsuFaHHh6goAyobQ3mwEXscMvHHFwsbKQM0yX0Fys/ZyPZEHcTGOlMbcU0rzlTw/k4euUrR+iOtsO7x0dzaMLFpIVD7RBYjiOW1T54/N/NFT2SyvxMFwOcFWZVHWvT+oNsDpP+nfXbSZdVFDlpefvddnCrNrZ7WHR3/nIlgxXdXyizPsk/V33QDQy+4gY8cUGGqWefSs9joRAJSaQM0sFCQMTBioqYddT6i6J0VVdR9YEk3nKEukXqSc0o227NaWJYnZDbf66wH67RIYsdIhJp1aAmiMG5fvQuAWNWguzn/oQ4gP/AvO2lyDedYtyFiYBIgLeJCKWSyzdMWL4XFBdHHiqhRAfGdvR4yzuZhjmxUin6Etm7JJOm6JziSaYb7+dv/2LsS3riU2SL3SBcFGEsrHCKqqj1fJVnHR6/BxqyAkt7GfgiJRIaVR7C667HznILigrHmj5XuG8b+317hpqFaUdVelvHKqwKIIpWHF3oDXDS8syziTscGNgFUhOtLeImScXcOZwNhsJMXZlYzWwADFZULoV/pNWZnOWgQrR0vtP5v02r+hJZkvn+F26nS4/SUwwOsClwsAMWC63DjJJXa0gePCbsH/wICav3ozac16O/pteCK+0Bq7dEqbbrNfhhWXANVGPWzRuJoGvLW2IFiMJdb4qngXBbtlm84Eym8XXbdvdTA+LJewnYBGtQ4NvWpxGpWerO8RMi7jrEEO+LpVKZe/ExCSmq5M5kz2LrHigpatuq2aDHTVovmR7Kml12MTpTKEtC93HS+ujWEC0R1+Fd8kjwc6pYoVzGyEFwtnOmjq2uiLHGWxxSZcVuneYkMctXV4voMbTiLvburv1JDhfu6Cp2bNssMNt45lI6q7G9QSFNVuR+NNYd/AR4NHH0PjSJ/FHpR147vPvxM5d67GxNACnUpYEDQlE42gRxwPXBrOXcE6dz0azoHkuUQYXUvbyQkRSidUeVRgfm5wyJRM1AAe+Lzb2vp4erl+w98nHn9h3/fXX84HtX7KDu0xkxQNtEodOtg5AdzEyfxVdy9SjPn2b3TZlZLdz6UTPD0asbJzcyRccx1oopN79NFKAF17owV1wbJKuJ9uONjhtXV1VN8mwa6P79tMQsdO/P19k09vWTFo5+IxyLM5Fr+Ahac2A/Yx270bElRosv4WP3ftP+JO//zK2ra1g14ZhDG3ZiWs2bsKWoSEUXRvPue1W9A/2iwnmYuVMNRLmO7nms9EsGM9nxAuB9GJKJ/IgbW2fKJsrR79wVAtH27DDU6qEmdbesdHRfatXr9YHsn/RD+gylZUPtAl7qKI5trzTxEh/EftdygrPYCPrekMn7X8uvXA2GB8SPwheASa9FPBwrKzOWY+F8FrnAW7Jgow+81AnGdg14nljZqYhdWlIQ3v9THvhxZA5k5z669cteFyPt3UCBbcIJ3HRpP15ZgFRr4d4iFTbagvN2QTffWIMtR8fRlBvIKxWYTVn8bG/+nO85tV3pM0NL/LwuoxjtzoJZ3N+zQfW+bIUYNuuocDOyDThgFlsuVSWqluFQmHvwYMH3zY2NnbH85///P3IwfWCZMUDbRhGtpkWUFnQ/kc3kqvinCQ+tRPmtNBWz8AAl0q0WqxBJf2cJMr+anDKsEvszXWF0YLVuDZDT1IP+wLtC1JHmo6oFUaqWvWmttE4420yxC4ssaaGirS1lOuei+mmAf+JOtTEVGnM1nzzwwWM0wITWZKxCbdBhv56Nh+fjYK3GonfpK8iFIjs+1y7tlmHzyvxMl6Ckl9EiattlQfRWhVjcuQw1u3YCpuYLUeUZAFsIfV+vhMra0+db1udnwW2kO2129/seS7EhucD9txKbWce+25ALZl1IfZywZ4wivYVvOLeI0eO7BsfH8fAwMALd+7ceecZN5rLWWXFA22t3rJdrnHQRYzUOcYhU0R7ETEtjC3ENtcqsLsmGii59MxVZWqh7fltWyYFyByYRXbmuAI8XIClU+S8A3LZegFZiSNTIgOMEgORjTjwCYMiAlQVgyu2OAZq3pekzXLabwtm7AvYhqYjWNpyCcTYQcLBEHYoMcVuUqFlm3N3eCFMdgHTTNcpT2KOiIlJ48pQsvYkgoOO0TVCaXRZDkNMEQO3Qheh50u8M9/sQZhIYZ116zcqE0Q63lqF1qUitUrPajQzO91JVvfh0v239HJs12w0GtJ+iGNK+cWfeVkO22PPPm9Hf6crc+nyh1x3oa+vTz6Xy2WUSiX5y59FlWcwzACttpvq73TRGX08QdpwUifz6HX0cprJ6nWGh4b2p6M7/28uiyArHmgT7Qw7gwrItsyWomXw6XkqZh0sy0TEQaOZrJgElMuuxfaxUgqyzKTaTr1zF5NYXUhTTYMe9Eo4AzgVJHaBxqyFsMmgayLwWwS6ifRas4wqx2TQXmgZu0RgS6w6rqHQ9CU0quUU4BkVYro1zBaOo+IPLs2gLJLoIjbqDohRdFxVDMdU+dUaTHkZBjYGHv7MIMV1g3WHAPbMN7hxZnUWR48ewcmTJzE6OoqnDx7C9PS0gGy1Wm2XKyQ2KIDJooGSCwfNzMzId/PZMosG1WKxiJ6eHgwNDWHNmjXy4u0NDg7iqquukt9ZdHcF/svHrItt62gCFl1LV08g2e95WWauuSytrHigpQfH6aTedgchl1hbKVa1YF1mbHZyAU6ZJRYJZIyVKp6ozxwDanF0AbGpOSph2g78nKVF6n/clID/xC3Bb8zADuk7AoGaVcRM3yBqbgF2oQTXVKYDszqJqD4Jz29goEGskZhs7HLLm17adYBWPA03LKAYDi2t636RRICWEyQIyAZ7e+AJM1W1XTW7Y5DTAMV/p6am8PTTTwsQkSqNA4cOYmRkRKpe6WUYSAf7B7Bp0yYBQgZAzUZ5uwyWDGZeWotBs9ts7VoBcY735iQY+p1ZL78YOPk3Bu/HH3+8Dea8zUqlgt7eXgFgBuP+/n5hxKtWrWoDqq5Klj2/rFmCl9P7yGVpZcUDLbihVNzpvzTXfqVia0nxRlFVOoFFf0MbKrB9OZHaJPOG285wHQV62cxcxFERq2SENMngvI7dCSRaIZmJEQZTCNetwpHrXoCpLdfDJ3bqFMuq8aDBgaUB6aEummzfRASbgLYwcgzlk0ex5cf/RtuYIIDph10pIrZnaHFbJrDlLpzRJmUbCVTWDa1FgQHVUIyQAUmbBhhEf/zjH+Phhx/m1tg4deqUfMdMcv3GDXju856HjRs23rt27ZoHCVAfIRD1i14hoO20CHhDArYWbSekF9tTQgK3Jr336cUZKS26N5u0TIMAtUjvC7SeR7/xi3sCsQ3M5u9pPZteHh2bTct6BIYOgaJLoLudwHb32NjYrTQBbOUJ4L777pNJgZn3MAHtps2bcN1112Hnzl103AOwHVtMRAzk2r6sTRq6jm4uSysrfoSTOHZinfbZdQHOzYrRMFVhcO5JZS43NsvSnhtMSfeNiWGCOydwGm/MtQ+UuUOcfufpKY/4wWpUYZRdHH7OT2N0xxuRVJpwG9MoEq5apMpymq1vKRNLhY7FaQbS6Tawi2hsuBH1LTdj6qZXYvN3v4hV//4tBJNjiIlZcdlJqITgZS1t1TwMsHZoOG2BHaete0IcPHgQDzzwAL73ve8JuDJorV27Fq961asYtD5y9dVXf5xA9TAB05OLcTwEyg3607iYbRAID9J5bSSmu+6JJ554K7Hedxyg8/jBD36Ab37zmygRq96+bRtuuukmPOfmW4QJe6l2pNve0Pp76dz2L8Y55bKwrHigDWnGlzfz/EDKLqfCRKXrLNtoCcSIJxBlOH8756KJpqNyCEaazcaqPamR/M5xYRTYNqoYF7cqFd+S2UnXMtpRCcg4kXRMLCc4RJ1AYXZ0+aQ+1mI8dfPLcHzPHag0JxFONYWx8qH4TppaEBkoxzaaqEsmGlfoSoiIFUiNhRHQzTKMJ19wJ0Y27sT1n/sIF4GAaUftqIa0wEAavKAzyS61qDC0VpTaZI1YakXw8HH4UmRbGOgjdZ4mrForwCMPfx/333+/AC0D7u7du/HqV7/6h1u3bv3q+vXrP07A9OAzcBLnJAT6E/SHXz+k1730emfL928ZGRn5+cOHD7/80KFDN7LJ4Z6778Hdn78b27dvx4033kivG8TEwKm1tmXv520ROCd79uxZTjreZSUrHmhVbHVaaSp1eKjQo3QBQzHBXoExkxYO0zCleMFCGkspnS4EhoRjGYnOr4rFXMD2WDiectdFQZoP0AHWdoabBjc9w8h2IiRWSzVUNJQXnu2QIWmxpp1gesPVsCMfVjgN14+llU7kFtIasWmYETF+Vxxh6XHqbrOJgxlrEsWGQ2B9O1Y9/E0MHfsJ7cBhJNdnJ8cj5ptnbC5jlyKx80hFcfD7OLFl4nCJvY76Pnbu2I7JsRH89Sc/iR9//yGxb770pS+99/bbb/9Dev8ksdmTz8SRL4Z4rssTg0wONHGsbTabO6ampu765n3fescjjzyCD3/kI+jt7cFLX/YyvPY1r/1vej120uWydLLigZbEOfsiy0hMo832jETHvZrEKj24xRIxWk9MHIaOHz1jwtv86AlClqiEODCEXUqxQ5pQXPQgNMexavIUDm/YRVqAAZ8TH8S23Qn3mR8jOj92s0ysO4zL6K3P0sRF0NUMEPY0iY2bbexHcg7H/QxIGLHGkKBAYPv04UP4b3/yQTQMG294wxtw55137iS1elFMAstJbNvmCYNf99HrndXZ2Vse/tHDf/Dtb3/7jq9/9Wv4+te+9tuf/exnb37jG99459VXX83Xei1d5xU7ySxnWfFAmySxnSQZJvVMmQTOURKpyZCk3Q+gog2482mpImYDRcxjSas986l0oYzclob7o3ECh2GrmNskYLhFsxhj3de/gNrEBFrPfiFmTQseAkngyALq/B5W2lstnRNKg1LDtf9798I9dBCWOwDLj9RdZOg04PQfpbcv7uBdhKg+aBGCRgNbNm3C6uu24fqbb733uisoGL+nUmGme2e1Wt3xk5/85M8efPDBO+6+++47PvCBDyQcXUFsfgcUMOeyyLLigZZUXu9S1/S8KNHMLxtdQCzW9oqEA5FyfKVxvtyvzDwrNdS2B24G6SB2K2JyMIIW0bhAcvntGrfx5lY3J7Dznz8BnKjisdtfhEZPuT0xZftXZeul8kuz3cKTj2PgW5/E0MHH4A6uBVb3ohaEKCeuMHVl4tBOu+V1TQKfO+sCfnUW1+7aiZe/5PblMwtcYknZ+51sVnjxi1/8Z/v377/jD//wD/G6173uLij2m8siy4oH2k6BkxUi7WM1BWhjAlkUSlxVWwzOFgOV7qbAQJwsUMivXdRFfyRQ5o4NjWnprNByi2gOrUNrcB3iVRtxvK8Xzf4hBFYPEtuH06RlJQvKasddaoDVqZw6kF6HAFkFF40bn4WZHbswNtnE4PQBlANO36wJi1Yv64yV1J4JUWUiuLdaC2uHh9Hf23vvYu8jjqLBOPA3Nuuz65q16la/2Si2ajPlKArLod/qDYNWpdWo99dqs4NRbAz4fjIc+PFq27FGDCMacxxj0jaTiVK5d8pyCrOWV5qxiqVaqVCo9fb0NIo9fQfcUu8Jy3WP0jWZWIxjLhQKArjHjx9PvvKVr3CM7jvo8zsXY9u5zJUVD7R0IxeNtK5KNhQ1tSwqz7dWi6HeXkh21YWKYehEYAWGVhJKfyvDLUjCADdYlI4AUZpzn1auN7UDLEoQGLG0Ejc47IvUX5Nbx3BLcdeEGbcQz1YRNGNEg6twbMf1wI4bMda7FmG5T2yS9CNaMcfE0ovAtdWKpGGiZZtz8uPn5/uLuSAT9B5t3oXGtl0YD3yEtJ3xsEFs2Ufx0MPoefpHGBo7BtQihF4BTm8P7Zfexw1IB4rYU7HLbiIxwSoTjj4HHAngpWUeF6E6rPTZicFmYy7wHrGvjoeLkzWqgbQo2rh21Z9e6OaTmAA1STZOnhxfN3n0J8898Mi/7B4/MXrrB9/9s1ur1QZOHp8g9lxHpRcoF1RWojTPpPFyabxnpqdw6tgpOI4NAlHUG/XVXrGwulFvoODZ0mtO+iwbDsqVHgQxZwYOoVIuYWCogNXrV+H/+x8fOLDpmmc/sGnn7kfXb9zydcsrPHkxttXVq1fv/fmf//l9nOn2nve850I3k8sZZMUDbaILogDIFv5WjQFVLdcki8CXCGC1PyjJMs8kbd3FaZ4cz2ilkWnc68pMi1rD6IRyMQBbnHDhIuLU2GZTGkc2ekvwagFMejCaJRfTW/bg8K6bULv2OhSIsdr1WRSbDbhBDS0/kFY+nIsQpgPhEmg6BPQLVYKan8PP2UPMdj0vghdZkqobug6alomWSefxkpcDrdfCO3kIax77OtY98mM4B8aBwSISAgu2FiOsIyoS8Nku3KqhotC4ZVCBe45FKgbPXgxtXo0d12GwOeqCjtWmbYd1XzLt+jYMw+stHD6XLUWBvyPy/c2TY2MvmJyY2H3ou3ff+sF3vWDrYz96DEcPTdO1oMnSomvktKSwWv9AL12yAkwC9fGRCVhrNmNwaJXqd1YpSyx039AAhofX4uSJIxL5sqp/WO5Pj7QFh7PVxNegnIu8TSNoIGoew8xsgpM0pt8LaKIO7a3NWrS1RLPlxnX9v7f9+utxz1/9yQ/3vPwNXy31uF+sDAwfLriVc3bukbayn6/vxo0b91/wsOdyRlnxdqov3PO57//sb/zps4YGK3CZHWaAlLOBQrqBDs0CP9oTYnfJ5vq1aVPGpQ3v6oSZxVCFyRnATIT0MDnFEgjp0m7kacFu0+wcehq6xUVeDILZwPSlISQXfPFjLvbSRGNoHU5tvAantu+BPbQlZfGBgLFl+ETsOKUzRCsgNmradBx+uxiKmAHO0AE1C7TahCBs3FHrSqde5p8EINxemkv2RElA4OvRU0vAWxuDdfIpbPnhg+g/cpiOPUbQU5EJxGaGrFufGyqBwGREtGnyWYRM0ITPFSEG7puUbMBCIYYT2dITbao5i01r1+GhL3yi64WP6rO3zEyPvmHk6IFbjh188o6TR47gqUcew3fuuw9jJ0ekPXupFGP1ELNRh/PmENt8hTypHhbHPjHmtKcaMfmE3g8Nr0FP34Bc5SZpAp7L7N3C9OQ4JsdHxEHH94ZL3weRdHBTDTM5oSDk9GB1HxCvJQ2ErjBdexWuZkqvuWZI34XEmBtN0l4s9K7ZhnXbb8KOa67D9XtuvHfz9XseHF639qOO4112URUrSVY8o23bA5ad6ODW1GzBca1cRJlBlgEpjS6QFt3SFTyet64KBo4dXx7kuFYHSDX112zA2HXX49QtL0PJ91D0m6SWTvBjB7ahRK4L0ugRt9jmSsBmBjK5sErK4KqrRckxnaEe7/wyfwK+ke5UYUorIC7K4pVKaEZNGE1iZA3OwZshdZ3AduvzcOCqZ6F88lGs+cF3MPzUU7KWXykJk7M5rdgtEvYWYfhNFUe8CKm8KrkDqY1IbU/MMASMRjWGm8y95Ym13nLy4IFffujb33jH7737F3Dy8KMoFLkRJk1YPCnKxDiDtVtcBL4Nn8Bygs6Tpjv0kerfZzmoNS0YFvffgpgHfNIgHKuAgCa3ibERFRrX04cCaRE+gSmbs/oGBmnbBkZPnYDn2Kqoj2WrHBWowtushlimlbaaVy3dbZ6gCZyVy9RD2QrEtBQFDqZCG9WTh/GTpx7DP34S6C27d1x7w7V37Lrp2b/zyL/ff+9V23f8bql3eNkmYFzOsuKBlub7QrwMgVbFlKp3CanYhtQuIFWTQRaq3bmVZnWphCqdlGC0w6IM+iEK6CGcHUFcLODoy1+EkWe9GG7vVngjJ9AwR1F3Y/QR4DrowSxRQrPmI6QHLzRD8aUZXESHs3Yto81klUlAsaczFa3OOsTkmHkdPjzLlDA1FT6WwCXGGBdC1HwuRVmGxwS1Oi425cmtt2L86luw5sCPseX+L6J0+GkklQqSIh1XiwCaVG1m90kSLEo0mBwvmw6gw9XU+bTqDQQzVdx8yx488MWP4cf3f+PDR37w0Dt+9fW348ATj6E5M0PgCGy5agO8/tUEZCYG+/sFBGfGJhASwDrlGJO1FhqRgzp3Qp6eQZl+52pgBQZArvjLGpNjqICSWHULHjl5AsM0sVT6B+TYuHU9azHFQlE5IaG69ApzlRoMynzAcConYCUSBzwzS+BPWlvoR2jUT5GGYRDIEvjTPtjqUrRb6KVtlgcH4FzbL52JTx1+CE888hA++mcfueOam2+84y/+8AN42evf9JGNV239YE+lbw7LHR0fu2vV0PD+i78KucyXFW86uOfzn330rf/5j69ZvaqPHhRnDrt9Jk0HknIgVbboIWKvvldG4hGD4/0Kq9HRBaoHmNVmvx2Q49+ajSmMXfMcjBGDDYe2wOJyfv5M2mac4ISeMDNIpAh3wHUdgkDKGupxUO23kaqnzpxkhIVkwUr+DOBchs9R1ajE5syRCowqpMKaROkaxG6Dli/ND9nh5QQRWsSyo6IHt15HmRjj6n/9KgYIiIOBMqyWJSkn0mY9uXhGy20sDStCzzfG0EOgVLBDFBMXdfqFq5a94jnPwlW1Q3j0wfvQrE+TcuFK6Fu5TAyUOWKxH06lj1hqC2X6jdXxsRNHVQo3V99qheK4a/kN1Al8G6y2B6rgj2M7tBw7Dg2p71ty2TwUiRbhByGGVq9DL4E3j2yjVsPYyAjdC4F0F+b45DBU7WQaxG751vHDUEw0vK0G22qlpIcy2xTkWtL4EmgXPEeuCW83CGqo0+X3W6HEVTfopgjoXuthmzpNEo7hEpsexg3PuRXPf8lL7n326971az2VogBuM/Dvoglj/0VfhFxOkxUPtHd/5jNPvf33/2Jrf5nZmgJaQ6etsrJKnw/MhHjshhg7e+kRaTLVCLmuErHMRSD0OtjfYg++JfjGtkuLHVycFOtxdIGqJ8v2TEv36MoCHT+l7A8idppUaTuD9ICOHqdlB/Htt70TfavXsAMfYaMBT5XwosPXjFR97pTdU031BIiBtl1W11ll6VbB/5xOtRPOoWqecteC1OShCkyrY2HnGXvZzYwdWOJ0aZmwXIHZamDoK5/Cxh8/gMLgOjpvunZRjbC6TJeGzsHhIjq9NCA1iF3FOHcAluG1PPR9+QAxxj6UTDYXBJike2ENaRPPn/hXtJIZBHEJhUqNAK1A7LCJUokYYDxLKnsBV111HWb9WYxMjtMhuzj69NMY7CkScyVQo21EfigTqGgGMTP5iO6zmMCX3nNhb6gSioZoAKa8Qu7ETGPHhWqKBOpHjxwlUPRVomA6Pmo9U0L7mPmytsBMlefNwf6KWEQqfC+llyE2VLv0GmkGk8TWozQRxiKW7TcCbvqL4d5+Om66L92Axt1DQ1rG19GabGGiVcSa3mH8x9/5zXtf8taf+zU/6sfRk0ef2LZl04rHheUmK950wDKXfM3P/0yEYdiiMquFDQEAHr7EswAAIABJREFUc3HiD3SrEgOiXnI5OktsmhBzgcUxsqwGcmcCXQBmTgys+lyjK1Fm1dsjODt+CjNX7cYTP/1W9Hp9aDSa0hWB1VgpXhiEwh6TdFLhJnpc8o7FNDtArk0qZ+rGel6SdOy3AgyZMDD1itpdCPizrnOqq/zzMRWaBG4FDyOvfTuibdfh6q99Ek61hXBwA6ndEWJHTQz1aBJuXFS2yvMJ+0rBnm3ibkLXgwEwsdFH1+Lq5AhMl8Db6KVtk2bA6co0MfX29Itd1SXAbzaJqdarcFwLG9atQ6MZoDW8CiPHj3CjCxWW5ZVQlBRmxebLrgqTQ5muc3+P2HGDMKCjLkihcB4r1iY4tGxmcgTNaRME17QNRQz4mvE9U+SEEy4+zs03OVuQOy+Q5lBr1YWxNmlbs6Ev2+T7hkPCwoDryhoS/sd1l/n4CnRsbq8r+4zpvoglMqcM36AJsMkW4BIGVg/DnR1HK6riD977njs+/bG/fOKOX/hP2HbTTed/X+RyVlnxQCu1OzMq91y2pkK7uBcSOyqQ1haIdUWs82BKC0pqY4PYyVTYkpQ25Cr+XOZQDKWmPPAKfXVBGB3Lq+hJiSMK6CEyGlU8/fyXYew5bxBzQsghXRwD69iihrJH2uGHNo27ldbQ89qY6LAs3aKlW4TBhSR5ZCMRGER1KxadVZZ1oLmiNsftl74uUUST0HQDRQKy6Wuei8f6V2PDN/8BAycOwSC1mi4nAppwChyF4IRQXSnPXSRxIyZwMT26HjwuxCaNEnZ5M9gw8yQaMX22iO3BobEMxOYpOjkDMoFtnZggM/KKV0azUUe5UMamDevhEZiNjJ9Eq+UT4M3QhDoLz3PlvHq5lVKiWC6PR5G+L3mswSToLxRlouf1LAnnS+04HBdtGu00bN0cMU6Bl01A9VpVtIQwvdZhrNqCN0m96SFW7NH9VS7RWNN2HXZMEiizU43HXswIaVge99RrVkNM18ZpTFw8/xVvwZ1v+Rl88Dfeh57WFLyr+zA58gQ+/Ju/hBtf8dOYbczeUilWcqfZIsqKB1qRrA+pC37wzac63kSSICAdBBboY3jeYqgwJ0mMYMbJ5fnYTlfqkbhNqeCfOpAYjE/rjZVOCLGv6r8eefHP4+hLX4P+E8fRtFpIfJUwwDZYMU0Ig/VVhS6oHlc6eysLuFq0A2yxsueyNRF4f9n2KFl2q8FWV/DXrDaxuGKYhUKLLkB1BjNbboD/+jKSL38S5QNPwuorCvgZMbd7cdWEdB7zoZl662PDAed1BAQyRbSwvvU4qc41wlRSpREgkjHxRdPh8WyRVrBq7dXYPLAG3/v3B3Dbc29CicBVTCA05a1fT2BLhzJL4MdDMEN/q7NNKR9cJxBtZ8IlnU7BqweGiHXWUSx6EmHiyATIJRxVfzGZnuj8JBLBULWG2bzAFgdmz5DwN/WQukIWbALWkty35aKKg1ahYIbc202/AbdIYx600OJwLwJingMnpyZwcjLAy170fPziu96Pq1/xSkRGgJtufRm+8rkPY/Xm1ahOzWDL1nX4ty9/Dp//n3/0XVwGZsXlJCseaOmmdpOkUwTldEBJRP10uLcS39qWakIYtTPELlLiRPWf4vAtDoznUowEshwXyk+kFJjmhy/UWV9ZkFXri9OsFeLAa96Oia23ovfocST2LCzfEhWSwYPBSrcf0TZo/V06DnMyulh0A8Cztbk+X8maDzTY6gwyncrLomN2s3UUOI7Wpkml6XBoFzGz0YPwy6vx+B2/jJ33fBR9xx4gzX4djKBMIBkROJ3fsbGnXYq7x8TmiA0Wif3fGB+EMTOKlt0roERwhcCsEnxWCIwDydSr04Rwywt+Cq9/29vxof/rg3jyR9/FUF+J1ndRLBXp96aEZLHZhoFs3aphcVZxEsh0tZYCLcRmrTWJSQJ2VvNnwpZ8z9eNL7VnWGnYnCH3hENHwqYBM+kU5Gb1n7UYvklYgzHSLEG+n4T5ch0LcUPw8mlwHN1zgc9xtTTBJBZmZ0hzKA/g2bffhle9+s24/rnPJdAvwD/0iMQE//JvvB/3f+1umgxaGFq9AVONGgYHPXzj8x/DEw/e96Wdt7zwiim4s9Sy4oGWJTlDLG2SamoSCxrHqi0M220Xw2zQ3oEqts1arlPple4IAT2EthGrB5AfKE6Ogmqh0+7wEKdOInr6vv+W9yDaeBXi+lHEBRv2TA+sYpOAY24lLQZqVkGZhXGnVe3k0oCXVd/nM0x1uBcOuNl6CFmwlVOZ4xQz2t9p00VnQrCkFCQ78WM6t4DYrRFMw7ULeORte7H1KwPY9KNvIPH6CIAKyhN0ProHgU0icbotzl6gLSTYHT6J2f61KPT3IjQ4zcBBn7mZQJ8msITGmPt4nTyBZz/vdji9/Xjf7/wWvn73Z/Cpj38EvaWCUuc9GmdipoOb1mP8JGkb9Vmpb2vROa7uLaqJFgpI2SYq152HpNwjJh+OfmG7umg4UGMShr6aONOxkSw2Ni9om3fMUQimtN9RJgCL5uOWRKlwCJnY4aOw3US+WWugNhsTsw2wZdtWvOr1b8QtL3wphjduRolQOfTrqM9ME6OnMec264MufuXX3ocP/elvwaHJJGITBoH76OQovvGFz9wRNfwdVtHNEx0WQVY80DaioMCFUSSBNfXGJkYauC4ZV5wnxOmYBBJsqCVdzCG1cuFW4wuLagmuQcZIza0E3HTzN1lF7RsUxmzQZ1e8zRk6ZkjGPymxTXhmhdaJYBQS+GPTOPTT70Gydi2sZg12QiDk00NQaCq1MN2GhAj5vpyT7vekgVUDadZWyp95newyFytZwNZAq49D24E7tthO00O2HfKkoFlvEisnmTD8SKncRlKHR4d48AWvoYtax6Yffwfh8AABsqV+p6sYRsPEVCcIZEwFfuJINATYpPwkbZsDSaw6AWfgoll2cOfQDCrmDvqtCJ9UfNdIJyM6BqPgwGwRYx3ow/UDPdhx43MQNo6jYJTx2re9Ay940cvw0b/+C3zv3+7DwGAvPLdXnFMDA8OY5nOv16VmhG/IZVfJBpzNZRsSJ21aKlPRpM9qvzw+tpqYmcmansQzG+lczYAptRF43dR5yN85UGGJ7GAz2fFmE5CHnClIrLUWYWZ6Wra3atUQrr/lFrzqrT+HPS9+MbFoWr86TZP2lLB7phaF1A7Dk5E3No6bXv8W7PzS3Xj8kfuxftVqJFYBRtTAv37xH/DCN9/1Z7RozmoXQVY80F5KUZ5zldGlExL4ZjYKRVIvy6lTLO4UrUlO13s9q0c82w6nUx4ewanX7cXY7i3waqGwEyNOUmtfogLgDWUDZZDVYMZ22bNJ1mSw1NXNNHOdX8t2fgWwrAlhvnAz70qjgrCS4MTLX8f1DLHp4KOIKoMEYtygcpa2UUVom2Jvt5OwXfJWx5ZK2Bs3IKT3rYqHF24YwpB3ChPNIk20oThF2YyjxgYSCcLOykOPP4w3/of/SPthtknMNaghGJtF3+Ba/OpvfxCHDzyGb3/li3js4QcwM3VK7ONuuRcNAtUo9iUbTDFLLgbDwG+q2GKjo7EYacoawxyzYK63nmjzlZXWuUjUWZhStF3FFof0e51TqrlpJpGF+iSdX6jMDuX+Pmy//kZsv/YGXHPjHmzfvQv9awZhcNGgE2OwWgHNY6GEzxniUEsH20jvMdpPHwHuz7zjnfgfv/UYRqtVDPB9TJNJfXYS3/z0x++Y9md39J1H3YRcusuKB9pEPCbq3VLCiYZM3ouZxOm+iJ2x/axYluwmtqFJeBU7peLuTRSjoCXs2qKb+onb78DkDbfBmZ6VB5ELvxiprUPFwXbiVvmBZebIIMu22TPVKpAjWwLb7EKijyfLqudXAtNAmzYEPG0bTuxKosVsqwnHKuOp198F51N/jdUnnkLSswYt9qwT0yI6K52MVXxqnIKtmgDZi+RzKB+B3FDvemzvOwl/kmsDuFKLgRsuctP5KAzkenJxnRYBEIdn3fiCV9J2m7J90MSZNGkymxmTrsDbNm/Ctl/9AKZGT+KRh76Df7nvyzh2+ClipA6mRibRW7HFZOA6ifIFJMpBxdEBZmpPN5G2W+K24qa+Roak1bKJgFmsQefPac6BH3GuAZotjoBIUK8F6C0XMLx2FTZu34QbiHlfc9NNWLNpC9atWQeb07pbdbRmp5EcmYRFwMpJIJFLIMump0Dav0HfTEmitZJEolye+8KX482/9Gv4mz/+fXicjGJx1EIT//ZPH8YNr3xzzmoXQVY80LZrCSwxniRpby5DszKOACDV0PIKUrw7jtID0PVjF3C0GY4FqzmOA9uvxamXvBGVlnrAzLRRozIop90KoNRm7QTTlbTOBWTPtsxiig7hatdEmHfuuj2ObnPdTbgFPMch93Bdh9Y0gcRGjLzodej7wl+jUJ+E2TMAkyYog8PWzEBYrLIOZRm7IYWFwv412LGmhqHaCQIaArNSDJdU7Rqp0TwpcCQBg61N140dRi/8qZfiqqu3g5AUTboObtiQoi2J6cKh61ubnCYVvIHi6iHc+rrX47ZXvwHV0VEcePSH+N4D9+GRBx7GxOQ4avVZ1Kd5H02p61DuKcp9odOAbTYrmSrVVuoNJ6rCnIR2ceNQgzQjYpPFoouB/l4UKkWsXr8Z197wXFyzazuGN2+A09NH91yFULjJRlk0CVybEyMEpInEAQcejwsBLE0UXNDIcwpcygwqHWJufDkDLqcMhzTRv/EX3o7xI0/jns98AqvWlFCslDBzagzfuedv7qg1ajvKxXLOai9CVj7QEpG4NKUO1I2pblVuP+NKSq1UnRJbbdK20elCLN3QP2zU0PIGULv5VSjSw+/Vp9EqmJLCmmhWHmuw6sQH8/a0yeBMTFV7vLOgdkHJCech2WMx57F4faxZVtsNbA0CWZ+D7YNIYmB7qifQGN6I4896Bdbd/wWUWirmKXEIRCRVN0oVcUNlp5nsZLNhkzodxB7W1L8DnxiqS2Dl1gOMT5xCtVqVecySyJMIM82YNlnGC179M7CDuigiUnydGG7Eac20vzAIUSA2bdFkGI+N0z6q0nKop+hhz62348bnvQiG38BMdQYT0+MYHaP9TI0LqNvTdTTrviScsC1bpk/p4WYTcSaGXi7C66mgQC+3XEKhfxX6e3rRV6mgl/5yURvLdYX1csfhiMDVmKjSsU9JaBrfLS7dk56t7L4c2cKVNBJJ0nHFjBFwYSI7hsP3rrZ3qRFXyS4cHuhZcOoGfu7dv4yZySn88zf+CesGKgTqDh7/+ldx6GcfzlntRcrlALRYpIjYc9tNoorEMMCaxBbYA4ywpZhsyiTDNLqhW/iYW5/Cj+54K3xiKo3qCLETUtP8NC040aq22U4e04XAs6FUC5kO5od16bjabHHvpZJu0Q3Z6IOzsVrTKWHVbBWjJQOluIxZj0Cj1cSx218D+4nvYNPoOAJS6R0vpqHyiKQ10vFNI1h5cilwvYICRqZOwmtMotTrod4wcPzkU0hakdQFULGn6lhD0g6uv/n52P28lyN86odAYRBF+q2ZNCUZIGHWy7HQBMoB20+NQDW0DDg/gYG/TvMjm4KKKBOwFYbWYcPwBris5fDYVzzal+QES3UvNSOrVugOV3LjWG5OKmBTRhxJKUtx6Pr0mUPHCJyjVk0KyrhGQSJlmK2GUoKRAdgV65Sy/0bimOWoBNvhGFtHTFkSHkesVZeRSOa1J7Zdj/YZoEnj01fux3v+y3/BYz94CKemj2L12vWY+MlTOPjwD+4IwmSHYxs5q71AWaQYp2dOQo5JZNudpeIQVUqscszwAyIMSqaTWD0kjtWpAbuAqExdVfUKiYqRlcQuLjfIBbuJbZB+RwsRq4r8dm0BEclPJybBwBk5wr74sGY5uKtRxci2W9C6aQ/sWVIti/QwtDikJ1BVEhNly9PJY9lML2azGrA4mmDBY0/ZtFbllxJks6m9Gvyz9Wu7ddWdb8ttgy4BRLVAYBU7dKV8uIEh421VT2HyDe9Djcbbs31agUCE4JTBNpByEiYBD2kVA0N0TcpAfQJfnj6OtW4FM8RKJwlk2Y/Enn8rpEmQwYre02VD4vbgNW/73wBizxzqZdRnpM6CS/8xyLIzKrET+Ima4MzIEFMAx8+K09In0E9o4gtiAUqXmK3TnKHtTSKsV4GRcSQjJ2CMH0N0/CCSU0cRnjoOd/QkjFPHkIweA6ZHYdam6LiJqXKqdbMpbFuiFjjBJkwk8oKbbMZxS34zuSE8RymYzGp99Rt3leC7xvJU6rUs76tCQPSbnySp6YvuV75naeiCWN0bbOn22IRQnySmXsKff+oz2HPtHkycmiQNwcLXPv9Z1Cef/s0luYmuEFnxQMvZRxx7yOFSkpYqYBQLK+RqSgIGF7BdVZVK+VziOJBwGLNQIublCvAKWMfxgsZhl9TX0PCJy3Beuo0Kt/i2enD8Ra8GmgYBSV26JBhOIoWczyQ6nTbblXYhmc8al9psoCUbcXAmYG+bVdCx3Z7pGItVH3VihqM33E5gFIh6zJl9kVkXE3ZIk6q7algqVWGqiinfxNHWLLjs4vSJ46g3G1LbQuyRBZvwh65JI8LMVAO3vfyV2H3Ts1Afm0LgSHwVgaeybbKqbzIrTCxhkgYDEe2LK4x5jVmaIGek8LYV0ARgcC2KKjHPphSZ8f1ZAuW6OPeYSTbp3jSdIl1HOoZITbzzX+cjZ7qkHjgiw1KJE2z3TkIp2O7Rvg0/kRq2hlkQG7FDlDqQpBkHoc0TmIVgcpoIgIf/9HsfwpbdOzFK88bYk/fhRz869o7zO8pcsrLigZaZJJe6sy1DWoVolTqKO2rz+YKtyn+IRSXjB0e4AgE6N1FMGGh1N4R44aeE0+xbnP/OKjzHRRDbOXnNdWgMbIVdpYfUC+h3YrxmIq8FjyVNdT3XpAPtCMsmLlyKyIMs0Or9LnR82bTdswGtZZOKPTuN8We/FC2vV2KNecyZ5XFpFmv1GtFSzKaPsGzhAJ3qyPQ0JidOEDtsyL2RhLGU0JxpVuHSstVqE6XhdfjFX38/DGKjHncS4voAXN6Qq7qJjdMhFqwmVUdqzXIkCWlOBeLTpRLitRvhXXMT/G27ga3PhrPrNjjbb4W1fidQGpD03xZpMKpkIqfZBmIGMpWatMDrTGLM0SAWGrKG2UCLO3KYHvFeT9r51KfGCHE5+SVAkyaQFps9SIMwaDw8SaYhElFrqhhevhcJbAfXDeGP//jP8YKfejMePVjD9772cb7Gt5zlIHNZQFa8jZbTD7l1COeA+826Ch9ie50wv0iw0NSquF4pyX44XVRmo1SOFcuXye1HSC1N0gr4SBZmsm0xA8lAAicgEMPiAiO17c+i9+xMoZs6ciUVNElqUtxERRicLhpos58XPO5MxtZiZIKdq2QbOdpp6cmFAF6zWF2b4WxxviHpyF5URau8Cseeezu2fOMfYRFoNd0yCgPDqiUOqd2sddiRh/vGnsbsqRE0SB3vLXhiiuEeZxwzy+FdDU5mKPfg13/3d1Hu7QVGJ2DFnDUVyDX1CYBUaxpTQvEY0ThF1+F6wkRPj7di9K6/msC3Qutx2Z8WmhyuJ0Vw6NVDAMfLEsgmE8cQNVoC7oGwWyutQ3ZxWoYaWxnN035zzTLCoCn240azRfdtL4rrryFtiti4W5B0XzZzmNywszpFE9c0OCK5QGNlcQU4rrnLnZEnJ2gyWov/47ffD6dUwD9++P/Ba9/1f/4y8i65FyQrHmg51ZUrIzl9tsQTVht1ZQvkHPv0QWaZz2l1icFukqQN/nhNy6OHtVCWEK4kbUOiy/ZxPdCF6iUwNHqcicZmsvosxjcT+xneRN8SyFoF2D6HItGxc/kF0vFiozvYdGOzC9lds/bZLOgutcxPTtD7PxvQapvzmco2Gly7gGv6EnCO77kdg48/jL6xEUkSwMwMwrEx2AZ7ziuYIcb2rYe+gyLdE/0OqceczupHEkTKRXlaxNpqtRiv/g9vx4te+Ur4J0e56xddEXahubIc309BQNMrg42lkkbsShmzhEH//S//Gt/90aNwS724etPVeNsbX4+bn32jlLWQim1Sb43GnyaBxGEzk4fg5DFiybPSiT0W4mordefCRxtnZL+tEB7XrPVoulhVhlEapF32qJq3abyxCmhJ4A5uoElqDM7IKQT+jHRysDhTz+IsNpo0alVUnAjv/e33oY8mp3//wqfzduQXKCvedMCMtl6riTOmt6cHlUqlzV6ZlRi64IuOI9RxrrqsYmZbbTBOVJgVN/rjUofcGjzSfb10Sg9SgFmAnYi3mVvRJA1S52KM3Xwbqj0VeHVSY1sePQguQqeBgNhZbHkLnl9WHT8baGZtuJfKNqsl6/w6l31nTQZnOi921kch1+FtIHJWYfrqnQJYYVRD8+QRAlifxpEmLALZbzQn4RM4OGVXmFuz6RMIW/CJ7QbE4sZGZ/GsZz8P7/yl9+DUwafhsk2fQDIoppMy3UMusV5pZskTlph+INf/Y5++B/d85dsIG7Sv8VF8+9v34u2/8g588EP/N8aqxJJNrsugWwWZUpegWRmCu3oj+zslRlhs+2exx3cVuZlNiZJo1GZhzH9sE7WQEINKiDpN2n/7xX/Dn374y/jSN3+Aw0cOIm40pag6Z9RxjC/7HBI2y5TXwbpqB1DqgcPF5aEqiUXEvpuNabixiUrDxLv/62/jp26/AU2/mZsPLkBWPKNlbwM7HGaIyYak9vUPDsgtV6/WhNVKDU+zBMOapLuQQDP0BRwNuoEEf6WkUlrFn4EzUozVKJRgs02Wbb7SGUG1BM+q+ClMdD0smxkqPVycrTTbuwG1bVvhzEwj4pohhq86KrBxQahOsw2QWc89S9Zs0A2Y5icKdFvmUoPumRITWLKslhMwznR8IRcCbzVp1AvwGxOY2HErBr/7TVRCUvs398MIXDS8FgGlg/sOP4Zrtu3G1NgpYqktlBybQI5YaTOROrMve/3P4tf+8+/SNTbQz/ViY2LCoYMy78hI50/OpHKs9DMxvEoP/vX+H+DvPvcFDPX3o8hFZujc1pL2tIquzd2f+RxGjp/E+9//fm7XnSYFxhIZwsFmcc8g3LXrYR57io4ogneeGYwMqQHbeQs9OPXdf8PTp47i1te+Ve5HLr0Z6XY3BPJ0Kqib/fijP/sr3P21++BaJXzmkxFKZQcvefFL8aY3vQm7du2aU1LT5boRBo3Axp1Ijh2AMztF9yjHgseqKSgnXNAkZ5w6SY/PKoyeOJaXULwAWfGMNivcaWByclLsTWyPY8+xlDDk9FVDBalzoQ8jtb8KsDL741xzrmbI4Tz8C8dQcsNAI3V6JQuDxkLC9jgOorEIbKe376CtFmFxabtzeMzmF4k5k2RB6lIDqpZsqcZzOebzETMsSqeC2CZwnp1BY7CfHvsS6oceQTR1ElHJRrGniEfrBDSjAfoq/Vizeh28Yg+mZxrEYicxO1vHz7zz3fj13/4tlEoe/KlJeHwfoGOCSdKgP3F0GlzzgFmfg8npFj7+958V81RB6sp2GDvbo4eHh/HP//zP+Pu//3vRqrjObKeKWhrjW+hFXOqXilnnbTb4/9l7EzjLzrJM/Dnb3W+t3V29d6fT3dk7O1lIIAtJiCKLCig6Y1D8K6KDigyO/2GRYeL4CzISF0YcCDo6KIoikEAIAYQIARMgWydk63R6q+7a6+5nnfd5v3Nu3a5UJ11JNUmF/pLqqrp171m/83zv8rzPy0VJrOhm1EJzegabi8NwCjn1z+YK4mx0ZEF3y/346N98Cp/+3BewdvUI1o4MYWigipxY5Dy+97///XiM3YhTZoqKtvP5oE6DAHW0Yo2K7yRJgIzIzYSwbcusjTpgZe+GTSceB9lnMV5UQMukWKvVwczMDKrVKsrlsnkwZPWmAj0FuhUIWKVEFkEyp5BAwGV/MVssHTBcwMCbnYnDJEcyXI844vQfP29jVlwzu6axB21YeKTRG9ecnwR7utFbqPB8jcXEg3sZEc94zKpypqsgWkUH+VqI9oVXYnb1sFiqebQPHgD2H8ATUz9AJ78PE41psew8RLky2nEOp55+AX7nt9+Hn/vFXxXLOEJnagI5lqmGkZamdo+JX7aWjSl/lnfJLVRw/4NP4Lv3PYTBgf7DwjKZ58Hvmzdvxs0334x7771XQ1ddXeDM58n3IaoOq5YF7EUCLUXkC0XkBeibrQaqq1bqtOTxBn6g7AjWIHjlCu556HH8wy23Y9MJ2+CylFgMCE/QkRTIk08+GU888QQ+8IEPqDHSpdgpBIRaBRcXh5AMrIDNBpRpFZmeS6rvQc74kw/e/bHFncDxwbH8Qwc9g+0/2K6ZrT+mpyfRNzgsbpCFQxQIUbc8p4LfqvivCkY9rVk4c1klIy6hpd0LUl8yTuk4i7QWybR1ZD/7+0roDK5FUR6KgILUz4BFvXHOpwPa+fStowKtYzh69WmPRmfhaPQPONpOG5VArMuoAE9vUoiDO87ByZeeDa/B7gb74e8+CPzbN1CYOKRaEquGV+Pii0/D5q3bsWn7SRgYFlCeriuHNi/WYNBuIRAXxuWiGvq6Hxa5kIpHL8a2TbcD8mbvvudearKgQkoXy2jnXW/+TO9pdnYW3/72t3H++edrcYl2CbZMNRitxaQ8AEwehFElPvrBxd+XhcbetV8WihDhupViMAQCoDm0/Ybp6CGTyumr4pav3KGFOx5b2vttNKmZm5fjZmv0el1DGzt37sRHP/pRvP3tb0eRRTcUwbfTQhkWNK5cCWtytCtuFCVmubBV6EjAvT5zPCH2LMaLCmipS0vFe/IBm82WPARTKA31o8KmeXGDgVOdMKTp2IztKnamSYScYRfEbs5olSam8EHBlg8U+Ybx0Zu1qvIv1oudX42i3Y/EaSoTwU6enls236JdjDjM8xU6yEZvbPloLdxnOmbEnnVdAAAgAElEQVTyl0MBlHZBLLSGj6ggU1a+61roBiiX1sHeuA2vvuhleE1MbYCO3MeiehPR1CzsZgfWoRkx+RKjEyuLn8fSafk4ux8U3FTvlkkslk8npi0MWQrT7Sbu/8FO9MkcsqMYWW+6XhEdDmrtErTuvPNO/Mqv/IoCr1q/oTlGm9VuMr+STHxoEbeJ87Uk7nxt/yH4FRf54SFYszKXHNMEU49BrsXMzCz+XSzvPDveUiGO1ZHyuZgLme+jr69PjI9pDMui89WvfhWvetWrsHXrVu3koNWVnPOEW7eAeHgNkoknVKCdC0/M1wm0cm3WDg4c/cEfH92x/EMHSdJlC7CNiQqGyFzOy2RnJnp8cgr5/n4UxCJRUGV/r6zHs1qMlqpw2axPZ2mr8m4NwFppNleTvosMHSSaFenAGViDjsu252LlcMIuoFGbjd6S26N1w3uFuJ+vMT8Rt5SfyXUIfHJ/xJpk+IcWWGj7aDQ9+Oz5VRf3+dAYcjNTsDoTsFs2WvunEY3VdGGMqV5ZZltuU4LNZZXFAyTvl3KG7WFliVB1yWMjWyGAVRcAHZ+ckWkhAMyCA1jdJF6v90DrlaB36NCheQ0pE2WpkL1A7QHmAhaxVptjSzhN5ThqUxiOCyjJIhIU83DEUnXlS3ne5T7sOzCO0dFD2rqHPGPuxpZ5R7aDJwBPK7skzwAXgYmJCY3V8rhV9jO1ZjVXQaZM/6BpvdPDqdHomTw7bEU0/vjDycTux5IDTzx+z94Duz+0uDP60RzL3qLVLgQpt5BVOARbqh0ZRSd2lpWJMT1rVmrO2qavNfRGSSlRHVmLyS+q4UfGkkUqiYjeirJF8lFZzohWA42RNWoZl0IbzdyRIxDzWQIMbzwdCM1nF/S2sXk+xvwE3jMtFr2hg6ejhCU2zUIHjrwnoEeCUPUFJsRbWEUNALvN/hlqqdpBKMAaI2+0CFVURb0Q6lXYOdUE4OKqml+s2FPdWEfj8bRWk7T/my6GAuL1Rge+L1YyO8GRtxse+ZyyUA/Ba47HDLWMW1aEopXX+Whbz1At85QNy3F2mghZ9FDyMBXMwmlbYkUHArK+gGcFSb6K7z24Ew0BwgHZj+PFaFInIbZNQ0jtnht3dSZofe/Zs2cuBELCl2WitRo6cfOmmSjStkvcVlokQd7xcH0Mrak6n6AdjuPuiB6477eaK1Zsr46sOS46c4Sx7IGW45kAxq03ELQiuNUhjdP6s9PI8QGsVlXyji5jpBPKWCHW01idRzts5dHaaDDra7lokhAaZgB+dOe0GAvx+bRoF9r30XB+n+7zvX873Po1iUmf+KttYWIVYEmUNhJp1RMX0EytKqPtmf8StdEMeFhm1aNOBgzrwDg6acmzw661bNXTweBAGY1WXVsgLTS4yJFtMH/xM0JDjsbl50IqLhbTRkmX/XIZhVUrMPXtu7D3n26F3Y61QWShr4qg1sTICSswuG8UQ1UP0806oqIrwM68Q0HmNb28trYMyq4j2QZMiGVi8l3hn6wsmom+BY5F1x+H6mXyLInVPFyuqNJYvGc3wkP7Hn742/926/YLXnpcTnGBseyB1ugSZP8cwSoqOpocgExKiAXgVGWCNOV3iiLbRtOUAsg64ZYKr5hHE4uqXinDkwe3I4dQDmk5PDP9aTHE//mA9Xxatdl4pmPvPc7FV7CZ9zc7oVhqaaUT75tjmQw6A6MsVCFEpf25krQbAwVitCenhoXMfNHP9FD4ktSriYMY1WIOuZwpz+0e5wIQRLec4DwyMnL4OfI/y1iVlD1Uge+Usn3UIzKtcAY3roc301QGjV/OqUiNm8uhOT4uYNfGadUBvOfKl+DzDz6E7zzZRrmQ18pDXxN8BlyzmP9hiUjteGF3xeaT7rVZYGgYI9aSdKtQQDv0EdoUOM9jgNZ6WLtm74P3fnH9KTuOg+28seyB9umKBrLRCnx1/WxmmGt1OP1lYM2AgK2vbj0nr5WBQ7K4ZMWRDyxB7He06iuiLJ26qTLZ8cxE/sUA7QttPJN2QTbmW6pHD7SmY0FsOSr0ospaAqKmzbc2F4IWnGRUKistMtGgZfpzHKdWZcoV1USnpQpgBFoFYtnuQKWEFSsGcHD/mHY7iJUH+9QjIn1qbGwMV1xxRfcaqOYGTVm23uGL1LPQYpnFTi/ZVruJfKWC3EXnqFJdwlY3OQdB0sYITkSnFaIlFu2OJx/FyX0lXB8+jH8fG8eg5yAXOsqA8RF0Y8vNZhODg4PGilUxkDmQtdOcx0I2t+qHgGXKsZIn6Kk5uqQ5aMYdFB0555lD14xO7d+2enDt8TBCz1j+yTA888NthWnm3mHcNlSZPXglWHlPf1bo46TThnpL0wKGrisJ6vkkJz/HKKjHe/Qu43IKHWTjaMCy15Lt/f5M758r8dXf9H6FKSfaUrEfO01bpp0tEiO+zgXOYiFK3O2GaMIKanESWI3oNr8zgZlFdkIBs4IszqectBX1esO0qj/Cgp654JdeemmX3mYU40JNrnG/gV9X0r+7SAoeY8Y5OXSWx9psuljrwGnLsbYasDqywMz62iNs4OztiE45GYVCCT973hb0u2I9W0bUO7Dm5hMZEvy+ceNGpDfAnAMNgcTEtEN6e0c4Tyb28qWiJpsZ39ZEmhbSsVtvGWVZsMZ23vMnizrJH4Gx/IGWq2yvNToPdPljzuNEEpfJLSAqF1QgOZ6tIfbyRl82MfnVmCWNSWbn9Aw1khLz7GaPYpI91CYWi7StivlzJJPbR0SZPXm4nFxWhfZUl3nuNOZ+fjpRlrnzSp7igj/f42jAs1eAZv7nFnw/5iUKgTTaGhuVSgXQlK9KzpduKr0XpOjRQmU4IP2kqT2xTNt4vp+/+4HqHJDWZSQqbGUZsJLv4vPOwmx9lptAwMlhp5QqblvV4WLs3r0L5517Dk499XQ0Wh2lGJqmjCx+sDR2nMyMi4Ft1OCo28IlN9TOtMbK5tywU7o2zyviD+LuB/reRAssmNBihRzjpK5sxKNQg1i2VtBCe3QUq9atR6c6gI39eWzvZ0v7RNv/hPJ+JuloZTM2yxDH6aefbq6rHJvPtuSmLk49vPbMPjU4kp5chVritlnOqLvLkIEvnlpIypxstyDvb6smtIXNiXfN6KH9257FFHrRjhcH0KIHGJPDvpmYWuLLhJQVuCCTj4IhMgFtAUCrIV+MN/VVjKXEDEveRFOUfN+zFYVY21durNbCaz28THxbHlKPGeAwrTbi5PTgilvlOn0CtkW02FBV3DsnZzRzu4eaAsh8wv7RCGj3WnrmMrxwgPaZxvzzetrPJXPv6S5Oipm2ApneJUUB06A9JYv0fD42IYEkDRPoNmzjuaiwTdbRwoSMNMIgFnKxWEISBHjJ6SfjpReeh9GDY6hUq/D9FhqNGkrFomrdHjo0hnUb1uPtb/9NDPb3ybSwtOOsiRHn1CJl94R4dsIs8FxkxCJ1aADkXe1Pxp42sSzOHWoTZ4Un7BFWa8IN49Q9T2TupAkrLR6wVByGizoZLmyTzkVlYNtWONM+Tt64TuZdnSKRsmBAjrmhYMuwwSte8YquRcucgR4j+RwaQunAa00jSYMw3WvZzYEYg0apYLFpoE5AZvEH5SjVApfDPLDrsZ89qsnwIzKWPdAmqRWbzYeFnlltBc0qoDQRoDxaztmgqd1EI0/AtVxSWlhMIRgj0zHHebWMmlHLLsszKx9stRD5TVU6SmLGzAxBXft+QYA3CGHLhI6adXjtDvqTEobKA6ijrVng+Zbf/O/LRePghzV6z29O9jK1sjTx5aTtuI60MNFEDEwhClIRHlqWnDq24c9aafCBQBH4HQXhTttHUYDsve94G/oGK9h/aBSuzJViuYzde/fh8V27tbT1g3/8J9i0eRMFEpHPOUYHOTZpM8uvI57cD5f7yrH/QQSPWgXynpDWb5vaxKHOyTyZ1qGlpbV8jy1AHDs955Ck1rydgm0W50YaP5V5x1LcWTn+DeWq0tII0KxMY0n6rl27cNFFF+HNb35zV6IyYpxVjqUVWfpuNMbhtIxIuelXlzZ1zFawJL0fXSaHuYZ8jvj+2Ap1sRkMccoxmQzLdCz7ZBgb12VVOlaaapgPO8qVVJCN5yYlJ1peHi4BTccXi2egonqkzsS0GCKpS94FWlO8UIiMS0+dU2Khy9YJMrlCqwOnIaDdbJkJWBCXb2AFvJedhdyqEppxC26Tn7c1PBEn8VOAsjdcsFjmQK884nIci10oNGmjaZn0s4e5MwtviwCbtYQ3qm1ZuCc5bMbwPruOaQGeE7c7mJ3CmpE1eOsv/jz+5GN/gz0HDmk11QlbtuKKyy7Fj19zDVasXWNUtFwPHfK43RzXdPGaZFGdHpMFd0o8eE/DCIFyeWXNLxRk7prOymzUqAkoAXHHLqjCV6fZ0AP1yGclYyFlRsS2qWjMKgwz8RpHhZKgFmyyQjy3XVPawiaQzzCcMbn7gIIsS2+pAdJt3MlYia32sgDsLJKpg3OgmoJs1tAx62UXA13j1kqBl62kEjuNV8trq/oHXrKom/oiH8sfaGUV1wxv9rCm/g5ZBF26Smq4K5hpFCBS0I0imVwMFXTk80x4VAqw+/vFbfNhdGdN5Rj0X+6DjfDyafdRsV7jCSQTs/BqMZrrVqFx/oUIzrwEyckvQW6wKqv8LH5w5/ewvljAyhVrMNaa0c6mdpwcBqi9Fm2vAtbRFCwsx7GYcEcvpap3AfK03bgpk+56KdaRW27qnvhetnGBYQPo4tzzAd2+ZeK3scZPDashmJzET175UgHWy8VFLiNfqSrTwFJAbKmrLC8o9LtMhNGylgW8ObkPJQHZNO2mBRR0scnZbtcp/eiisHIlhRQES5uI6zOyVrfF+yoiv2qlHu/s+ATKBH5lxphzsJIsRp/OI8uwJFhkMN1uYCh0sW92Go/u3o2KVUS708Fbf/ktuO6667BS9kc6Wtbg09beYjZKYQvx+AEEYjDkxPqNgjC9JkC2ks15EZZSxroeGEWbCnmVvLR5vQR0pzoLJ9R+VMeyB9psPK0NmJi1XnmDZO8wM+zJ75GnpZlJTqwRVmI1BE5LJZl8mbh3ks00jVlFrOdEC0ldXD63hPrqbehccBKsk89CtHodwuqgup+u34Q9O4P6vkl84VP/hMH+CradcgpO2bIR/ezWCqMzy6/5XQay348GhF5I8dkf9vDEpXetlFFAAKVNpu24F54JUZK6wHyHUXGfS6CmI0n/rpVoJOaHBEj52WbTwgMYype082zcJle3D34iUFkoIlGhGGNRxmz33ZgAxDLM1Wsqrq1FCrTC8652jJAPobxqQLuB3HHb5/HN276EPY8+jNGDu+DlSugbHsFJO87Gj7/2p7HjrDMRN+vGeo96PBYr9dR4blnIhE0rR8cwNTGOtdu34xdWb8Up6zbh4pdfhM2bTtC3UDpUBW+Q0tDE/LRoaBzahbgxBquYp/WCwzyDJAPZZO5B6/mz0sfShqguizrk/32dxnee1Y19kY5lD7QtAUj2CyOVKiJ4pqs9c7RkEzBYkE8VipyIfZtSGpAyg2ItyczKJclztOvye7GiGqi+M4q8L26WWLKMnWF2jCIKmL7iGsye9lKUZBIrlzOUCUax55lZpRTxsQ/EShhcM4A3vuG1uPNbd+J7d30HD99/DzZt2YItJ56ITRs3Is84YKut5bZhaCyIrHkhz4EPhWqG9oh7Z6LSWYlu1qmgF5x7gXt+tdKxGvMlHnuTV6qWlh5nr/eRKXdl57WQ1kOMwxchvT7sfFsuoCmgUCFHmV1pQ/b34jXMmYw5RVVg6EpWOhd0nymnJA4NC0Q1e2zjvBjuraGGKZNF6UuWzhF2apCbpS49t+jKHGFvMLar0aadAk5OuwVPFtlEgDHxO0hKjmCWpXquXkF+bsuiUBqGVy3i67d9EZ/48z/G1OiT6inl8x4GBssKno3p/fjWbXvx7du/hF/5rXfg2p/6GYQMcTXb8FMFuJhaMiQVKJvGRtuJtb34+GOPorR2I6656mpcPbJRMC8nx26YD4wbW3ZW9cV/5bxmD8KfmkYyOy7zytbnw49pyR9OczRXjYwHw5JkXDxk0UMK/i67M1iO5jVabR8btp304DGdcMtsLHug5YPItuJai90ts0zdqVR8S/WZdEnmpHDmAk1WhK4RY6VxKLaLDmeRK47Ab8nEUVGOQNzHJjrnX4iJn/lF5ArrUGEmmWEAWgNpSnGOFmb4O7Fn4cwzdmBoYBCjo6MqUffAAw/gnnvuwYYNG7Bjxw7N/lLsg+DKjDDl7Mh1zIRKslha1F0Q5oCLr2UVPr2JtPnc0+fD4s32Pb9lTfY7F5FsZFVL2XFn50o+KpNPTA6xnJU1+nzv5NQkvLa422vWYHd9CsV8FVV5j11roODMaAY/5SOplcW4ZWxZKYskNpVPyq1NtPBBldq6ec9s0Up/h3mvaU/jIe8afm4StBAI8IYMTEYEP+oBRFCJACrAVStwWShTLen76zMzqKxeg44A099+6Hr81cf+AutXD8nbPDnHgmEJpiJHfX0C4vLa9HQNn/jIn2FoaBXOveB8BNWcLCqBas0iiFSNzucKIdss9fdh/I67sNYt4u++/02ct2IIZ1/IEt0WsGYQLasg28ypt2bx2vsC2rUZtCf3IM8GmMWCufaxKayxennDPdeG94991XgNabyocL7HBdTWwp+WHWJM7tHI4MAnj+kEW2Zjadj5z+O4/JU//r5/+/fvoUAlJrb8iFNqa6pZ0Em56+88sazxKCP5hgXyJtbc7yF7I3SQ91aAD+asgGr7Na9H89r/KJYrZfvqMsnECm10xIV1dV/zh2rcppYq6+ApU0dZuo0CsJVyBRMTk7jv/vvw8MMPY3xiwiRTZBL39/crmGSgNL9kUo+0x4LttWi7Z9JLhcKxDy3Mt5Z724l36+gXGJnlzsUhCILDjjnbhsNWP3SJ5T37DxzAvXLN7rjjDnz/vntx7tnnoCiuNhvYNpwcOv2DYvFV1Zr1YnHhY1/jmWzKYpS0EgXcJCvRTeK5aWD1/rDwUN5rnKS5IlvBX+lMDrv/JnC13sXW/XMJZxfkdruulVTewCpM1qfx53/4fnzls5/EKrFeS3lH6X5BZOpyNURB5oDc/4YsuAMD/ZidmcLU+Bi2VocQNZooyPuaZTm/nLxH9knL3p1pYPqhR1EfO4T79z6Mv/6HT+Jb37wD1VIO23ecBH9yAtb4AbFemVPYr9157dohoH5I27A7aXw70DiwpdTEZKEKRl5LXgM2cZQFJiI7gffXNaUZntyjdimPcP0Jtw4Njdy42Hn0Yh7L3qLNnnE7q/B69lvqWrY2xThaTE6wzZgH78rXoHXtGxEcmkQRplyTVpfHkK3ji3Vz+HrVa3lmZY8UhqaVumH9eqxbtw5nnnkm9u3bh0ceewyPibt3/733KgWHFi4FmletWqVq/QQhJl4IRPzqBeD5LIOFkmvPl/5BtgjMDyf0hhV4fTKw5fkQYDKNVdUzEAv/8V2PY8/evdi3dx/279+nMn+8fuecdw7KJU+9ihzb3PB6iEXp5wroeEXU8gMoBnWU/GnkopoghGv6vlHZzc6pi+wk868f/z1yIpI96BS4GcOPki7tqaNsUs33a6jCTq3mQO5bPpFFs1hCU871ox/8I3ztc/+M1euHdWdt3zfnrPfTUM4Itpxb7E3WajdUvWzXg/fI+V+IkzshpvYcFBBuYbSviMrQIMbrAr6y0kSdNu7c9yA+89XPyjzKsQk6bnjvu1GQfV/26lcL0E7KMftqFASk6fLASxUUQy2DMJFptkuPTA5jwfVGNRHEko0DeALIRUoqBolygm2x9GetAH7/Ork/m45rHcwbyx5olbOYPMU8PbqRfc46/DVORLEtkcu3xMMKEF50NYIZsVwSSu3VDWdce48NwGfjQNvEV3sfzl7NUlqzobaxDjAxOal/Y7jglFNOUR5mrVbD/Tt3anjh8Sd24b6dD2BALFsC74knnqigS7c5VzDhBG1omMxVkGXW39FUlB2rsVCVWhYCmB8v7gVTftcFSV5r+x1MHzqouq579uyV63FAM+RcaEZWjeCqq67C6pHV2HzCCdi8ZhPGxdprsg+cbURbXBiQI5BGbgGh3KOOuOC5sIOyPyPfGwquhrmXygCmwabMUbafZh6xICDJFmPH7lrDhSRvPs3Eqp0Bl2xT3PuQ4Y6BPvzTh/4Y3/nCZ7H5xNXaYp4bKok13hFvh/FZWrAUn+di3JY5FccmLDQwKHOn2cH/uOlG7NiwFeeeex7OWLUZQdNHLK+3mrN4pDmFB3beh2/vvEerINsChEOy32hFFR+94YNYvXo9Tj71RAQadgBYqMgKLkcs1zhpaek5zzsKE2Va8NwWyikq95ft11mN1g4NEyIn81HmnawBaK1cibVbT/vRy8wexVj2QNtb8fMM3IMjbQEpY7073ITJLybKxErya2iNj6J0wjDCdtoanHGuhJO2JYCbKPF9Pi82y+4SRPidYEkgrDfqAqx1rdTRRn4CujmxJM4//zwFphmxfA/s34+DAjZj8nXXXXfpObIqie3U+wSAVwwPo69iWqtz2xrLTMGL++1lMhx+nY7NWKjwIouxKg0qXQw4MrYF+7rxGnBx4c9j4+OYmp6Sa9JW664i57dt23asXb1aS0a50CgIkRgv53Jw5qBm4suOJYudae0SqoVqCPjUrSX/M7DyYuWym3EJfe2DcAVsdaYk6T+WKYNNulVjTkoNfKp/ZFtmnmSNHLP5FsPXnzPutSmiSIXh5H7d8rl/wWc+9XGUBz202eHBNipe7ZYJFwV+qO1nWMxCQXKzcKbxdr6/nMeQvO+RQ7vxxC1P4u/kbwNDK5E0Az2SqU5dk8EluQakkfUzhNJuYlAs21G5rn/5wevxoU9+Rq5MQ3bKZF6goRSK0SeOobiRT8v4LTWb+bVQyyVSt3JcGJNQ92MXXMzKz3V5JMrDJ3x87ZZtx1vcHGG8KIBWuXsySVxn4VhgiCQrakkfBjxtPI4T3raZHBArCDWU/uVzaL3zLHjijsa1KXTKrA6LxZJl8sNDZLEFSltjwHZIS7bMdDCC1AJisoXUI88V91gegoH+AXWLJ8W6bapFkzcJChnVUhn5jZuw7cSt+hCyNp0hhr3iPo8fGsOux3fxLMQC9MQqLqplTBBft269/j4wMCAWtFjjOU+zzOrm0oIJw24sNMv2Z659RjPTK9LD5c1+7oqkWIe3ROeg60swzcIA/MrEr9nqnRYpwyZUtzpw4IDGpqcFUAmuFGuBAkM/+uWYT9i0WcMmBFaeE48103mlFc/rxfPV6xVnefNErWE9H0DpetmdtdMOB7wJLZZDl2KsFFfbjhtyzxizl4XUMXMjk6RRxgHnS6ZshbnFnJWDyPUhGGQRgXxi9KBci7zuJ5SFl8lPZvVj3+gQNNeuxP7v342PXf/f1LV2ykWVTCTbweqCdtJd5zmXYu0AkmhsWvcbujqX2p6PYXsIrc6UWL4OOnL9VAhGjrMk88qm268FBKwsk7kor7Gf2Kqhfjz08D348A1/gLe9591o7m3K4iT7oEh6vg9WnVoc5NQy3BGaCgSGPyIBfsZiLXZgF/CX6x7OtrSFEJkW904LuMtcXrdx3fkbhlbe9dye4hf/WPZm/vs+9GfJhz/+f7VLqePayvAh9YXxOq7SM/KcdWS1n7x6NRzGOVmJk4qQHHGw2su3YcsEZHY5lgk2e9IWzL7pLfBWbIY70VI+Ja0PgnheAclVFSlyKqOYZG1l1PZQacwus9hq5jYTSAg6GQhyEJwyUCOIZVYhrTm+l1+T09PyfVpZCrQMw5SdUBAQIvgRjErlsoYtqmWxfGUbRQFidgpmnJMPMXusMSao1nDamyxJMgA29CvVUE2yjrypRGEK3jzeZquJjoAgj5nHZyz1ti4k5uem/sz9cb88rrIcz8pVK9UyJ4G+nB4fj53vy/RdMzDncfBztGr5xWt4pMaVab0U5ryblNYl2/IFFFc0D6AYTiO02PKFNLCnbkdDCJbdBVjdEsG+XEBnqo7vfvE2lFcO4/RXvhwC+/DrNVmQbbUqEy5KlSI6OQs7774Pf/GH12N8z8PoHy4ZoyA02fojTDw1FoIwMKDJ7goCvGzzHQsWBk25DgULzaCjYSwjUdOlBKTfLL0//DUMjaqYL3796Ng03nf9jbjktT+FUBY8T8BWdXYLtjwfoaFByvVxqdkrz03MTsGugLbMNXoLbHxapDcn14sx6d3NPDafctr2vOcel0M8ivGisGizip4kOUIMHz0Z+CwmO4+sftg2VTtaLB+W2IrraQ876H/iIRRu/BBmXnENovMuRVQYQCLA4rEJJIzFGtASZFIkKRoiPftUpVlupM5obwKLPxN8aKURXGgVEqz4M0GMgMLfM44tfx8aGlIt0c2WUU1SZgPdcfk+W6tpA76mABytyKmJCYzu268WWhTFXSZEBtyOM8di6P3K5wtztfAp4Jkvc+w8Nm0VlJgSaCeNtxqL1oA8Leq1a9aotdrXV1Urm9Y2/0bgzJgVHB05R26Ti0Yvn9aAcvmwRFl2DkdiUigNNmM8WN1/tLM4QwQR6VhcFNl00I4Xni9JNj1SkGUMWK5VLrTwR3/4+/jX276CYr+Hc7/4clz8mh/D5S+9EpYsFnTkO+0Wdt93H77zr1/Bv3z670BnfnCwgk7QVivVSsxceMo+U55hx+/oAtgtqRawi1hxJZ4S9Yr8tDWPLtjdRGN35kIXePJZyRt3jJh9vuCJl1DC3/zvP8PAqnU49eUXojM5rvcz7wMlq2CYD1xYZZGIZP8HHntUreR1J2xB8+AhFLwCIgF4lVLMlVEa6Lv1OMge/Vj2Fu17brgxufETf4eh4SGlbdFAmW/RBjKHJq8egSUreBhbZnXpBuqeOgJ5GKw8pQ5D5Fkt5hS1jUnSGoc13paC484AACAASURBVEDtrFMRXnE12qdfgBYK8MQNc2enjbZpsQCXXU9TWTsj2GeEQJLUJe1NGhHICDIE28yd53dagwRNfs/c9wzwMosue41gTUDK3PosZsvf6XLXZRs1ATFa4ARjAhtBLQPSDNhjDcMYNkAUZVa31Q0d0LKxUwDMFghazVSyMpZyXuPG5YqxUIOO3z1W7oNf81kIUbpYZNY8FwFul9vJFoQMdMIwfFq6GIedhtzVFs1mt/zgeyVUWxMYaOzX90Sup6IryUK6Spk1z863/J20QYKfAPRPvfEqtKdnsHqoiP1jLa0SGyxbGBpZA7fYh6nZOmamJtGpNbB2/bDGQtkMslAtmViy5R5BkyJJvQxXQz5ZIpHx0L5CGUE7RiuShT1nTk67OKfXYS7+nkp5yufJP1YmjibVgGbUQX3Kx2B+GK97x3/CK3/iJ+R+DSAWj4N99TzqLIjHM/nYY/jyzTfjIx/8IIbWrMOfffwTGFm9SulwndqMlo/XrCKCoQ3nrx5ZfTxkcJRj2Vu0jCdZWcHBYlrVPk1ySKvA6x5CWdFtj9ZkR5Wf4koZSamM6q4n0P7rj8Fd/w1UTj8P4brNqG1eD8sbRrHDEEAdEeN1rFKihRYbknu3hr7HouHDRNDKLMcMbAk0ZB1kPFwCJr/Tws0Al6/xweRr82OnvYUCtAZXyEKUPcSmECLshqrnDKLkMOtIwwlJFi6IVQEtoHVlzwF5kpa0djUaZPv1mVk0egByftFEbzFDFhLgsSuzgpoBPdVi8zUheiljC95W9CSr1MMxgtaVziwqfk1gtS0Xp6DxWSaFjoCzRs6wtwqV82ywiFdc8Src9qm/lWMQK3GFWKhiKteCFg5NTcEam6ABioGSi7x4HhFMkUQhX0Sn2Rbwy2nc3jmCaJ4JV0DvOe8Zk2T16SZ+7nd/RxbHGH9z4w0orBLAbrVh5xw81TK2tKWPkctNtDQ3SQHcCWyMDMhCMDOOf7j+A/jKp/8Bl116BQprRuR4K5g9OIZHdt6PH9z/fTz6yA+wsr+EfU8+iUceexir165G7dCYzMmiWjGTM21sO+U4yC5mLHugPZxS9AxAm9G50tgbjuB+xk6gk57KSaToUJUpopspz6VFScWBfnG5xDqZ3AP8626EfG+uH42TTkPnoouRrNvKN2rNeNLxVdfUVKKZarUsrpaBSG9Zai8wZa/RwiMIDQ8bnQQCLMGVwJvFP/leWozdXlA9ya1sO6yw4r4ykJzPlJivuTCfRWBA1tZSz26JLAE+K6WVLyrvM+5LipCfFiFkI+P/cmHxNHljzQF2ut+scKEXYO0ey+2ZBHcya1ZFqRKz9rJqa7j2BEIBWN8tsChVPB+S7BeGvCSbGxmbhMchi0lYb+PNv/ZO3Hfvd3HosV3oX5HTXnAVr5iyBALdL2P1TVO4pYJGsSy+JdswUPTFBcPLxuOJ0tCOL/NmdraGHaedi5dc81Nw3CK+9unP4PEDDwrAD4kV2lbu7vwRhlx8c3Mx5vSCODJvffHQiv1FLZUdf+wH+KuH7tEFl6EipSuKOZzzHKxZN4jZZgvrtozgtLN3qHdWzRVU1tGt9OPgxOjHF7z4x8cRx7IH2k4kEysvlidddc3nHA4efABydtSN27mkbDmhPHx888IlDnYqAuqoor7pMaWvcF5Tap/b9ey0tDePvFi5aB/Cqm98BvEX/xGtVSPwLnwZWiechPbajeiUBmQCV5SqwwyuHcRKHA8DH4V0W7kwUUk7bW+ltfaR0cPNedpCnQ+7FRkFUM/2UKzm0F+pqgAzaU0tuv8xiestBM2Ohj+4PYti5kwc2VYKkmY/1gIdAnvd9N6RsRK6LIUsXmvS9YgCX0MHFK2mFCDBk6BSYmk0XVKloLniNjtqDSuN1IrT80zS5JXJ+8fpfxqyoD6wH6vOQCIudDsJtAyWVUms9oLV1Di145a0gMBzTAvxmszqirj05XYNVdQFWGpInIKGClQbgP9RxP0Ic8rOwLVbn22+Wyzx3bgGv/T238H1b/8t1Guy2Fbl6H1XaVIsvU0Sinoz4RpruEgXDllcAtu49Ulozk0ZvIwTK28VWnjhyLn51B/wIxwan8HKkW34zx+4EQWbKnMx3viffwvvf/uvodlpIK/CSAKaibGayRigIJcRsIlhhNBNZsAsFnFa9ZVTilZcdTShxl56NCZUvUDuEdsDkRfbbjt4z+++W8t/O+MTyMu9TFxydBOcc/FlH3nGB/P4OGwse6CNE1MW+UMNNyc91nDUkQdNLLnqCoROFW6/j2KnifC2z6Nk3QpPQCZfGUCy8QSEa9cCI5sRDA0iPzgMr9KHjoCSE4o16rThxXTxjKvLODOd+5z8zo5Y5DYSd0lf4oPlU3KP9fehrdZWmf2hvDKS/BDifoJ0rOT8tljVAZkD4VwiKwO4DFC1F1SPRoLBlh533TOSgmEaF+7lyWrslu2A0uSRl3M13qfUMitnXHfGYpnZptoWQUVAwYrtVFSNnYE95b3yjF3HtFDh4sLFyHcJFaHG3suFKlpB2/Rgk5nru1VEsm83CJVeRcpVvn4I1bCFkizAsR2iIcdRdvsZYXzOt93JiwW7ZxTnXnABfuN978ZfvPf30Zb9VMSyjcQC9bgQsl2NnGNAXQSVL+RybKhWSGPeRhyDDSVNix3ZhCxOJVlUZEFrJZiUxfOyK67Fr7/rfSivW42kXkNYC3HhBVfgvf/9RnzwPe9Ew25gSDyDmNVlbJkkC0jYCbXxb0RRGAFN3h8yDxJlu7hG24H3PTJArF6QXNeibMev1VBwjHcxMz6Nq179Rpz5isvQmZpRIe/Zjixa+TJGZ+rYuKXveNhgkWPZA62hHz0PgtcZtnuWWpLubBuuAEEnnIWVd8SF7ldLki2fC+39wM79CO4ViyKQvzt5BINr0B7ZgNLGExGtW4vG9vNglQto0/JhVp46U51AlZBcWneMt7FzQxBry5DAE8tDKU6xWt1KpBA0ctlJQCzMJGejxuSKV1CLKGvzwsofw7ywup1/n6KTkFK44pRZoOEIZrlTUn+Svs7t8cFlWilKjJWunmpsek9ZaGjyRBN0ep0iAWsXblJSjmZiBQqwbMceyVb82HRsJSiwKwD5sXbcFle6hFAs+6YAeFQtqa7A7sDG0MEn4e3fA+e734TXnEbxdW+UayPXqx3J9XH0GhLs4nYDypF6joP86rwsOp1DU7js6leif3AI//133oWJ0VH0Vcri2VTkHHwBO5b52iZLn4ZLMnpcHDPxlyj3lq1o+sipbgSYmqxhQo5zQ3kY//HcS3HqS87F2D13IXhgAH7BE8/HR+3gKNY1ffz2L/0y/s/Nn8aBXY+jtKJP5puF+nQdA4WK7DsxjhrZGWw4mUBZDKYow1jr5Onq7/JCVa7z2NQEhlcMotEMMTlRw8VnX4pf/o3fhCfXuCPnLHYuSrz/cl9KQ4PHwwbPYix71sFv//71ySc+fQuG+wY0dOD0sA7oYs7o/I5w4Kq1sNodWKGXhg5swFokQC9kOFumlTVd2Kjowa2IZdKSCc59EWTEzTcWsABgQh1bFifEyoBIGnU5XvkuD4fflgdZzqE+NIxozQZ4604Q/7cP06vWwaNGbrGIOJdTgWkq+Hth3ihFyXmGQUdbmhudfgcdedhzKVAzAdORjbtuCqCpEpUBV7t7QocJ0WTg21td1nWn51T9TVY7FuttrnMFQzIKtAqwUHHryI80jquuNEIDBokh12sHW8fubiuR++LIMav1zjBN3ERzagp5Wm4TY6jsexLxwz+AN3UQhdoo0GGXC7Ha3RCtX3gbCidtR26yiUZBXtZWNEaUJk6OvgPxkW+/pYu63GW0BM2KG1fjift/gE/+8Qdx93fv0u4J5UpB1t5EvxLNqpp7YpTWoFZsTqxXlq/WxYpsiyUcy91avXYjLr/8lfiJN7wekQBu7QcPY3rvAYSWucftqI2KWJQ5lLH2wpcgGijjls/8M/7pU3+L1uwkSkUXhYKnR5mFeEwMnDoZJm7LxXNOxyC9j3KPyomLg2I1N8Savuaq1+Bt7323LlKd/RPID4vx0JkVT4uLexXhio3b+4aGj9O6FjmWPdC+4/0CtP/4BQz19R9boO260/O1ESxDDGcWmA8S42kFceHFxQX3F6Wq/1R2ItJ1GEu2NNbIFiV0MynKESR+2g09SmlFrDaKTLVZsYxYvkKxWKJCSTVxg/5+FSvpsF6+UERucCXyAwNi8fWjbpEVUITti4vN7LVY3HNFpbZSleg9Oox5InmKRRtoSMFKSfO9bAGYXlIMGzCckHI57aigJxGSScpkj+12wwzcUqQQRY3TWDmsCcn2sSwOrRlYjVlAvkIBUafZQEGAJy8A5M1MIZyZQC4S0GTGm7FHtRBj5Emkp6WWJ7m+Yjq9tqaA0iCCd7wLboOtuOuaAGL+iVKGeee5ez2GjhZr3JmJRZcJomJeOdT33PkdfPXmz+Prt98qx9ZSWdy+gtwH8V4cN58WeUQCZrOYDSwUxLLfsHI9tp52Os58+Utx+oXnY+WAzNHQ0n50tlxLnwUfslgwLOHK/YcsuP3FguoTJCVqX1Sxe+cPcPvnPofbv/BZzM4eUoodvzytDGQ4JjaNHDXOHaUz2FSn8Tb7oY9D0zWsLa/Ff/jVX8WlP/UarRpjDzAW9rCcmeLlLVIeC4O3ljZuOy4Y8yzG8gfa//YHArS3YKj6wwLadHQBSLYhD16rHcqkdLTPVEjWglijGreLW7p/Puy2WKG+56tIuCtgFAmo8vkPxa12NVUemya6SFWgWBnEgom0ZQu1ck2LCJn8FPVgrFUsYiajGAt1CeCdGFPNPIau+w+oX3wmOvUO+qMcQk1CmT5ZlpNTV78pIMDX507JgGhkHc7PzJKKSC06bX+dVjepfikBO2gimBqD57cERGQxaYrNV6ujNTODIflwcWYW0b69cBrTcMVCCgRMo9os8nLsOStlCcg9hHwpx1UWD41l0oona8OYzOq+Uq4wl5Q11hvkG8i3YwG8KpyxfRi74tVYcdnF6Ix3lMsL25SNsiz2uQ7Td1YseAGnoix2fqOjYBfL8fpyDwsjA6iNjeHuW7+EL/39p/Dwnp1otXy0mqEef6WS02P+6Stfh9OvvQYnXXE5qtVBQNz+5OAh7bLcpp4A6XcNATrxcMhxtcO2incr6zdhZaGpOaRb35HFtTI8BMxO4Ys3fRz/9//+FfbuO6jKcqtWDYpHw6RbnBaWOAq6gXgYtVoDjXqEksyFV73hTfj59/1XFGVBCHbvkXXc0VY2LVk8i/STGiHiwRWYKVS2r1i54bg1+yzGsgfa//TeP0j+9vO3YYAtOGhNxgsBbYLRq1cATbpTVPtyTHO7Y3j2fPhssXgoQBP6HY1V2mlgc34HBC1kWAQFWEcP8M/x1U2RRGu0hfZbfgZ923fAY8deWst00+Mk5fPClIGywCJXZHcesZJZ7NFSIWw7tlUoh0kwxplVpUke1oi0IbGo6l++B33/cAOSgRVG/FzMxkOYxZA8qOzDRmZHINamSvClZVYMD2jlkcaLWVRhkeCrrjH5G3a5KseQf87XPeoIQLzlV+EOimXXEDC0moa1ABPPz9gWes2Nbfec96kZfduwDnRhKBT0ezRTgy9fUaOhb3P7+1AcGkCcc2VhEvBqNjWZlYlsL2Y6kt2hcd7EJEpjWZjcflOtuPOe7+GbX/sKHntwJ2a0UrAFn9KGAuA5z/CWt2zbhjPPOQdnvvRyDK9ehcbUlDYfjTsduAVPmQhOIacl1B6TgIWVt1bWbjluzT7LseyTYS/YwWyvFSjAsEqHvjrbQds9kQdjvGYFF4vcfre8dK58M7E8DUVU+kJYd35XoC+P4ZNOR+LZ3USWlcZeCbq+/FgQlzzs6xgKWLNkXAJayGGUVrRpy1izD7riBMitq1GXB7uS92DlXfgC1gPRSngdyh3KcfCBZrks5uK8cSqe4iiDTUBbtkPwZ219LItkos0On/ugnkXzK7cg//pfEu+irmXGIWPWcd5UgSUm826l1LSlwFldQLgpMjpI52q1jTXeDlCoFLQrbZIySsKJGfPUaYw6UQ1bUg8j/XlxI0mFaZSbzZZI7THQlD3ttB047cwdWgk43ahhVgDdkblgpVV+VEarlEqyzgbIyb1uHjyIPNkvvH6uo/NUSXaNOorymcmOg+Etx0H2uYzjQHuMhgIaGQBMljnGZTfZ+KywIj6cJvasdjL/F1vpRRjOo/TITjgPPAyrMojmhjWw+1ehnbPFxRXgoZYqaVligQ3IAuC3G9r9FB0bhStfij4CQ2gSJ3TpkzRBZtfE9uwIMGxci/HhVSio3J4n76uJEbdCwx5Rib3OGigSbJyiYUMg05hIdQeUmUDrlkAtAFAwbVSwBO3S/Uoet3/je7hv9jO4/jfehMbYAXF/Y01WZq2x0/4Kc8UIz3GYw04McCrwmW36JXZYlkWsVtffyZyIxNIv+IYXrawObT+fUbKOHmrtlO/Mpoi0bJWvQY+GdL6gY4RlBCQH3BIGB/rkHrdQoEgSrfpOCxbb7MixMV9QsC2j40suLwtIWGxhGyWyJoV3+ldvf84X6Ud8HAfaYzS0FTR5iyG6rc9tZtgjrf/BfA3cJdijPmjUXSA7IVkxLPujVTKN4ugk3CfvR15joZbGGvmgmoKMDkqkW+XkwR0fRbChD1jzMqiSMxFAiQmKtkhKLQFpcY0HB1BZtR3uY99H3Ce2kp+XM5qBPzaOolhLkS2ucamqdKiuiE96jGpZx7aGdcTUR5zPGVm+JQrl2Oz97RXxx3/9KZxz4gh+8rIzVPXKdcz5WGllYJI20XSey0KXDrON1IXvUQ5zyB2WhczLG2FwlZJkXN0xhSOJfhaaTDuyesMRztMyure6XtumnbkuJOQcK5XPhBUsjd8HyJPSJT/DMgUnjO2z5iNtPylOTEerHknBUxoa5614K7PewK1r1q4/Hpd9juM40B6rYaXZ/NhUUXHqk7akFAPirG3AVpkIz8Z/zcqJD4tDyMsFceUZq2bszpd9Fwb0YY7F0nRVZzSe+6w8WG27Je8tiyVDjm8L0aMHkFzmaDWTFQddogXZDwn7dzXZFyqEt+1EdO6+BV5NwNSporNuE/yLLkJ0yknofOfrKO5+FI64p3PHC5jSKMP7ZRwzYaGD7gcaX16KkbQCrCvkEFcr+L0PfQwja96Bi07dgoT0OWbvtdhPo8Ld0MZzHVGUxt6tzGI2g6wMFipoVZ1l+LSs5Itjo21rquOS9LoszrthcouDII20OkwvI9kQvP+0XtNea6SUsRtuIN+ZhCXlD6GJvYfsd0bDmprKkVmA8rmC6jRMxDmsOfHk4yGDJRjLHmiT5OkTSYlaLT3yKQmWJgFyFMeVpFaF2V3cfahNObBtmjpmmf3skBZlYPUEdxNTLkyLOd9qwirnNGbK11g0pckajbM6qtsQyA7zTFx1BGC9AHFbHtbBPrQmdyHXYm8pR1t4x545RlpBYacolpGPQjgD57QzUHvDfwIuvBLtTRuBYg5FrfCK0Nq7H9EDdwH5orqv2bHqIcqDbhXySCoFfbAdWuBWj/D2cxx2uQ/xVF2OO4dx38UvvufjuOVDb8W2jRsR8p60fAW0KEtG9l5NvZxp3HsRc8ROQzFq1/IcY7PA+omvlWFxd7OWoYVR89U1ycFusc0iLWsCtvKQDX/O8Eno7hdKYo2G8NuRERCnuBDfJytNnv3IBGw77Y4CvaOKZOnfrUiZDfS6kmYLo/La+h3nLvtk+QtlLNZjecENX1weL87Uquasw3Taq/tedmN1V5VWTy3S5AjN55ZwcPKqW2aZMAInsRX6pjKLV53WDoxaU6bkv7gdWE99OOn2scw1T46uKokY9TBmoNh1D4bLyZBBQUMaHYS5vJbK2m2xaOqTGHr8fszc+jUkOWpbyTUrDSPqWwd/aDPcNWsRbjgN0apz0Dn3MuSu+3Vg+3a11PORra1+Etlv4ZJrgXbN3AHGEokGsWm7gqJYuQIG5It6iZ1qGljPKVTdO2wrFHc3htvKo1yJMVGfxtVv+5/4zDcegCvgTve4Q3uNnRWo4JXgMLWuRPUaFns/Yg3bWIm5xtS5jdkVl2BmmU4PymFNUoU1Vwtwn1NFo5WyTmIB01gTkCaEELOeV663y7CABowTXewoSB7p/LfluDxNyiaRoQsGlo+ANDI25Yl9xAOrBGQvOQ6ySziWPdDqeIandKke4kWNp+yz+0QrncdYIDAHl1ERfsjHGYkp6eTkYR/dC1+s1E5cRHPLxShvPgP2um1wt54Od718X7UFxYGNiCtrEHlVtZhisYqY6GFTRKa8aMsW2B1Azqm0he9dSfKqhgZcJr6cHMJKBUmW+DpGI6YGLktvxXVm2fKK/gE5TB9vec+H8ZG//wrskdXIV6toi9UWWmLJ8yawek/FMYk+7ON17D2eH/Z4Sgt6pL87RlLSyxH6Q4yFHtwNJx0H2SUeyz50cNTjBTF1jHYrtCFeqj1gmzbTao0Ci+fTPofBAgun0UHrvEvgv+k6MTRXIRK33oks1HxfAJRtTsQy89sg3z9K5CGktZR2Jkgso0LlU5BbLKOC56qF2Mrn4I5shTf5OBIvr7xZFOQ1sWRV8ywJ0sux9CdLdbCm3zTMhpSz3DfQj+l6De/880/h4b2H8LafuRZb129AMDmhdfwk52uJKlNJ7D3HCocXHdamDwA9np7kpB362h8v9AoY9+1b159+9vGY7DEYy96i7XI1n/bJSAlGTwnIHcvxNMiuAtmRcetTfit6dAbmjvHYHmFEUr1YptHIOhSH1igPlyJavgBVjtl7+SXvs6KIBxLBs9qw2TlVgFI7tiYqnU1vVIWoGcbR3lluHva5F4nVG5hwTaUEpyggy6QRZRuTeUmoZ5kPXGhw0WIRRCsK5BxMDzJK1lRLLlYNDOIv/+mr+MXf+2P85Sc/C29gSPmuZN/FYVsr7xhDjp4HjaJjPpK5R31Opc3SkNq0fM14a7ev2X4cZI/VWPZAyzG/OvYFMxaIWRgGZxqzi03czvR5sroE9LlTObYnFXYOotXaK/t14YrLaHdsFMm3ZC5HALgj1k6+mFM1qkKuYERrmNwRy1Y/Iz8XU+6nowpfUK1TJStdchGiYgFWvgSraMpptRPD/LLneGky/73bUyFrVc/ydUEzfGAbFVkAVq+v4PtPHMK7/sdf4/7RMdRzg9qO3KImBEWzmbG3Fls68MIfVlogoYt7yobRjrlDIxg6+Xxrxbo1xylcx3Asf6A1unzILMg4K0u1UvEMEvPttA11lvXnPz+MwK3Z0eG/92SnoW1WoGGEbLFI5vFOl+Y4UqtfgTy95eLu59t5VJry+uhjqKOGsCoPnoBqO+cin8iXW8As1aViS2vuTaTJM6GA2KiBUYegIFag326jVqvjiSf2YOdDj2DUywODw0ioWUCdVb+tYEZZyfnXYynvBUMH2u4nMFqvugDoZPBQi+qwAxd9lRzCsovq0IkIi8OYRRnToQs7X4HPZpuBKTSJUt6tMidScOK6EHbvS6IAHmtS0zLXJE45x0gZAWn1XpIxXroNzRb40tETrDfZOd1mVvCRJe60S4Nlih1YNq1nq6XA6dpFAcrIdK2LWf2npyC/UQOXH3fLaOWHMOOufPNMbeq6xx7flezZvy/Zd2DvdUt2M46P7lj+MdrESuNOtjIjfWb4U7NQK4ASVr4kKsjhJkY9SlPBx9wCXmAHh9UoWF3yvHZtSMVdshDIEtcymN0kpkiNybik09TWK06xAnv/AeRqEcIBWnSeajNQC4HHkLdsGDUG04PKdW0ta9XGgQLWk2x/Pj2NqYlJbQKZL1fglooorVgNa80mRFPTcKgeRsvXlvMMek7umKx1iSYXaZnSelYaG4xMYilXRoOALwsDAahILdw8wxrr0Gn0yXG76IyJhU/lL78Fu5DXBcZvRciXqgJWEYoEYdkWxcrJkbXjjmzPaDZQ1IhAT4o0pTBZyMoOBmkT5JRhAtXiPXxk3YgzJbUUbC0zH3geSghkeD+2tUlkbIUIPdlX4MAVL6Ru+UjKVa3o89gNgZ0cVPy9o1V4NkM2XkGsd1lMClX4ct8DJ8fXb0LkYWhwIBWCT26anBy/aWpqhn3r3jwyMvKJY3GXftTG8gfanjGXWU0naFrXrvX1KfDOjR4O6gtg9PJouwbOEhWPsRqM2XWtBGMnWgqDh4GWipINkB87oJKFOapFWW3tkMDRK37T2+qbrczHxsa0Sy/7lvHvK4aHsWbtWgzIdy9fhCNuhH/idri3fRbJyIg87HmxNB9HwdkoW/aX4KwWN5isY+sgnhu1exvstSYXN18qYKbWgleposNE4MY+oFVDa/IQmrVpDA5VkQvkmrVn4fGwcwK+eQ/edANRIYdIwM1q17SNDhE1jHy1bq08F35XXfUk6wnHxKcs8m48/7FLF9d4AQdzrve58UpsI5rEuZybnEJHjiUp96EcVNS7YOycm2NCL8laE8lL7aoAa36FWrGRm4dHQfWgri1+avVatxFo1sNt48aNmJycvOnJJ5+8SX5+4Twoy3S8aIDWuFRp11SkdexppY6bWPNiJC8skNWRNoxM03bdJoPWksQv03CFgA3VneKgpSR7y2UtvvytMYnO7H7kVm9Sy0/l9DDXcZYNINmeXB48bX/OB5J/48O5adMm/V4sFNVNj1IlqjgU72LzGSg0b5JtrJHFLkQnyS+dkMsiz5/NIJXsQMtePAi2SKcY9/TUrABwgGpphVjykVarxbl+uBuHcNetX8Cjn/sSrrjiQpy0aT2S+iySmTrcYr9Y61SDCzR5GLB3F3t4kaFBxgI9KLrojpllTioXw2vD6iyPZczz6SVJ6s1k5IDuy5aKoWs3DH0hUdZGxxGw7xtCTs4liDqIKQZD7rZ2U7Yx3Q6wd3IGG7efKmBaUiYIj8KO3M5iywAAIABJREFUxIvxTcFCgpLmCqjmxcaeWa833lveazYF5XU7dOhQMiOey7Zt215gD83yGcseaHtFq7udU03Rt8bD7G71TxrDtdI5/oLD2jRJ1I3jppVcS1Caqs6/WHOBgCTdeMc1NCwmp9RYoibCQ/cAJ1+k/b9IaG8JuE5MTGB8fFxBlr3GCKhsg75ixQr09fVpt1YS8Pk37fBquRrP1FbmFNvedjrsygoEMzXYA2JFWauhtbA/9AufKCE/L5ZcR65DWRaFQ829yKV9tFavWqW1/gyTUHSbrV+sIMIZZ52Lm7/8Nez+56/jXf/ldzE0lEP73+5A4yu3onDqGlRfdpFYlxWxUAN9P1oR4rZvgA+pB5FYMO3CTAiBYi3KvkiPqzcmm8VxM6vAeGcaCIf2HWNFGbQyQaxSG007QGHlMHJxAXhkv7w8CX94I2Kngv/90ZtUhP7Xznu53BsHuU5Tn4Ws3RCLKrTNjW3uH0GW3ZU5sk7Kpr9cokBcLpexd+/ehPHvrVu3vqCenOUwlj3Qzg3j4tpWZr8dXvFzeDYfeM7KWUs8DsP9VHBmyTi1PosLxMWP/fScTeyaoQPLk4e346J0591ovybE1OgkDuzboxYOHzSC6SoBooGBgS64Zn3GaBFqq3SYOv4g7KjbzDgljeVooA+zp78Mpe/fjlCsLy+uqKAOO7X+MId2hGCXXgqty88H9u7BVrHEmZerDg+h2WlroqhYzIll30Axl0ej2dDzfu1rfgL/68Mfxre/8TVcfcU1CC57GQYF95of+ij2vuWDKJ93OryXnwF37QjsDesQrxiGxfbweRZmBFoByLANwwfsnmExQeVk52+nyTJj5icpv7jb2cIyYjGM/caeY0IHFK+XYwsnfTiPjKM5+ijaX7gZ7oo1KP7ue+Cs2o7Z6Vk8cmAMl19+KQoFWRzGZ8SDSbSPmREas7RMmOXancRXlkYQhNoGXptqpn3eslARAZhATAuX73nkkUeS49bt4sayB9rDwZNWYJCWtnIeGDk6W8U7TI8rlYlbquDnEo45kIVB2GcdMkg0Jqsta/hNQDZuN+WhikyCSOPWsenOyh5TLbIBxJV9cKe4vm2xXmvq4o6MjCi48uFScCVYpN1y57cjN2XFBmBNPzIoqIU5ebAvvxrW3V83IQVWkhWWijqlzd6RNkKbY5Qo51csa7etVDrS0EI2gqSLL9djemoCp2/bjD/6wHvRL5Y5iy3Y9oUZ+iAUsBXLLRCrrcyWMZGPc087DTvOOhNf+9pXcfZpp6OwcQTBFZeicsmFiL7+r7D/4XNo///XiyVMEfUSnJUrgRVDaAxUYPX3Iy5WEPdXUFzRj6CYR7EyiKCviN2VErZbY3KdCubYbeYRQoSq+uZhV72D0XYd5x+ow56Vc5mdAWamURMvwxmvIZmdhn1gD9wNW1B681sQ/tpbEI0MwuN5cFGVbZ14wha9RF7eNddfww+GoZOoeW0q+kw/M9t4JemKn91iAqy5x+b68n1DQ0PYv3//dWvXrv3EEt3MF/1Y9kDLkVmyqvdqODWGFqOKyJb2qrJSl9xGlP55aURMlnyYQFz312T+n55uJCbjbinpPtLy2EQeOmU1WFaKRdl5x1pBxcZ8DvUOoik0770HG8+8ACeeeII+UDEz7mLNUCmKyg1HZPKnFVga7kjDjFa6v/KW7QjXbILr70eH/b50MXzupnqSpgytbrFKihBa1myj1WpoO5wotDQ0wgDM3l27cPKmdfjIDf8DZ52+HZ2wYz5DcZuUmsEYtWnJnSjIVAUsX/fa1+GGG27At773Pfzk5tfIwiXXTrZbvPpqsWYFcH/vrZh5342I/vGf4B94HJX6IblU5CXL5ot9KMpi1/JnUaYqVquGb5VX4e5SAb82u1v2OqDXo80QUWQhcFpY4ZRQEwi8c6iETTMBhtBGUGBX3wJKcitLzSnMCggX3/gGFH/vnYhOOYPKwOIxGDrbrAAytWUZEuFlIYDOld7ac3NlIY7LvEnWG5rrbUkvlu1NBw4cuInb3rBhwwvyUXohjeXPo+2dI5Y1FzbohsESlZLLRJ67TV1fiAUOz3GoIEpKx7IEINkqBWEq5rLAKDFWaxmhZ68/D+v2L8J1XG1AyFgcHyImQzSBFISLOxgV0RGwL1XQfsk5WuobV6wliTnr5hHPdYtQgBVrnSpaUQCfojliScLOaXNMejpjk4dw2Tln4pN/8mGcefJWtMm+SBae/saFjs0iI9fgNLFqL7nkEnzhttvx0MOPopMnLddCwbfQ8ArobD4D5b/+CFZ88zYM/tZ/gX3yObLLHPwyI6qTQLWIZHAtgoGqfA2iM1JFZyCPfFWs34EiMNSHcLBfrOF+5IZXI+ivwh0swZaFYnqgDKfch+EOu9FOwnFnUb/qcnh//1dw//eNaOw4D7aAOiv42MacV0MAUO8bPZIkExhfotEbNmLsljH7sbGx65ZsBy/SsewtWhXXTldaK3XB5uOKkwZok/S/OWX9F/5CvJgjzPphxR1xNfkV+kapLG218tRtJ2gEHRRLnurYVh6+F/70FOz+Pm0CqMEXzWIn2uhQXcujHAxP5MXCYurLPvVsRLfeAjdsK7AvyVW3kvSe2kYCMpWhZFPIWtNXwGmrtqqHx3c/hmteeiE++O7fw/Yt68WSbSsTgHn4Dp56ToxNE6h6z/fyyy/HPd97AF//8lfxs2tXwckX0BZwy0eeGKJN5AoltHfIgnLW2bAO7Iaz8wfAXd+Gf/M30XrgLgFlWxb8QTFwLQzGNoqeg+nSAPrb1GVwUJIFQRwLsfoLQCtGoxSjnovgdSIUkhC1s9aj+GM/h+DSy+CccposYIO6mOWjNnw5RzcpKaeXDwCBlskr2zbzIfu+VCNjo/A6qTdp2zcdPHgQxzm3Rx7L36IFupSuDJbmrNoeqlfqXS5nQ/ZIBUVzhUWJciljclsj3xDglbi/8G0mBueLnpbYRvkyovEDiB7b2bXkeP3oPjMxkmWkj3YQB5l4ajfb8NZsQXPTNtgTE7CcJVzbu8pnliaZbFlceO6MKXdaTeah8OjOe/DSl5yBT/zPG3DySVu0c6xbzGtrGzINFhoaNkmtQCYFudiccMIJOPuC83D77bfhvnvvhevllc8a5G1x2T15X1tAL0BBQD4/shntK68B3vUeDN78j6hMPIKDN/5nhEM5HKzVURXgbNkhHnILyFs5RDkbgWuhJotbK6rLvYjxRAlKwdrQFoC+4FzYH/0TlH77v6J61qXo8/oo/wvykdsNWbxqPA82UzRzPQNaFRrvUexaqsF5wYWIX1lsV675TWLZJtPT09ct6c5eJGP5A2039nQEEkGSmJO0Do83LWvERW9xRo/8XcTOqnWxZDummkupRVli8KkjDkmej7TzqYUiPAEg65GdyMsDlMvnullnbXuziH5W2fEF4sr327L96gDi8y6C0+pokmxJRmxoUxoZYDhCrHcIyDoCvFwUCrK41EZH8es/9wZ85qa/xEBfEY0WO+K6CBs+RRnQyR1587TWCCLFlG/Lce2PXY2RdWvw9W/cgfrMLErU4aXXkItVbzgIA7Q9S3t2Dci5FuVjj8l2bv/8VxF+/Fa0D41joLoOq+UarOs4uEe8iN0CqoU2qWc2ynLP1voWdst1m5T7cVGdXWvbmPjXb6F5wY9j/0++Bg98/uN4sDkKsslcJ49Svh92ISdWrdz7wIjgk5bX39/fBcHD5v0SDL23cl68zrw2Gf+WQ/Z1086dO5f507X0Y9kDbcJqllzBCJakr2XVYUircZBKE9qpEDLSB3Q5jDlrdY5xqfHl2NTTx2m78sSnNdcU9zFKXUXbJP+s5IgxWpvq0Izrsb+LE2pNvPXwd1Bn0z6Nf1JMJtZcWvIsJK1Y+ODHpgbfueBStJ2VcpwzCGwBuqCoxP6mgJM2qLIXviGJZQTSD6vb1QSPWLACNCxJTciUaMyKFSqWXVJA2Ja5cGAC7/r/fh7v//33olIo67UgbxYpdUnj0k9DM8sqpLIvAsnI0DBe+9rX4fFHHscD99wjl8d4TFQxs2n5i2dQ9EJZ6OR48xHuvPtb+Js/vRGnv/23sfX+78OuyrE1W6jIsVwpQDXpt/AlAclvFRK0ZEv7ZHH4q0oZN5eK6JcNX9lqy2LlIV+toOrm0Xfn97DpLe/D+E+/Af/nphvx5fseFq9B7pvcxlKSl/soACjA12q3sWLlSj1PMxeSBa3aZwvA2cJuxPatbvVgts3Vq1drkcOuXbsSAf3rntVOXmRj2cdo0/4o6AolZrHYZA6i9BlmHDdOX1ui7qc/rPGURyQ9fC0vTrk4ceAjFlfYMWriPeD8NOdJSzDvKomelUxOtQT/wR+g2q4JCq3WbH3Lb2q3WjYDX4wtymUvCNooxDltn4L+AQRv/Bm4n/4LWHZVth8KyEYolQcQsipJrEAsaDWn2XGlpFnmZ1b7lQQ8OzOyCLA1egAnEne/XIUz/aTsz8ENH3433vL6awXvXBVS6WSTA4a66mTqK08zekEkK4a56KKLcMcdd+CrX/saTjv9dKU6Nenutx2xsAMVEZ+aHcfnP/VlfP2xh/Cbn78V6/YnmBkuUOQAOTdAU8zRIfE0Lu0bwhOyQN5eLOOuqRYiMYGLVQ9bJmZwPqj9GyjtrGgXFNR5uFbVwbnf3Yf86MfwV1d+D58+8Sz8jBzHSeedgWG5ljOdloBtqKGD7Ljnn89zHfO3kV2bLOSSlWzn83l+Px6/xYsBaOeNXl3a7rOVah4YizAT8Hg+jm7x40iHyY6rChYCMkrhEqBdbEdXZu4jscJsPzZcSgHdPrG0pm75Z1Te9Fa44pu3rBxyFJCJ426y7WiHhhzkgWvHbTlOAfTLr0Fwx5dQnG2Kq1tDwS4ZfdpQS5SOsJUIWbGfUtRs04jQ8WvwBVydWlvJ+OyFFu9+DPUTT8F1b/0l9L3kCrXy206gZacW8os69oUG3WWCx1VXXYWPfOQj+OY3v4lXvvKV5iFizLLZxm13/ju+/rmbMdVfwavufQBbDxyCXZFrKN5DmIRoMG6OgiwMMS5rTOJgs449cg87V74czY6NbXd8DSvLFbmXEUbldpZssfyDEJFnxGQYoqgN5HDy6Dg+dMtd+F+v6sc/Tk2j9dm/x8XnXoIN6zagIxbt8PCwAh8BzyT2nrpMLlXstte6JdByLtGa7knI3SQWLgtAPrEkO1yGY9mHDuaPbswyS4nx4YwjA7Js9626qEd2p5fLIIiBYietpuoXUJHLOoL7faSRZL3TxMXP54oIW7K9PnHHv/A5RHZHSe4Ju6ayY+oRgXDhoTX+snk/11FOKuWtcuS1Xv5qxO1pzfjb4o43tDNr9LR9uoy6oxFtyTRVqTOQm5lCXBHruNEARvehefErkH/3/0Tuwitk3WnB8gyvN4fyoo79SIOARRGdHTt2YPv27fjsZz+Lffv2yfYrODR9AH/6v/4Uf/TBG9C/YQve9pIz8OpbvwA/qWCi0sZ40kKJceXAFphtoVXw0JwJUbCqOLk2iXN//5dxxS+8CkPTB9Pya+riumBX8IZl4p8sOJmVF/KJWM+kbs0cwC/c9jW89YpX4LVv+iXceffd+OebP4/Z2ZpS1DgIekzoHcuRUciyBGLGSiBFkHFcLk6M3R7Tg3iBjxcd0HZHGqPlN0+zr71/TJZIrOX5GWrciRXkU+DFb2vsmYvIYumScVqKSUuLzr4rQOIX8uivj6Fx57+qtZvTgEGsxSCLGqmbHziUKaQGAgVVxMU//2Word4IzAaIHTYrTIz+3xG2b2Qr0lg7t0nyfVvc4/aYGMlire3erS12Gj//m6j8+vsQ961AgUmxnIC4gJtL3ZclEvLOSpKZIHv961+vYPLtb38b//ad7+CGP/wD3LvvcbzlZ9+Et73xp7D9I3+N0CvCKYYodQpYEzlodVjm6qAZl1VNzLF9WM1pxCfsgLX9MjiXXILopDMRHKojJD3PaqLoiRvuyF2gYJIseP2WyeCp+96/CcH+PTj1g3+Kq9eswof/4A9x7RVX4cd+7MfEVV+liwJBr1QqLsn5H2lk2ggcmaGThVxyKS2Q12z37t3L96F7juNFFzrojdFm9K5iwbiNUWASReoBW0uU/T7WYx7d14RDBMDqdaiqqpvq2D6LKaxUK3n4HY/aByHCnACrL9ZSJULpm3civPBqlMW1b7m2Vh3Fi6nyIKldNu815fhcSlV2kGsX0BSLOf/mX8f0B96B/o4ji2CIwCVVCN2+aYeNKIvBW6bLLLmbpIxFeYTTo+icfS78N7wV8TYBKJYCi5sdujHyUVU212bNggDbFPJWafEXaP71SkGEVuKWLVtw8cUX4ytf+QqmkgYu3nIWrn3Vtdh40qnAP/8dZr78JeTLq+XwQ41xU3g+zMu1DmVBk8XLDRLVhQ1be1B959t1MWoOrUf53W9H87q3I7AHUQkKaHsJcpRflP2HnumKwOIRluo2xTr2SiM4dPu/oPQbbeT/z8fwqte8ShZc48G1U6obtQuyuGpvuGCpY7aZRdtLKaM1nfHc5Vje/Jx3tkzHi8CiZWjAKOJ3e4dZhrxv2yZDPcC/2662X6YIsinTfWG1K+llFxz2Ioy1F8pxhxT6oKLSxJQ+rFbPgmIyy4vbp2m7TivRbCsXGbkIe2Q7vP1PIHryEVmUKnIdc6Zb7OK2LoaqrQk1o6gm1rJDgBFLdstpsN/8Dlji+jO2alN9iiEdcY1DOaaIIM2HU7sECFJ6LHJoo00LvinW3sweBA8dQPOX34X49/4c1ZPOQoFxilag3GEncWU7HaV6RQJMSwGy5oxSaQU5NsY+r77mGlT6qvjVn/41vOWdb8P6zVt1cQlv/Et4dhFWAdqRl9ZrHMWQ5UTOi5V7nlFUa02jum4d6lecogCaY9n4614P96ffAG+0jna/JwtHC42oLu63o5VfpZgx80jnNkMQ7ZJA9OAW+F/6EqK/FCu6E8GT7TQEjMuyQNbtCHm5xlmVWBZHZQw1o2TR+MiEY7qaB89iZJZtL5hnv1Nqs1wus2z3uiW4FctuvAiAFs+ywOuFlw1bmF0gDwYTITQMWx3Y7H7gLlFJJRWcHCMGE4Wm0aLDbHWxD9HsQRQfugezLDelJRkHS7JLFZwR8Mhf9FL4V78JweSoLB57jR6DtvqmVoOAJcGVxQX5GH7oC7jWkN+/y7Q5f8mrYH/603CvvFYck0AAeBJB1IRDkZxjODQOmbIfCBwU3rn+v1+Pl192AQqRPErlHKxvfBnNe78r1mcOAduyx6Y0OqOvUfSGFmcsK1pjehLhdW9AccOZaIVtvQaRV4Hz6/8B/olDsEf3/D/23gPMsqs6E10n3lSpc1ArSy2phVC2MDKIsRDBYCywTZANVhuwJZLfGI8Jnm9mcMD+7Hk8P4wHGGBaDvPMsy0MPAw0xsY2iCAwQVgoS63O6lDxphP3W//ae986VV3Vqlt9q6qvujaUqrrq3nP3Pfecf/97rX/9i4JylWqqShHvLAb4tUedJjVKZXJTnxJevKSLrc/nrValiU/dTdGxR2mcF7QqwkCtmIaSgB5+/HF64IEHOqXFYLlW/2rjqYijIjSC0atKsmIIAfFtxGwHBgZ27dmz54wLITwzgJZ6X/2y3GO+2aMFjDLeBdRuEqEVy+wGh4t9TVdNKzIC3Q6c70JmWgmVqj61v/olZk05YwQzRLdHHgUKySBPmkFGP/0q8m5+FU3VE0omxyVMoND4kcqi4SUUCjCDDR5/hPLjoxQ9/6coftcf0tSd76V4/UUMMqHgl8db8CAti9n4Ug4k5PLCFlwZR6w8gclMTF46Scf+8AMU6kopnZB1tK+w9Pay8jKPAQ3FC2dtIHrN68mbQskvdLA+qahN/nXX0eAf/hdqQClx7DCl0DJHMbVDBizefQy1PKkaa/PnEmghHfkD68i/7z4q//XfiTNbxAtQnRceLKRl/lyRvMPiALAt+swC/AC+Nv6Mf1vHrlM+X7PuSetdDLtNWC325EX6ZPQ10Cbt+JkXY541cp8ZZ6tNLt8kWR5LnNRXvQl7ADRSdIn1fPKqzGTLFUoAurzlTIIauU8+xjfvNyh24C/bG7aIHX4UQJPb5tetkXrNHVR+w9vJGRimbOwoqUNPkstfCUIXU2PUnsqo/opfpPEP/m9q3vlfqbr9WlpbqfJNm0v8NUIZbMLb7tSzbdeWbFiNqK3x7zBAGIaHZQoefZxo9z8TlWv8WF9+3ymzcHRJMnTPXpsZrc9g95/fSd4FF/HDGeCSjNJGiwZKiEXzDuOnX0tb/vpj1MK5mjxOpZEaVetYVAZonCE4oEQvwKRFGI4/TGF1kI79/p9SrTnOOwJPWGSS5bRh3QYaGxvbyax1pwVZvBe0JIKJuzVwB8hCkmXfVy+GtWC0DBrHxmvB65fndHvPXug0H30NVGp2VLO/Se0JA+/Oa7WQ1WD2FEtYWcppVW/6weAGdUPefjJwEYyxlbGT9FEAUKaBapUO/j8fo/XvuYTy8nBPJHExwh5RRjEz6ApiqVFC2fNvIXXJtRQd3EfO6H4K+L1mlWHyNp5HdO5Z0o235oTSaLGJZFLEiw8Sm3z1lqDg4q0zvGZzsXNcuvCBTqRqbWqHrTFoRU6Dqu4gNXb/C8+rRWGwhbfvHpVgyGOuUp9BF4tMhuKKVk75L9xK3i+/gxeTBiWVGoVRg1TITJRB2MEuBk0eb3kJVe76ILV+448o3vsk5euH+Nwwiy2FFPNxUOmWJkrYbcz/y0tV8o8fpvwfv0LuS3+Gqs2IEJ6G+gBdI9asWXMXgxuAbpfZ1u88cuSI/IwYLkBQP7Z3sFBMkBVZsw1jnCmjr4GWTreM1qmMudQF+FWjydyFt6XMbD2l+0fBQ8CfK0Pf5UDZqGO2rLkxwPLFUzbR7awHa7R2z0PU/O43qXrTy/nXp67HDJycAadMUZNBK5ikNn+Ca2ABuGYjVddu5Dd8vWx3/VwblPvi3MJAiiJVF83OTfvvSkwR/wvuWSjWaDEIB26JOi2BlmLARyGJRc8KhiaxTigAIFNrNSn/13+h2pq11OBFocQzdiG5o7xTOo3uwu16k4KrzqPwt99NPsrHGWTTmDlqtUxlXlMrXkBNdNvN2pL8Kv3ML5Bz6XYG21+n2he/RenIBmavobSyqfHn1ogzKahruZM0BJkbv+7YJz5JIy97JeUhz9dLaO3adaYlDgnY8re7Cu+q8/OBAwcUKt3AdLv1tphr4ByBVVtWaxUbtry5Xq/vmjWXZ+zo69BBYFZeT5nbax7C5SpT+48qI9NcYT4v0hUbubEWA9MIkKBISY2Ool8Cgx8DYu7pOfPkuwVZsUYwzArglUvpKTOm6gDsuyTjjf5WnqmiI0RksC33qlRazzf2tz5N6eghCiElM2oAcmBWwsCbdldxlfP7SPi5bsis1SlRNS8xYMaSCBPPA3SRhasWkjwwyVGxSKN0sYJu/SLTzEM+D3zj8rEyXnhCaSi51AxpusWL7akFr4kSDZN68glK73+Ez+EAheWcQt7+p7xgZMzA0RQT7yVq1Gl4S4kqH/oYhVsvpjbeDjN6L6jyupGKKibh9wrrCahMpB8QTH22X0fr/u7z1Pz9/8rnLaTg2FO86EFL3JIFyXWrfHxevAL+bIe3Uu2R+6k9dZBBrkph0xc2jW62T/fuzjrrLAcFGOgNJ34QJlQy289gocMm2oo+CPa7VW6cKeM0Q5suh8J19gyJqfuubpqH4oM2g8xEnZIe7YLBAOWGgayHwcpD65pqlZmsN6fSgUqBeCcEUCXwljJ47DB5P/wWxbxtjYNUmJoTM6wxEIfMNM+Yoebw2YQ6DqT6qX3kjk1RXg4oynKSIEaEMAKfM5QNjx2n6pU7yP3bv6Lgykuksq0GNuprD4nUlDdPy/XM4RmkQ7BbXhhrb/8NSv+/u4l+/S2khkcoPj5G5YyZdDJKQ2CsiUclRmk1NkrhA3uZ6OuiEBW6wlIXMtB4cXx8fCfkXraE127xe7XVt++P2TXde++9v9uTg57mo6+BVhMwmwVe2bmc6gDfFBlXs0002ZAtp7dIPeMJQ1LeOE/YezPIVqrklErzehe0XUQ6PW0GU8+pCovBu/83tdtPMXOskRcj1lZmEHCY9XbnU9vPo+OeNkv0j7orhxltMjnGoBpRSVj5lCid/ahN1X2Pk/uKF5J395+Rd9mPUzv1xIc2rbjUcGMK+TwGydzFA+h8G7klCfFUIZO68nKqvv8PaMO9X6D1H/pvNF7yyT10iMr7D5OanKC8hb5oEdX3HaWoUqIyqiJ50bQluQsZ6AW2adMmB/FaK83qparHanjxxUD+Wz078Gk8+pq753nmqWdIQD1ncPOavGVmoM3AcRCnzLzeODKgrTiE87jZKhWpCIOTmZQhz3H/BHEuoQYkXeDwBfAYbE3Q+P/7Carc9hvUYnBFIkZuYGdgzi4Fz8TRaYNk3bwc/XMTcdgf3E8VXsTa1QrFzFbLqSsdJg6Wczp8x5209u1vpXUjm/i8eTSYuKIgiVIUF+hjwFlxrpvRRwkzM8sHH95DX/3Xf6AfPfJD2rThXHr5LS+ni29/B/1fo8fpSt4N/ezxmEo/+B5lo4eotM+hwUOHKU2apFLIHUp0+PDhrt8veoEhbot2NXi/NpxwqsOGEwC0O3bsoMcff/wTF1xwwRtP+cCn8ehroFW5mpMF9ONAIQI1mhKTRT8qJ8lFQyttEE51IK7oMWiiV4p0wiVpNT4XyEr0Fm2o4Z7Pc1LVkMKoQmpdQENf+zolV3+d3Gtv1OXMvCDk/b0p6nLMylhiiB+wS+17f8D7/waF+9vURMn3OWfRZ68coO9svI4mgw0UfPTjdNU1V9Av3PpayqslYarDvG+AaXnbScgtuWjgfEJVFUK1B/bvobs+/j+onUR0zZVX04OPP0If+8uP0Hve85/p3LMupkfHRsn9nXdQFUWwHF9GAAAgAElEQVQnhx8i9+Ao5Zu2MqhXpEkjCly6YbTFgbjtsWPHbh8eHt610PDD0w3boQHluVA7NJvNX+ZfP6OBtq/vklwpfxpo+zh2AMw7NinZ69zNRbqUe3zz9kjPmAeBsFnXC7TFQ6qTgnNMQw9mUWgNEzi87eTtYwtlm7xB9gdCauz+JFWmSLa7SKId8ts9mWM/jPmutAEGS++RfZSdfQENv/2dtOaef6bjP/g3+vvNr6L1Z59L73r3G+nGW15Muz//Zdr9wDfIZRorUrV2m9q+QzEfsBRNf9ZFrwAocb/z7Xtp75H99OrXvY7ecNtOeusb7+RrhOief/oX2j68gVoPPsG7n5iyMKFk67nkP+e5FGzdQhS3aCr0hFnfeOONi75B1q9ff9fExMROJMl6MaA8sH3ZEJ5AAcMzffQ30PKlH2ep7n4qpZHKdOvWnqWZaE4d2urHcmGn0I2iXSADSO6sbGwRZZkKHR/QgmVigoFQ6yyhkFCoGecFpOx3KbFR2oMld42yItU2h2gkKOYzyN4zkKOcV3L3rrbj01+Fljj8uFCMdxhsPZ8hNiePz1fE2+K1Txyg5O5P0JTb5nNYoo3IeoPbok7fR04voYZKKUhP0idmCYctH7WZ7WKme3YvsG5LTRF+kbABaTCU7soMGhlKbX/0bVr/4H0U/d57ydvxLPrXv/pbckZ/RD/90pfTttoGuvk519Mll22nb3zuK1KQgJCByyDoZmhi6ULAN+O1pi0HPTpyZJQGS4O0/YKLSPETh9aO0IaNG2j/gX20busGGo0bNDoxSW7qUpjxp8EALp8tf/ZlGMK7Drbnp7T127Bhw11Hjx41JjWntsuyvcxsg8dzzjmnj1nSwkZfAy1Bo7QA2YnD6APDZLTSBhTDsAStbVZkwDDF1cbdTotBthlR6vQoxsk3FKqjvDgXxEXCCzXwsMaaU10wPakFHb6alCkfLlHyD58g+scvU9uDgB+KUdzYKSV8o+dRiSp8nuNyszfvqcthu/ZiFA1ObALG3uTV6uKMZjqucIUvnPRKdYA3Cpm0agdkRs2GgAi27ChyKFfK0pq7Xp+S49h5zej5RjO7F9ifsb1uNBp08OBB+TeKDtCAES1jrCrgsccem9FaxsZBrYkMs9FTds7atm2bg/OL6jHpJWckbqcSvuPjnBGOXn0NtMrU6ethc8InjhZl1GKWZSufPOSa0hVaRNHRAKGCdgxaReLs3Is4rAwlEi7BzSAkhXYvIXLiJ/uYc1pwlVk5l1LT2sZzaeSvP0rBfV9jEPHIpyqVUergwc7PpQqvJOVF9BjrxZjLDtCyWwzLcrFl7ZVcKYFWFlVaaaa7XOQZXfnsZ1F9qk7f/973aKpepwcffJAefugh+omf+InO82arF+YamON1110nvgR33XUX3X333bRr1y4BOvwe23kA3qOPPnoCg7fHBTjy9r8nxtt1fi94HZjQYNhOuN0M25EBi16z2TwjDMH7OhnGH7hvRdUnG0MMDiUxrCNprY1MbI64WpetWXoysDOPYpFx5U4m3il+5swZM+165NqvlColytDRthSQxEuyfB6snUMUKl/zFESkzNDESX2YsmpKzt27qD1UoeCC66UpYJCkFIfIwjOjyiGU78F76nLMvumLgAP2Z+vti0L8Ux3o7BuiiwBauPi6auyKZz2LXnjzzfT5z3+evnnvvTQ6epzOv+ACetELb5nBuu2Yay74t/W+fdvb3kZf+MIX6J577sE2nl796ldLC3SwW3S8feKJJ2YUGWDYhcQuNA899JC65JJLFv2poNGiZbB2rgD8IOhO8G3DOHgus+MzgtH2O9AyebCgMP8N40nzwkQc6j1UXYmA31uZBo2NFhGy+UonP+QG6xng83FCtEStSL28gxhtrhmrMwtp58ifz/mbmX92aSJMaYS3xdmaTRQcPkDJxz5I9CvvoOSiK8htBeSrWF6TN9OUOb0zJ1nomKshof0d4rLYygOQwBAt4J76a5J4zkp3IdOmHG5cv/RLv0Tf+/73ac+TexgcN9J1114jiZ9U7BPzwvNnsu/ZiwCOifY5F154YceBC6EPvA628bBr3Lt3L9kiAwu4xWPZPl6n9j6dXbaNOc4lFi1bKdfNKDZzxJzPhNHXoQMyXge4saXdiW4SRtP/1YDiep723gT4SKM/R/fcWtLhTLt529cS278Wf0uICZ8kpNxULbr1eSdYYq9z3EilioQNYLoNoJU/zuolpoo/dP5RfMw821iXQTYpSabcbxyjYN0WKk0epfhP/4TU/T+USrPU84UPZ35KGuCVbjtrTcx7NqzFjdYDF/v+StzeAJkncWSP9u8/RL/9O79P3/rmNyjn84IbvNsdzVzxWfFy5cUtL9Tw64SiQyX+HG688UZ67WtfSy+65RbxHMjTE9nsfEBVDAMAKAGwcNtCrBf/bpkOCojh4ueJWfKrIpsHqKHqq6s3fOJ8duJ17cJgzcIXU5prwZ8XnjMidNDXQCurNd9IuMg901PKM/c1XObFQg5fKW483P6OjocqzUCWdnJ6HnnHZoFfr1GX7g4AeRc9stBVwHMW5YyjzM2sjM9DDhtDaCWhLkh1ny8UPThi1TfzRpgGaIO0Ulqam1hxrhURThGH9U+u2DOioSAvWkGVf9Umb3gDlZIWuR//v6n9nb+nBInHUpkflVOCNuZiep3K+wTgeXOAbe7QvPsRLRw58UYukZ5vDFcoXmAy89nGbotKruLXZyD1QpqamqRdn/4cveFN76DPfulrdPWVz+aPwxOFRN5l5V0xcVX8QhLMKVgBCjDysTH3FDsplOTyd3xZT9piAkx/FAWf20Iyz/4uk0SblkUVQx/4guVgg4F2dGxUyq0zs8srJtjw83333XdKW7h169bdhdbhdl7WzHsxQGuZ/1I3jjxdRl8DLZH2xLOynXyOpJIzXTc5+y9LOjHcXJCdOQHf0W3eQk81pay2F2ccM0dCDe1RcOM6fMF75Qo5YZcttU84Bcr8X8OB9UiYZqRzj6ASUAVhij/5PfK++BeU5NoLtQLpEv8vhgtVnghQT2UnxvPcuWsn9N9M0GNG4oi/6kRSQVelhKp8bOxU0AyxlFZ4cQulS8S37r+P3viOd9Db33gnfePf76fbbr+NKoMVqf9vo31PuLQStPkYcC9GMfQAxy2M8YmJEwDcDqs+OJUxOjp6+wS/hlVu2G4N3ba+sXFdYzqzGqM93Ydd5ee7TfUFpzqMzrGo6xjcXcoQra+1sCip5WVf3LjEb6AHIQuZNt43gDBE0qssRQlyk2Wn+qaKz3c69FdKdudFQ+aptZiGvYsp++ynKN6zj/Kf+gXKzjmfz0ObKm6NT0EuLcwHQn9GD8a5ZE1zzqqwjcZPZexYnIqwSbEi9GGpWGcQKNMP7vs2ffgjf0af+/Z9NNXKaO2V1xNNjtFNP369wHaeJVTmx6l+LnIxA2AHcxaM8fFxMRufa+A8X3XVVYt+w0ePHr2dgXEXEnNIwFmWDcDsFsCLzRyzrE+apJ7i6Gugheogk22y6gjJT5ch+IH+VvWWVhcEjsRjHRPaONWRIfzAIOtKTNbXm/ss7xI65lltOtpkDbRIHpqMz5xHUWiImI9Q6h4nb8NGch76Hvk//Balz30ZOa/8BaqvKVMQMrt1fO3jUKD19pDzgfg0/prP1zxwnCIaROUaGkcySfaaU5Q8uY+c3R+nu//5h/Rnj07S1qH1VKpps+3NmzbQ9nO2UtzORIYW8S6jXA3m01ec9sNaEAKskGALSyFNTkwaEtEbNUVxICQCaZeY6FQqMzonLOZYNlkHE3I6Azxp+zp0wB+6O7vLwlyymRPK05eDyaAYAf2YnFQnvXL9yj2RceFIKEZgJguQzY13waI+zDkQztXGtYJycjoBtCerUgPgJQ1ql87iH1tUbqf8lJTCT3+EWm9/EXlf/jsKMpjToIENnw+bmJTqJbu9OMmuBCxNOqx6+nn8/PXMkhGWaeRT1P7eVyj97/+JSm97BbW/+4/kVALyKhvRWoDPU05pq05X79hOm9cNUYo4cxhQqYQGhf2b8S4WJkAJMDQ4SMePH5t3G4/HnUpTRGsqo4su6qKjtRKtbtUMRX9bqCfOhGaNfc1oSRYKYwRNGhTQ1oNIxxklzaRge2K27CIRzW1iundwq4xYCoYtSMtEbb7JI/lZElK5ro1FKWTXvBt455rFIdftwR0/kLJaQqWbqCjMJthxupesaZpIHWbbcaiiwrFcDXZ4PTAYhBGskkHOI19GQU5V7whFYxGFyEi6VaKt59DIFC82H/o9an7mLym44YUUXnwFpeddTAFvd1OpWAPT10k4MSfv1PiTYf+OXqSQOOEf/HaLsn2HSR18gFoP30fhA9+lypNPipm5v52PSyFF+1saCNYOkd/M6WCzST92zeXio4t0XJMBuAbDFZid9ynVKMZ7wTDBaqempsSDFtv52YQDyad169YtOh46OTm5C6oHACuA3Sax8DsrK1vowDFsLBmfEyRrz/TR10Cbq9yTjgHKtKmTyi/XZKpxd6ITaSY/J9IyO9XluK6ak+kuahjEFi0sXh8aWXSrVaYrQK6jxNNLQpfv0dWLiGeUWgrgVOP9sOGvTvGG6nq7OMfjTe6ro0oQWYP5hQAjXjfVgIjzzuCP3l1woaKJFnnwYhWlRSpx3XykQu5gmQbGj1P0939BCZ/7cHCY4o3nUvOCy8i98mpqbNlE1TVbqVwaIJ3+mv5oJpNjlO95kgYee5Lih35AzqGHqfTUPoJ32GCU8WcZIBskixj6qakglQ4VZcSN4ya1Ul5umdE+74br+G3w/FUi7WKSLJHuvv0+xHOBGSUkXpOTU9LiHOBnGaOVm+E7A9yitumtVut2lADjuFAZWMUAhi3F7WbYkIPtW8bA/bxu59Rvo7+vNOntos1kXNfE+1Qh2wuOxP9eVx6gAGiAltmBI+wn4xs+6MU+HhIt3NRoz8IXI5isYBG2U3kPdkRMubwo1U0TyyVSlbI2706W0QPWqsDiVEIVSPShuk0WuJKPwn5pk42uDKJTdhyddPK1zR9kVP7gAJUcRFR4O58xGDzy71T9wXeI7v4LqjEjUsMD5A5UjZm7I1pjFJisa05Ro9mgcGCQGTMzKoQdhuAixSBb8SUuDcMgn8+JJALN7gILH0AHsdjtF11A27dfKn4B0udLZFieYVZ9SmlpOk6L71Ae7N+/n0FwOhxSLFzAAPPcu3ev6sbEhZ9z++jo6C4URoB5dguq8w3MDV/33Xffa6+55pqX9OSgp/Hob6B1lDe7ikaZG60Yw5I4IHSNuV5FsZX33B4FDgzCOy0G2bitmTTigL3S5idGIA6AqFUkbCBltUs4ZDPgOIVQRC7nTPIevmv0ywx4SocyCAw+1YuBaz8P3OCIG/uuJJwgRYODWNmvahPyEX4/wzUGSma4uS8uWABWMjFZxwlJLK7WVamyIZdQhWJm7TslypRPnhPJ1DKJ3Tp658DnikLEfn1mYTGtqXh0fPwp+pXfeG8HkDAs2+sVaKzEKLqR4Wvjxk3CNlOzAON3NnZa1L2ic0I3rzM1NbVrsXrZ+YZVKVQqFbQ/Xy1YOO2HEqWnwQN1QrZVGUF+k9lRxFvbRET5OvPv9girsGVWUYvZbKQbF4a+KYLqTXwf7WJUqSQgi7ABjqvi5S1tlfAEpDglWPAlop6gashsVVF6bIwBLpHzakFWQgrG4MZh8IPVooACz1tE96ZJpseLhs/vLeFdRlZjYB2pUj5QpqTsU1T2qF12qRWUKQ8HKOXvzYpLzSAmL4gE+AHkcGTzYYvJx0ZyDDcxkmZpptUolcCjV9/6shngCgACcPSi0+tKjqKsatOmjTo8UKjcwrm2QAw2i++HDx++faHHr9frt+M8Webcq/NlY8jVavWuG264of81dgsYfQ20uLczxAFzHZ+zTFbXJ0x/fgEzpJIfUgg26Gof2NTpUaITSYFWnXJcg6iYSk077B6dWafMW+JqVZismzCIAGD8FfjY+HQFzDgzN5eqL4oYcONUcmQWwCQWaBKPLp9jMFhl4rj4eACAvlTt6URlFCvCmhG42pBcRZlEd0LHoxKz0hL/vgzfAER8mjnV2gGV+PzGeSLxYvksAaiZjkMq3xFr3Zx3Lj6Dbqtep2uv2EHrBqqSR8RcbCJGKuB65pq2/GN2AQJKc7EeNhr1zt8xLJtF0gmgyYC7iwH0uqc7Pj/29iiKdiH2a41kesVocTyA9pmgNrCjr4EWO9PUbHOdjk2KMnE+1LjrC7EKKQ/pNttyY/Lj/UW1GxetkxgqQ1uqoiY5zYbpvWUuQmPi0m2iDexMPA+QBjeyKgdxx3JF1AxubmRXiqYz/ks17BY7yzvMUTSb2JWicy4SXqNj0nrHq5X5Lh4Qg3EJzajcnH/Tltum9ZXusUXGRAfrXOi62mAcVpGoYtAZOBNbN3H2rEVoJ6DQvsyFhI0ZLISzKtGftKghAgkf5FFbhxwYwDNG5yYvgi+55WajSJk2VdHsrHuh/XxDs2j3BDOYouesfdxipVCzEkgz/87fBwd1l4JGvTFDkWCruLDAID5tJFl3Pt3rIi4LvSvi2tokJ+i6AgzDhjeK58acj53dun718+hroFXCXyyo2TJRZZI3jiTJMNqTUxRHsW6TjYoWNX812fwvpr1v0WIGjEk1W5S3W2K3KDFFE6ZQVinVrcrK01tuGMEIJ8f2qqpB1mpabTq+V2R83rl0Km71azrSu4rfYxiQ1+atOwMsMauU947kHwToUJ852lsB5yPPTVLKnueiekyAQC9IyixSeA1n1mN1WMjXAo7OfFSHOXudUIUUN2tfB2avCEcgaDtcqdF1V14hJkJF8JkOM/XmfCEbD1OXYnjCgjj+DSmUZdJJl+2JLAvH96KUqshocW4g8QqYxU9OTc0ANZsMA6hBAgZfBP73V+d7vYMHD97+7W9/W+GxmHcR5LstTgDI4xjFrrf42UjN7kI/sq4O2Mejv5Nh2LB3NKSW0Z441q1bS+WgRKqdaKzCjYDkTDcfsyRo+HkQ3McNceESbAd49+COVUZdICADZUG5JIwWybBlHwbYBTQNA5PzlkbkoE0K3+yZp3+J3lW522SSz2AL5y7IfcDc3LxnQDb3CLTMBKXNsgDy5xDWKC2jUiynePIoXXjWJrr4vLN1j7S5Cll6NAAcYIu2NYv1vbUMFiJ/DHEMW0QnWWT8wSytwH921wj5mS/mUliisbHRzt+s761ltIWuCLuOHz8ujwPg4fv4+PjtvFjswtwuv/xyCTNg4H3Y53XbxsayaAw833oBr1+/fucDDzygLrvsslWg7Ych0VY17WUwG2eVkXpBxJ3loWy9xZ+VL0IAA3Xj4OXo2KsLcXXcFvcnrS7rTeWDg2wxWAgu5mpZqwuSFQphGU8GZVuj4JyBzUxNao0t2uXgJhbmDb1qRH65xuc0lK64Kom0cmEJhyNdjLRLGeR18HzwmMFKnzj0MJtq0LWXX0IbNq2leIlb0he36ZbNAlTAIuE/gJ/RCcGaj3frwQpwAmNFK5tvfvOb2NbTRRdfRDc+98bp4gSFtblELSYAs7boMoqdJczfd2Gux44ds4C9C6CIL3S7teECu3BYVt3NAjU7hAHwxqLz6KOP7jqTQBajr4GWEcBzREc700S5oDuQ//rwo8UWXMqNPGlgmCXMLrpJKiH2iIqvOm8R4V0g3QuU1m72oJUA1AVgsTmz2RyGypg62MoKJL6sYZcwWoAunyvFYOqmCcWeYSeu9vZFIYjPJzZFs8MSwqVgMMwoowzNtJdujryzEK6Pzr6IPQYl3Va9HQnY5K0m3XjDtfyolNdTBrgljGtbcLVABgYKTetH/uf/pEOHDvK/B+gVP/MK+g8veAG1+BrqxgfXMkEA4kc/+lHat2+fsNp7vv512vPkXnrNq3+eBmoDHe8BMF+MotWibT1jQwhWD2vCArtsWACPsebo1vDFMtgiO13osOwd88exsFjwIrOTQfaurg70DBh9DbSONGe0tUTzE0uXtGctZFEeg7ITmDr7bob4yU7KlhkJGWyZJZYZOD2JmToIFWBbCFaUKCkb7tWxu5+Mpq1aopXJAoNqNxV6ogDAG89M5j7IXZ0ixEKEwgP8C5IrZrjUri/dHBVinp70RHORMMQrM5P2+bON8lj0u8+/8cf5k4LJe8gLQjzTanGBrmELGRZkAUZgrgcOHKAPf/jDlPA189KXvlS6H/zN3/wNVXiez3veT1ASLZzR2mN/6UtfEib75je/GQbe9A9f/jJ9+rOfkZY51117rTwWQGmBdoaOnKgTYgBbLTpu2ceBaYJp42d8t+fHhkC6BVmMYssa+zo2VHGmjb5OhqWZ8iDvymz+S/SbmfFTnY7ZYosp+snA06l7pdkanL9yrfvRB9QH0fFe/NrxdfIr4ot3YkwARlpMS8DSZJbnmdsMc+jC7zMtkxBpEmYqroZgZRVdVgt5k81LO71yoJlvuNqsRYkiIzVlwzwvyK2QrWbgSusTwmg9zzcJRp3t0zsJMudB+0kgNqsAIsx8oTZQ6AyrjBeDnAdkmWet7bbMd55hjb9RhKDMgulgrjkvduUq7wI0g7bHSGFwM16nlzz3BhrZvJ6CVHfpnb3l7aU3rGe0w9abFaxz/8ED9EuvfwP9/M/+HL3tLW+lbVu20re+8Q2t5Ohi+21VCvfffz9deumldM0110jrmlte+EIBbHS/te8FTHpiakpf+Y5TSF5NF2uAcdtj2uScTebZWKxVKsx1zroZtlWNZeX8fSefmzNG0lUcfQ200BAVhC7TP9kfO0ClOqYznWw6stb6w9cSoY73qqMNYIT18gWKpABf0KlTkHBRQVSwgMum+BDHd7ThDdpSKwbWsEyKt1SFSXfUBUs+sD0E00FrHz/UvrK6MYOECjLIpUwvLB1PmH4vdormzGoDcsc4iKHCC2DL59ULecuKLX2u9a0n+D04J/xm1p9NdRokQtDf4vPySwywVVKlUGtpEd6A0Q3CLwBins2rfv5WWQMaJXTdWNp7Gy3GLUsESI1PjAuz3bFjR6c/GcARW/ZiK5iFDhwXYAjTGMtEwUzRVaTE4F48XtSe7lgwu3gHj5s07W5s6ADgDJC13rKzn1cc3c4bIFsIQ+ys1+uvPfvss8+o2Kwd/Q20hvx1DGKKW8POf2b8MHN0fFYV2RY3GIoZncoTylqTpBpTWhDvd7l1Mqg++6KVUCGKLMAOg5JsexWD7UqMPNMWjo6RY4Fdi+41bcl7z+M2z1cvSieFQ3fmX6Gnhe8Bko0uYra8vc+ERUk3sRNu2JPdwEh6yRRsW3YvZICtScIQOwGtKyMd6pB4ZEz+SJVe+h9u0kqRKJKCiKUcWM9jtKkxQDsyPCJs87vf/W6H4e7Zswfb5hk62oUwRDwGbPD666+nxx9/nHbv3i0Jsc985jNSpHDZZZd1WugA3ONkuunndInxtK4XBQgY+Js1ibGM0ybpelWabFUGpljieWedddYz3tNgvtHXMVoyrWzmGw7N3dajM5QypbKFQIOp8XemYJTSEFcol7etbqa68pJVhf/qlzIXO44DtIXNYaWqweKUuyIsciCGFoTaMwCMBp6zDI55s0GMFIA48SXIRK41v9BedJYMrpmxpHSk0IBBL4HGtiz6ZZBQ+ECoVMdWF25ObRYsR9tDKgB3UBZ2i/MmBRVgZ4GOFVO9STsuvIjWDdfEE8JnwE8Rw11CJ3+EDGx2Ht/RhWDbtm30x3/8x3TllVei7FWY5Gte85qOJnWuBo1zXau2hPamm26iJ598kj71qU9Jwgp62FtvvZUuueQSAUuAJphzWtDpTh/P6UjBAMZIrKFLAoAaelmb9LJhAzDvxcRkZw8cF683Pj4OT4NnvEPXyUZfA62SZJiaI8Q3vbF92mGrd+x/gb3tSXKREADh9z0tvkf5a7DIlb64hWN25UJzWdbqAmyJPVRFrcDewrXFEHwOBGRVRml9SkAW2378XVk97cmGmI6bho7mrQL2EAN3FFiSTpABIHOKpP07xkLAVmW6yaHDgE1o24Nz5uQmlEDS3UGShkhyxnwexyboBS/+OX6conSKwb9mk4tLN+AuVipNZ+oBgm9605vo05/+tCTGALrPfe5zO/rUbqvDwDTBCtG+/IYbbpCk2Pnnny9fVm1gR7F6q3h+bZ8u/BusFk0WDx06JEBbrGCzj+vFMIx5J7/m884777w39uSgfTr6Gmh5+Krj4Udk23gQLbAwq/MgU11k22s0G1IJhTJSqAtglpKXnEU7chXnkvPFhy6xws4gpM8zExRdAVYLdgUWyqxa8dY8mZokP42lGguxUF16a8IJJ9MLI7SCRpRIgGXGls8xawcYMgMgYtFSUoy3GbcWPkeoHnhHgTCL9KVB+AFeB64uVbYO4S4KO5ptYdZbnn0pee2IEmayXtqkIC9R2isXoTmGbwCsA2rMKrdu3kJ33HGHxFXBDiHJsgULxbEQVm8TWwDUK664YoaioAi0GiCn1RTFUmDEkfFYm/DavHmzAC0AFz8Xixt6NZD84oXmtTt27DhjQwZ29HWMloGxkpmtlSsXH5xJcLEhwZUaoxlNWiVbTboqrJOA4d1RBlMY2BryjewkLfKmRrUAXmRBZG7k+d2+dGh4WmHQ+X2OFti8XZP7KhcAQjzWRwIHaJPFYkou98gSg6yEKjxt55gnxlcAU/DQjiSQNug0OU4B2BAqMQT3c13u6pqb9mQRGNfc+EiC2fLWzh9NGx+jxYUhTl4d0MFqlfCChj8GOtAJvwJ+wdRWpsEZjcrkVYd4gQr4921JdCFpl3i50UOXhXlH6TipY5MUDq6lCm+n40BRNePdCP8tW+LqCZemF0r73tM868imrBphtk3j7K+TDQuaFixxPYMdF/1m0eYnUynF0DSbYhP95GnPA2t5CP9agD8qxPBv2yZ9MUBr5YIjNtcAACAASURBVF8Im1ilA/975/79+1dB1oy+Blq+MGrKbENdK7uaY0gdvUYMadQnFxQSJ62UvAFmSWhfMDlBTsQXyin0Nimyk9yXDA75CDkw4IrWs1Q1CoflHcoKz2FXKK5X2hTHYRaLqi5ohMXScKnUDkp70yJOirABwgpp4PO5DvjfvtbEgg0j1MBzCnytBEEphDPA560SCqvG8oe4K+bqp46EYByfF9TxJnl1/lxbxyi9/Gp+H2VZKOFp4ZHXMxlX12/bGuPM+urVsW1M1Q4BcjW3dM16IxTBdMuWLfJ8xJCtDMvGhLsZAGmANcDWGHrvHBsbe+1ll122CrJm9DXQUsH1dXaTxuKQuBWuLc/tyFpIWrCUhd0l9TEG3SnN+LrUrsqrznFhi3ZX3KxcKMmJagPYY3Z17F4NMC60Phe7Qu0So+to0e0ghmk34qja5KWHO8eZFXoAcnwOETNbqBGke2/FzCcz7NmVCxJx2QSfDzNZVMuluPFhgG4zllLq6ukW6PGEVOv5CTYxdUqf+5MEhoz4Oh9FKux6ZA182o1ibFZa2phr+wRgN8lOy5yN34HEUBE2QLNFfNkYLoCzm2GTadaz9tixY7vOPffcVZAtjH4H2vXWbPpkq7CGF0PXjBOUZnj8fXKK3FaboMgFJvqLSE7PkDbZi1taf7u6rLZaoxweBmmhOGI5h2uSfLkplgCoIRYLTwLIsJR+02pWcUWvhhxX5HMZn5ZUTLrdCHHdgNJaqdM1QpgWtr/YA/AOAJ1+Ab7YcDhm6plLUughu3W0v27w5wdtMh+3ObCO6LKrSJ953ShTVw4+85DWJiitBaH55Qw2O1tHa0mGjfGCgCAxhvAGfBQQT16M6Q2OZ9ksKtOQpFsdM0e/A23TKgzsyj3X0EUJdgutV3awvHRiVIAGTv+QWYE59crrFd14HTTJq1Z1MgeMQi1jn6/iyDXfBwuUmxL9vRCXtX3H0PfMFG30cptdjF9LHBfnXQpCcspadYlTB5CX+SXh03BUy92Q/IFh8qqDPJdUujc4JrkmDmfwgeD3k8I9DS5qmG7JpzRqUvuanyS/MsRvN5KdhLBaFGN4zzygxRBdTeHzmsur1o5i/zDLPO3fUUyBcfTo0UXFaM3xdsJAB3FfsOPVMXP0NdDyB3xuntstrzNvfFHiTqRbZOsLTNdf+62m7pALMEhBcPn34eJvyhkgBR1idUBnyxGnhfTIO0nmfikH4teIU2O7zUw2YZBywWYVGZD1dCmu032Z5bwvSVrHbHXJwqp14yERWWR8LlAQQc1Ymk3C61YejvMVVkU9INzV1SwXTR6hkBClxlSLvEabt8oZpZ78gTx+X9Wbf4a/5wK0utQB4QOlDTFWYMyV8OpVVl+ZcunZ4YO55kAFBmtjusXtPvS3iNdOTEyI21i38jOoC4aHh+9iJosJ7OTX2XlKb+4ZOPpb3uU4tY5DIqqbkPxwtX5WNJakWdRF/Ps4yagElhPUeMs5Kokvad1N0IipzpLjncSXWbZd+sUKc9BZctzMYLHw/fcgZUJBAo4LxmyO7Syqq0MXw9xUeZoYfwHp+00p4nfwa03AZCcokPcbSOEsmQKDaf/0HgGB/e+sAKnezufEvFU+myzRgEnwehhcI/OlOJU1KQt9UWbgswv8slys6dRx8jNIt8q8WDgU5FVmrXVyavzc8y8UGZevynwOMllYmS9TbDo6LPdY0iScAU9bFYYBWZm0fy+wVXmo3BNYdmLx7Q35Kk3grSbXh+x1aO2adTQxOUVPHX2KakMV8l1d2ls0GrchOoQJrPEMmOyaNWvusq+1du3au2h1nDD6mtHyRTKoOgUL87PFJ4KUKr42hI6mxslFlwDqbtXGmAuIAFKeY1q9gGEwO5NEzwo0/sNNhrJa1w+0aTgYLN9kPjL67SbF9Un9gTta6N/TzNcCh8i3MC8UGOS6820a5Tq8gnbqzGwzXzNsL+MbO/P4xi6JGiGZHNPWkfzYoG1i7IzIXhRT69wLJExjZdX6w7I11cv+Npd82FirNwtUAYoWaC3QC3PNofiI5fPPw0FmFxUmHnFHXxsweCKEgBbt+/bu72h3kSCbq2ODef0ZILs65h/9DbSKhjTKnngnFcUD25MatUJmnM0Gs6A2ZXDgV4vIes0JTFpuJIJYgCxkXAC5FQAxa/cggKvEukZcuBjJSDXrwu4cUy6b91hh0N0sTbEBgz3E/r7I3rShDUqe09AT5oXsJHp7oWw3a0yJzhmLhq6a1nHfBB0vmgllO66hAG5earqk2nRvW5FozXIMq1m1wAclgQ6PTet17XcxUPJC+J9RkDQYdPnMufDY0C2EGvU6VSpl2rR+I01O1qVE1/YJs2qEojYXTPZMtTxczOhroOXLa1juV5OBnZZ6FR/DOLO+TJXxJrmTDdlWezFvL3ukZ5XmA3CpKpWYyZbFfAZi9V41/utqOMXEoCOGMPAbgAm2p3T7bdHMWoay/DPkeWC7j1vbFxcuGOpk5UBijo60Ms8FFKSdOUqe+fNK4b2QxmLg3oHO0JWOwB7ivChrvvgqccC0YZCV0s4u13ALUi4Lfrq7LMII0yW19guFPbxMiSNbZfQxCiYPUuJU9NmE9tXXrs5SyMALFsp8bdjA+tRa0xw4ca2CbHejr4GWr5IRZbw25wNZuScPPSVtWLKyT2WvLObdqdcDIMSFDk0nTK6ZlYkdIOajsp70EVvsQKxYPlhUY1l1gZTU8jYRvgToGqtT1ss+N8iwsNjlvP3HOYOESzMlJZaM8JjwZY6edgVr1yVxp01tXJHIYQFJHGZv/EH6DM5T69eRd+52qRRzrGCfqCsToH4bFlyL1WZgn2hn4zjToYWOwTcUL45OBHt5RNVkggaj47JjQLjAMWY3PgP1eeeeJwUIKGSAx4Jv7UT1662C7CJGXwMt305r8d11TQnkbIWXudHa5ZQidDpJeIvEd6KnPOrWm+iEoilzM6P3mAs/WfRVklU/FSBYtm35rDfsuAagUtg8thmkErnJMiSpmW17yOpjnllOK0FppVYi5IUAHX6x1UcJMKrTUCziZLpEOE5Az2ShcLOYPy8bBHC174LEFWOdXGSG3tiyCV0GkeoxofpnMMKaUazystVcxXYzRb0sBjqLBKRtJjN/QMJJ1fFHJVEr5beQmPN5jnihq1SqwmzBalGia4+DstqxsbFdK/m++3X0NdDyDbXWGp9IIl2E8apTb4+BC8hjqlNSoVQglZD1hpzpJFt7ZQ9Y/B22Xw4ZA3El4QJhZGCzYtmXSo8sT2ealvR92/noH3LZdkP+JN0geAZ5u8mry5QkP8TsBTaPSNjBCSsrNNlbwmnahSmXVt+6NFRi2QqNFAfFtDtXzLjRWRf6XulKzHMtMxzwzZ4ePUYEm8raGlLwOhCgjcVNDR0gQn5PaJwTRWNUffmvioF5OYVZTS5dMPJUC7yki0DeXYvvbofdVs/VHsee62LmvttjizMaWD5AFSYyxlthdksaiaeKI9yJWlrU/om4LuVFjk+OQuzb8Sk8+pDswCKwWr4tSi5A2+l4IcB0JkmS969fv94ZGhq6ixnu7lM8XWfk6Gug5TFqaVkvGeRc6oKOcYc0LHTIh2k3X4j5CjRPFNUUEiHSDtwn8XcVa4WMnKglTNAuJHOnCpdjaGkdlAUumllioWJGraq8MNVKutmQVM8ZcEJvKuAx9L0MsB66O7SY0fJ7cQJmXKUyJTD/EUDOePfAf+OFJNp4FgWXX0V+2qA0CKmhIordhLwySo4j3f4cZrhL+U6NWQtATxJSRg1gs/bFaq1sEb64uVHUZLlebkSPbHwJ7OsDZK0v7VxgHkCiAf8IqD2kLjmVM19hCCjXx0i5g1T1A4oYpNuZtmVcs2aN6GobjcZ7cYwDBw6oM9m8+1RG3wOtBZGeMrS5hN/44ptcnKUQKqjVpFJJrUDOixxb6ZOJV64kNCB8ACthNutAR5tnKxqnFHDBnHxjVALQZfavShXKlDbsliox7P4dpT0P4GfQbone13F02xsVt/j5/H7gfBZWdJMGB0bkFdE/l/n5rcf+nYKQ9yqpT2vcYQZdjxoZgy2DXJjkFC7xSbDeAXjPYIG2ISFANjJOWtaGsNtiAIwiE7ZAao9nu8xaw268ftHnwD4vjRJRYcQo4UCLJkMYkqhOzTbvHPgrSpVIA+0UN23a9H546A4PD2/Hvxlkn/kxmSUafQ20DCTjy5ZhlgvXkRveGahS6iKjny1CjdvLKRkHBymMYPbWaupuvRZ8VzJWKeuebtmDhok+M1nEsmUrDFaa688N3gWO72nm2kTIQ8drFfwLQGBhh9hokMvs1qkxSA+UBSBkISkNUDjaJO9Pfovir/2TMLXjEOxnPg15A9SEbV81YIa7dN0VMGx3BVvmamv/i324ij3FuhnWUcu4YkncFBVcOB5A174mgB1Ay6DYSVwVmW0ZC1wOvWygKyNBGjw+N0wY3PWbqRbEvKMIpGuwp5tw7hwcHPwtHIOZ7SO9O1tn5ujvyjBSE50aJFu1tSQvo3RMlG90Dwkc2JRI9RVJUcBK7M1zk5mXtjFxpOOysICEvEfMYTz9XenmicsNufr1GCTdUJ+zsMygm4qfrGNijGLViE4OzDqlnTncxJQrnSfAcn1QYggmsHBETSlhdmDOE2It8ShoHCN19nlUffIJcv/0d2g0atCam19Bk05KQ6pKlRzdfB0qxyklp2B/+XQDgFfsIPtv//Zv9MMf/lBADx0RUN5qK7hsaGGhw4I1wPQrX/kKffWrXxWgvfbaa6WVObo5YECCZR25bMXYjKaNovRwKeDzjRJswo5gcIT2NyLaNrJWKhuPHB0VIObn7xwdlaTXXasstjejrxkt36aTeptvCz6V/YNJkE2XzNpHPF0HhmJ81kqFsO2Fd4GH+CL+zTdu4Hii91TLFTsoJlhImzwLYwSTjRigmMl6junoa/0F7PtY4qkVij2nGbYk6Rzy0eWAz1sCBhUn0llY/icJIk8nyOpNic1CPeJIVRjkaa6EF/yIdw2BTyla09TrzGwZMMolCmAaXh4makxSsn6EvKESrf/v76PJP/w/qTw1yo/PpdcbEma5+fwlQ68011cdJcOpD3SRtVv1z372s/Thj3yEvvOd79DnPvc5+uAHPyjOWJbJdstopdCAz8lX7/ka/e3dd/N6VaLtl15C93z96/RXn/wrMXCxr92OIulqa1+nGHIQMYqvrSUDnF8G773HR2nT2ZeSG7epnrg0VKtIoq3RbO264IILVgG2h6O/gdZ1pnBBSezLdTtuRtorxdE3rql8AUPClhqC7sxg81zqAiID2LZ8ETclszG3OiiJGAzXMwfI86Xfns/UlEnMNTMdDTJmcBTVyc8T0c5qdp2T9cdVy1o0odmpXeBQJutUh0nBJjKPeWHKKZDPypHPBkoImO1Qg9lV3tI+tI7WIYueFokfUXYEkjSDfSVAJ0vb5LdbIueyrchDfB4us+Zzz6XqDz5HH3/X+4T9JXwuKvy3GOEU8UtEux3f1P4r7R5ZiGcudoBx4jpEl9q7P/Upuurqq+jXf+Od9Ja3vEWYJjrW2tfotpDFFT+IlHZ/4Yt04QUX0Nve8lb61Tf/Ct38wpvpq1/7mjRstFVb7ahN69avn/H8juqBtPm6kms44XOTUnloLU012zTBn0GrWaeplvgS7zxr29ZVkO3x6Gug5XuloYyUBfEngVVX38xou5zE+gaTDL3QQNdSXa03xZitLsDDDFjAjAXdauGNClnRiozcFpF6/B7BzFzyAVJQF6SxlmuRTnqpLrakPZ2igCxJLy9pLeRr5zJVDbW8LNfvQ0u+cMn5EuagqClhD92L7ekvRQnV5FpKR0ePk7NxiHIvICfRTN4p8bnZvJW+/O0f0E/9/BvoDz7wIZpktlwdKDOLc8QmE1Au5ivKqCIKX4sFXVtB9eijj0q32x/7sRsY88+jq6++mq677jq6//77JbRgAbGbgecg9oomj2gtDiUA5nr5jsup1W4LW8YxwWzb7YjWmHbiRXWDADzc6nJRIovPQdkPaCBt0ZED+8Voyc/aVAldaq5o1uGZO/oaaLM0nZKuAQoC9pQv5ljkPKgyClFDj9gWtq8GVHPp45R3uiLMGyvL4BPgStdVH0Yl0G6mKyEvMEOR8XL1pBkBuhQ4KD1FvM9qJleopFYPV8xshMiGoa6UC3TiS0FJYHYCudm6w7tAYaGImzz/ROuaFwBA6FqB94vj5a06JeOTFK8dIA+2imC/KXxuY1p/9rk0dNF2+oNP/Bm98rZfpk//zRdpYnyCybEvjB+JqmkzoumxWCtDMXLhL3SULUl/sEQWHgAwgLdikoBWT9vNwHMQ2z2X2fpjjz0mxwMrfuTRR2h4aJiJvWb2R44cYWbti+qg817c6YKFxK9SAhKC5JnyeI2rU1U16OLBtigPYIQU5+hcEdL4kf3XNY8++Ynm0cfVkT0/+kRXE14dc46+TobxVrI9NDhAG2H9JpaHipJ2SpPthsTNHLQ0gSgbkhXXxulcfU/Pt4VTsNWDJWpNWtBIJC9fmSoqMx0zb1NtxgwwQzxT+nzZxcIh3YhypRSzOaxdyBNTnaox1dFJLCueV1I4wfOMdJ8ydHgA6AmknQx7rIWjcczRsVUGLGbLbjOW7Hl73SCVxzLKo4hUCQZfEQ2WqrRmywg9dHiUdr7nv9Crf/J6uu11r2O2eT1Vavxct6zZ9yJ0rbMHQgdIRAEMAXxf+tI/CJgf3H+Avv/979ONN94oulQ8BnKvbuK0YKZ47gtf+EL65Cc/SX/+538ux/7e979HP/7jz6EdO3bIY44dOyaJsJKpDCPjbyCtaUA0Qp9ZKy9EfO4R3/chh+OFzvX4/DHoepWhnc3jB543RM1dA/EYc42Yn+JR0sx/eWz/42et2XbBqn72FEZfA63vec3BIfSVqlDgBaK3DEYC2sw3dYMvnrFR/hqv81YRbCvQHXBlC2layswmLrasFgkFyd7qUkfPcUwsdiVqVqlTuw4JF68kWgqFm9UpPEhlxmh7JaaYiT2kUxkQkM2FeWbTiUUx7OLZRSm5SBxlkdE9B9qu0QLuXMM6UDmmS4b5HLJmSt5QlSr1NmU+/26oRukxqBzgYtWiwNGNf2mgRiMbNtL9DzxCv3LHnfT8n7iRfvXOX2WAulwSS77jzwgZLCZWa3W055xzDt122230v+7aRX/0R38kAAcgvOWWWzrxWSv7WuiwTBhgjQ4IX/va16RdzFVXX02vetXPCltGWAKhBQBtgG4huTa5l//B44KZfmlqlBfpKWayfL4ak6TKQ+Qyy82YmNSCKWofObDr7EF+76OjWDl4tWIW7kTklxWVyktb8HEmjL4GWr6X2uCpKcTbGbSGDkVt3lL7Lt9fAwy+FZrkLWwYPEVOkulwAAb/rLMv8GvNpZ+Vg3ABX6QKJhoM3Ij9QkLluWYrmedLbH2o2Zpj+nvJz5CRIQaJGxOm3cIEEy3k79A882yTGFpKpJWO4MapJ5eYbKZZK5JBOGdw45I4KqRbGeniUVfPNoqlNxv6lJH1wnVN3FWdrLBiOt2orI8BFr4KAzo6RfB3b6rNnz9vsYdrlDCQB6UypQB1NxXNbmN8jIYZkHZccgk98MAD9H+84z/SRZdeTC++5UUChJdeemknnGCTVcVusNYpq+iY1akUNO5WtjoLgHjWtm30xBNPUJlZ46WXXkJr1qxlII51YitNO8u1M+vzKxYYFI+fptpx7dWvfjXdfPPNAtRr1q6R5KDtmnCEQXhwcIgXD18TCly7WZOcyXFq83mn1gS5aVvsv9G6SYR2vHiFvNiVnZhayXHKJ1JJELbgBQLtMYOwXxshGl739h5dQmfs6Gug5UuxDdaAC9gPwBQSfeEzg834IvP4xh9gplPbuokvOP53s8kXlxIxfGb0peg/JYYm0J/yDSrxRcPGPNs/TKklBlkzbBiAppUT0iUCN2nUlnCB4BizMHcu5rXEc3QkSGBCLgZwFS9uDsIsoTarcVJjx+j4nV0DYqqK56/4RtetycyCZ6VxJ5m2KqKseaiu/8812GOR5S1uyosQOkeUBmvMrpsUj7WpVgvFjrHFDHuU57Cep7Ztw3oaZbB/9InH6fH/8acS2TjvvPPo+uuvp5tuuome9axnUbETrAU+gC62/bbc1lZnAejwN/zOMtVzzj6bzudjYs6ZlOXGEpuWGK2RXRUBvah5LTZQLCbo7ONtMgzgHvhSIihsGg5cZ/PrPrlvP93zL39Nt7zsJRSmk7Q5blDVSSlSyoTN+JjMZIVcCHnw5foq4d8MwJlbopLor1NK+P4JRjbsdoPyasHCKY6+l3G8cudb1OHxKV3xwhdpiRmgF3gU840NxvoU30n/uMOnDcRMUIxKYPztSONX12GOm8DqsCTdWD0+hotSpZVIEUomScubcHNKggVEugUWG0mW3lGZbKFzyR0vfxgDxQRiL8k3pZ/y6/tlUgxsBA8Dh9ktgAa/R3LL00CrUE7L889h2ZjlXSeD5h2uIw5krqMXIwAZGF6bGe5/OlihLx5p8i4AyTaP2bZPDZ7HFqdEFwwTTbpt8rOS7FIAUEgwwScAAIYuA1dccYWoBc4//3xJLqHwACYrYL2WwVomCUC2QGmB1laHFY2yZ/sd2L/bryKw2uMUWa4thrDPB+gjhIC5Hzp0iD71mU/Tgw8+yF8P0x/89m/TK1516/ZKufJIvP9RFUwdpAT3h3l95HVRuOClSjpdZEgYI4acZiamC7ISUTMcpnUXXdH3GHE6jL5mtHuf3Pum17/jXXTwyFFpxSEMi6+ijRvX00CtLDcibsNSky+mIV65Kz4FrVzA1BEHk4zysCx2fTCJQcKJ91srYxCgpRDCsDzpVqt4+xuTh4qoXPfZkmRQx7Vr+aeINcgTmRbPM/SFxbp+RVqIO1J7nwpbFZaLKcLcBuYwWSy62Nw16oIe6HutcYuhuDwvR8IQSdSiViOjkZG1FNcVtZvM9vg8IhZ7lMGpzIvwpppHLWyjQ95qu7EksKztIADsnnvuoa9//eudcMGGDRskvHDhhRcKEG/bto22bt0q7DI3i2IRDGez0NnSsaKVYbHdTPF92ePZzgmIwe7du1fctPCFnx9++GGRdaFNeFAuMbmI6G1vfRu95rbXdS7g8czbvb488GJq1bWhOnwXSHvT5ub1culuobQlJbpWRBlllUEqbdi2/ZQ/qNUho6+Bli+SQDLHua77T9KYBks1ydLKhWpuQsVY6jVa5DRSnawRUXwmBtiqgkaKvNrnOg6Lrqp+tjJJL7nYHTHFgzaIVKuhAQwzNll3GSbzvuxTRMiFQcxBtdLQIAMqn0tmgtI6BRpfAJ/VGyMBiUUiERG8jqtKgkb1ZI0Q5y8jaetUAPLCic4Z7VaLxhqjtGXtEHnUpsnGJAU4pTz//e2cBniRrY5UqIntt0MzZFeDg4PCYgG4SDQhwQQwQ+nrF7/4RWGTeOzAwIAAMED62c9+tgAvvjZv3iy/t+YyJ30PNhxi4ruj42OS8EIRwp49ewRcD+w/QPv37RP2qjsoaBDG8TE/hCxQhnv4yFN05ZVX0s43vGH7O//jr3VeY2Tz1rfXj2QPD1Z5Ls0WX0cplZjdxmlmOlZ4srArmPA4kNqFFPHvmm5196ahVY+DXo2+BlpmAT4uULSOgSt/hQF204Z1RkoDY2hPbu6sPUFU5+03AyuNDJEzOcHb2ZSygSHNikQ3m8hN62UrIy3ObZIH4BHrHl9+lojRh7YcpA57E+2su/xA6zIzJGZOTnmACVFJQhloeGlkBXJ+ZRGLYXHIX3lbx5jdwLxJmwjqwTmGcqTTG2tameFKQYdHUb1F9dBlUKnQiDdIUwxUIbPaKMnpQd7VbB/wqUwNSjNt1mIdtiyYWf8CgCwGwgdgsJZhInwASRX0q/fee2/HVKZYagswBHstG8AOTKcCgCYYLAoRrEcBgD3JUmmWSDSdeIOKoMbHAbDjWHidYuNEhDwwB8SZ3/LWt+5eu24mOIal0iP7DhzZ3Zg6/OIN1Rrl/Nq+LBaObiaKwhFdbcKfk0cNp0LRyMbdm7ZtW5Vz9XD0NdAi3y3xLr44a3wxb2aQFWBFMgs0ly/EFt9w6VPHKRsaIn8Q3T8ZDEop+YpvSVQw2UoxRyd7nKVN3JPGSKMwwC8ck8mGpCaJxFhFttsIF8iWVD9vWl629BIubP3dVFvR5K7WybpIcnnM/iGI54WMTIcGdK9FxZXjmeQRMvAwuIGvbCdGaTis6uHc3ekQiuTX7HlBlwD5PBU1WrHsZmqVKiV84qN6g0q8oxnjncJzrr2Gxo/sowcfeWJGAsq6YWHYMIAd9vcAO+lKYP4GEC6af9swBK5NgCmA1ZaG69Jfd4aSAYApQO17RjPsSCcJrSQxb1PNbE1j9bWI0SKs8ZvvehftuOyyOcHx7LM2vmTvnse+eDyqv3htiU9I1pJrMAFBYYaLEE/MC+doViN/ZMv2jVu2rDLZHo/+BlqlAsiwhhlA144My8UjchhmBuVKierMXg4/dYRojUf+UE3kLLgbfd72ZiqXckyDdgVJ6tKGDTQgiLZMmLh4NABswTIg4gcbZCaLWGwuYhw7HzUdl11qBQQqrBx9TjxH3/ySI0T7Gbg7kZbECXAi+WWbJoIdgY2L8sCwXMfMvdfznqcSLuV5peJpIIpoajea4g5W42vE5fM61kgo4/N88YXn0b83xk94/uzuCCefwkx5lg0VLMZzds5ReHn7Wva7FEQcPChKiTvvvBMa3l882aHOOe/ClxyZOHrx3v2P/ck68l48wOeG+QZNlrHbyKjRdndvvfLaVRa7RKOvgTZXeRCWQqoM16hSLUunV9jBQULTjhLad/Ap3polFA6N8BbX58vJl6QXxKAO5Ejod7LMwzGuWsjga7tAHRNwWlMMULHYL7rWcWqF8r1Oxq8NZEAKHQAAIABJREFU3Tvc+FFC65fIFXWBp0MBmTYocTr2i664b4GNq1jbR8IgZiWmDz20K847ufGzdXjBjXnLXKdB3jpnLrPMpEWjoxN0/PhY1+W2p8tAWAMlv/hC4m7z5s1PezFvHN4ApvqSKG5cPH702LvLrvPLB8fr/+u8bVv/YHhoZJXFLuHoa6BVjutXBwbJQYJL9Iwpb6cq0v/oqcNPMdjGsn1NJcPqMsiWBWDzpKXNNVZiAEBzHdfUSaRMyiLFu8C2BHe0ExatUDUa2ny7Rl+cMbg6FV7EAmazeaQZLLbG2Np62spQJZrJIuQBdQF5JeMktvwLmefyYipJt0RCSOK05nribBXy78vlQbESHBsdk213MWFVbGbYizHfsXoB7jas8aUvfUnivz/3cz+34HKzUlgDqL7RfK2OZRh9DbQ5FJylsmxzM2ZSJQbRhC++g4ePSIIhDH1S9TalvAX3UR6K3rdKe7nqtrArMWvbYsT8K2lTFjUpzNW0Axe0leTOiBYs64BnbAqQCiXMglh31mwz2LqixRSgMOoCxJLzqGl0vqTtD8VzdvlBFmMyT6iJ3QISXNCEoj0LaWvJeqvJux6fhgeHZFFL4qgjzZqroeKpjqVky53utvw+ITnzfX9pO1CujlMafQ20JPIuMSpltuqL+HzvIWayccrsxaMErvZ8lwXDQ7wVLokcVTgiynWXOBY7/9CJGhE6MYtN+Ob381iqvZQx7e6U0y5xYm6+4bUjUjCHsYtTwqAbkixornG9QrLR4cUNCxkkVHBJc4TJSvRZt12nYNnnHvB5lJblPB8YXaOQQTrxIjbP57fZaomyZHJygtcKVwzJl2rMB7S9Ys22YwOUC6S7qa2O03T0tU2i57gBGJXPt3rEYLD3wGFqtdpUCrRZiRN4knDK0UwRfq6Zbv/iioxmqRmXY3T5euuKITeYqZhK25OUtSbJV5DaBMac2dFeArlWQqglXgxyycmhbFbrkHMpl+V/lJjFVqqkQuGC2oYSSTG0BmdwgoFMHuWUo5GiaskC4WhLNB0WyfFelncNt+L/MpJ1DKQJs1oJ1fLcAycmn98XavgR+Sgxk3183x6qDlU6pixFe8QiQC7EbMYyYKs8APgVj2PLbK0awRY22GKH2eqGhQyrvcVzEQJRSq0C7Wk8+hpoXd6n4saH1vHY8VGK0XyOQSBOtB9oxMxsZGhEMufaQEq7XBG2xT2Mxc01OttPY0gjNxIYK7NAiPih43Uh8ZJ78cSPYVn4dqLbgFPJlbm4KYNngJbgZWn/LdaLUhOPqiElZiSI14gdIWRoAGXXxpLtrDvSiOV4ByeMRrvBTM+RyIaH94Q1i+ee8GKW5QmVKaaNA2UpAKxPNCS+iYSSBcHZioGFbP9tR1oMACdkV1ZvWwRTC8a2hNfKwbrtI2aHPaYB9lWgPY1HX4cO+P7xW3zTHxubkpJKqX/P9QWYMphVSmUKh4d5y6gF2R7uOgaHnC90b8kNWKij9ZQMvdFNEjSmWayZozzQ0SL/JZ3N3MM18its88VIB0UItWFyQuNTkBs7SWk9o6RqKE+a0praMUJ3ZaRqp8uAJy6ZXmoqQMlvKDuZhKfI3JXWhw4NenwNpK5Iwdx2u2PMbQsJrMbVjqdLkmELb7bvM4xnMCyAYxTZK/5umfJi/B+KpburoYPTf/Q10EZR7B87fpy3Tm0KayXIvaQTgi+GLA6tW7uG0rBCtuuqZMF5u4sYnucuB0Ao7Q1qUDRHIQJ0stIN1tzARim7IvwPHQfQ1oWBNi+F5KH1NORvshDoGDHKah1Pe4rlUSxWjdD7uko7P2UrU6Q273CUzyAKiR/qrh1q8/Xg8Wdf4fluHazRhgrecpta8Lvwwg64ovLKgm0xFNA57kkWZgvM6EyLYz300EPiPwDQtUAKlotKMTBoPGZ8fLxTfQbwxWOtB8JChp1bYY6rQHsaj74GWiZTgd3uSXJGZVTjizdkVrNuzbBky483Yx1/xHUIloNkiKm6WtrJkWaFSpsLipA/aslNb7tnKVMU4K4Q0kr7b0ZJL2SArZnOCABe6GeVkZh5AJFMwh05ulZAMoXfuysnPzvZcI3DGfo+usz0KrxIbBgqMYt1aZAZbhK3KIGtJtysZK3wpYwVA0AIQEU1F8ZC5V4ASzwXpt9XXPH0blfve9/7FLwTinFasOpuDMHt3HAMA9CrQHsaj/4GWsYIsNZ1a0KTb8ql6SKAFqoC3FCQqma6q59obR20EjGlpe4StwHLDZvJ44TSVoMBPpESYJx2XYLrdCpqVwKuxIsX7XoqAxBwMNuGLIPZLfSxBmilLDnhncAUFom2uD4p29hSKC/u79Mn1K+cWOaX8XurlT1msC5t8FOKnIzSBD2zTBfcNBPv3NzX/gRofYTvADzrPbvQAYAEO+Xn7l7I4ycmJjphA5vU6jZGaxNvcn3prOsq0J7G4/S5QxYxHLSod0MKSy6VkQCRunGf76GEIt7exsj0QsCOAgW+uP16Q8dpYePXo2aL0sI5t2W1NF0a6gXC/KAsIP6CZ5grbVNIZ/qp4FO6xDCbG/WCVHzxR57A/BzlvpVBUuUBE1aJkT0iUUskuh044rKYf9aYguBXWohr95acbFvzXhV+YMsP71gxYYdHKn9GmRtIQ01dw4Fz5+mOuTz/JkWku9uElCL6ivl6sP/Lifc0tKWi6MoRh4Z4upMOtvCBlGDLAmd9Y31vhv8rABBbfhQ0YKtvuywUFQm+6WpQ9EfAAKscGhpaUCcC14C7BXMxiunyErAGNja5RqtAe1qPvma0ZOaPLTgYjOsHmoUxQKAhI7bt7XqT0rZutyzhhY5WtTcT6DARlc90xkeoABaBRupjq72WGlTnGp7S4J962oAngAoD7cADX4T9YghtvAtEbyqMNtOtwKGSQPfgJXbbyZ1ES/JgSG3C6Urhd77sPpSTaL9gkcD5VHMC02K+Ib/bG3v0UMul7/ApPxpGdEm1Rq1mnZ9bogoaMc4DQzYRZb0KAFpQsQBsMYrM1nY2AKjiO8AYMd3Dhw/THXfcsXvjxo0LKmOtVqqdcEPRKKar82Weg2sOxyKiJd6frY5TGX0PtAAGjwEjULo9DcAWN2mj1aZjk1P01FiTskvX6YomPKPjeO+YG/cUh3WnkkO5GqwAuiipBVApsy0UIybrxrTMYGs75Dr6y0FGnNnsdBYL83JNVRrCApl0RCB0d8g0wIEV92z7Y+OeRb2q+bXsEBACwuvx1ZmKFlYXHSDkE8K8GvGgJKMWP+bfIo++MOXSt5suHYlzWssAvKHq0uFskobKADReWGLXsPW5pqJmLJAYttsCEmT4bmO4GJbJAmzxewDx61//err11lsXbMhi294UncKU9Xpc4JCmoUaKtgq0p//oa6DlCyxA9jaIShSKa5e+1poMsq1WnaailDInlASUY42zHWvs2qvr0hYXmE65uWGC6POljIuVkUHJvbQCjBYxailHBZiWQsqqlU4CUcu4SIcz4AvAj83aLWGykKAJuDoz/M1OeQgvtcUB5nfCrIHzSsM51Axwsw0Sl0oI9wTM3HhuB6OEjjDj/MuxkJ7MQtqTotAipQ2BQ8+ulCjm4zTjBoPsEO9ieFfhMiNPT57Nt6zStpXBuUEIAQNG4LZ1DIZIBxnYAJYoFHjOc55Db37zm7f/5m/+5oLfvwVZDAuYOmZ/Sq5fqyW4p/Hob6DNUn9sYpzUlINgre64ahimz8y2xNvOdmKyTc60FyoaDLo9TPVrixhXxxeZyYLNerZAoaDltz2bln2AYSOkEpSZyZaks66gqzG3ke62rm7to9rMZNuxbt4nyKfPp27k15vpzKzA0p+Lm+rXT922uG45bkA+/26/l9H+dkYPjjr0SMzAmpfpqbxGKYoPeD+ziefn8++wWxhH3JYYBMMq0WSLvIpLtZhBs8rXRzI/oy0af9vEFJJiSJABCOE3i3ACwgS2RxhMv9Ha5q1vfevuNWu660QguhNj3j27++1CR1HraxtJro7Td/T1J+R63otRUgtwBbBmIvGi6XioyszW0FzcSisBtFO0ot74EDodd39bDCG+sp7Jzts9MRUSYD141W6GB9F84DGTLTOAlRjAIG9LzUQ8KatFghAsNmk1KAT+AvdcU0whi0RvbRuLIIuRhak2O4992hcF9M8th/5xMqIjFFKLXx8m1aUgpQoDb5m/QsSZXZ9SlTK8tqT6z+XHuhliuigTZtBVZRqthDTEgJn6J/ouWHCzDLXYiRbVVvhuwwiI2eIzHhsbk+/otvD+978fnWe79nAN/KCjGrDAja4QeRdXhlUbOHLty228cJnE6lj20ddAG6fZPydJ9oIw1Beu1neSjpEKtgEEIVliJiduUrEuwzWx1K7CB3IPFMIOrvnZ1UyWGlMdnayDrrB4eK5mHWKJy37tlDLNRBEyQKlvHlTIqQ2axE+i55552gjdBRfPKAN7a2kXMXJNgENNV6wBdLGiJPzYMPep6SQUYm1hAA8zrWyQfmdY2NCCh0hUFoj9OrmpQPP1ectjfCQZtflvjXZIhxn4f1jP6N/bPt2XenQQ7dT5KcN8vLKTMqjipT29iEoBiKedzqDpxV7CKZlZGqhitpv7FflNFa2O5gBZ/famK7aKnWctANoiArBZy3KhsQUw33HHHQDZRS09mY6pduLC8vp2B7HQY5hWNkjKWXXE6jh9R18DLd8oL+j8TJqhSt/6ggmITkQVa/A7T+5uK2wZWK6mf8a2GzdNAp/WWMc7yb52L6OaC5yiad+lAq0TFdJaZpAtV6U1Sicea9iqK4CLxFdbmkFCkaBOcrNnDIw+Sm/5PVZ5cSPpJtzWoBYzUKS69WImTRpdCTcoD1KtRIKuXqIXJjdF9j6iT0yW6NtTKR1g4Gzx9t+HAYzXpi1ekwLpM1bqlLDa6M+ynEcDgFY+ZRs0IiYLS8LXve519NKXvnTRs7HVYZbN2p+7NZYpVrDx91VGexqPfgfab/HXDfof+j+qEzoobOkpPyEJ1X2EtvB8OTAzn0xXm1EM/4JEFx4YHe1KJL0608QWnHTPNKdS0xVf+F2mTJzYMRVfqe7qwNtjV7wXTFhlnhiBj+cGVWa1bTrKoLvOK1MJCchkUtrHtCp6cSmLObgvhuu+kj6rEppIkUjix5UDJSy42kjpoQmP1q5zaNBN5bEKiuMMZuKaQTveiZ9Trw26Zw8AnzV98U3lGEIJAMj3vve96NF1SpBv46sAcgkbmMaORj2w4GHNbFbZ7Ok/+h1obyiaReVZbhrfOcbQ2WpbC/IrsuDbJdTKIXKRPwmcZGin3RYmq0HKtNOWbg5OJy67rMPVr+swu1RlBiy0vPYCHfs0bLsTCuDtteKtMfwXMH9N0t2T2ttM+m0azHyaYOb5h/sCGuf/vWi9ou3BMG2ljDaj75mnKAZ7dhk8GDxV0xRBBFAHROQnSlQCqTdIP7VZ0aeiROKvucJ5w+XI4MOfW84s2PHaYtRd/JyezrKwF8MCoI3VgsledNFF9J73vOeUQRajCLL23906eBX7kxn2vedU57U6lm70NdDy+BF/7dDCqukihFz6WZnKJVyQndBBAVy7pbSOURY4elueRS3pjqDNVVzxcnWNssFVyw6xeigTO4BpN7MvR9QFmekm4WqJGTAQj4PON4JBjAFZV8euHTV/LLmSuhTnLq0v1ejHBnJ634GEfsjbf887QpuDEm0ZKNHa0KONDJYbeB7nMaO+pObQOr8ljD8ksGt0xGjwXDLa5Dv0/AFFn+ZjuCEYL0OtE0s7HN33K5gRLugmWXQqwyaZbBdbqAve/e53775sni6z3Q7Llq2hzGJUB5bJ2so2/nkLX+uHejG/1dH70e9Ae5ExmjVJBQ10minoKidhtt1qZgsseXqYxBeDeJYmjBuRmEmDxSpXV3zlYt6tk3ErMeC4hVbh+UCV5xWSC48CJAFN/zFHVAS5dNwFm/WgPsA2HK1nHP3edFlANiekBTRIrRCtxCfoeQMZXTDkU2u8TllpgMYjRYfqEY2pmFJmrKgui5jdB3xG1lQ8unjQp+vKbdpCbdqmBumScotKbkS3bQnpn3KPKkmTmXVAqSTxdLwAYQ7b4lEVYuq9ajUz73k0FWDQ0j772c+mD3zgA9ur1WrPmhciiWV1tNbrIAy0aqabORaLLFZB9vQefQ20PrlH+DLbBljwTJ4KBUCu8RJAwidp8xZZ2ZqmQoLMdASYa4hk1CqPzJba+saq1hS50Mnib57JZltAWEadbC6lqLkJFzv6rfglcgaGtC4CBjYeYrKoPjJJKLBbuFcxSwtmqAum565OVjLvQ5UQEGx5zq6k9LKqRx+aTGlzGjPYMnOtODSQDFDAwNEsZ6J+QFVXEuf00NGIfoRyUX7dWNWpXAkZXHPaVC0x8E9QVA4p9EzoI9dba9hedlhsAVcXC7I2NmrZYDHrb/0LsEhDLzsyMoJqL7Tydj7ykY8s6vXmG3hP9vXt927DIXgeABvxYxOrXcvHGe3pRFdHz0ZfAy2PkRn/suiY6+w3jKulI6rW3C94WOWCplUapCXxhe02SlMN88gNCC+7uoBIgD415jieVHwxI6pUyPOnwUqzVRM7zjWLpQhbc20l2O284S3gMdAiuYUzcFOtSR+vDGpfhLRBecwseqhOeepQOQkZslMxXYf/NloegPFD7YqyWJRKoxtxk0Et5QXBK4UzwMaK+Xt2zhzdiaAQ0+wAHNgrEl34jnjsli1b6J3vfCeqvpbko4XHgU2CdVrcdKoWFz5sixwT310F2dN49LV7F6B0BhNwjKjees2i7NRZzFs0Ei7zXHSEVXBIajel9t++Vs9KpbqfnSTm0F5GyjaDkBwGWQeSK2i8EALIp5kfHqtQjiqm3YmANBKEXRcg5CFMXglaXHgP7Kj59PPDAT1ePyrtx0slj9oxAxcDexqilDXQJa2GfcMHGIk3XhLIz1Pp71WqlIVRJ1Eyo9tArxNexTY1tty2KK1CpReKEW666Sb63d/93d1LBbJ6Mvqb/Xw0e1/8+zXMuNqLqa2OpRl9zWgZZuPZN6Syqn2rL1wEGOoSSZP4YmBViQYpzzAPxxQ9uKY7wkqkvjLxLuCPr1SmnLff0l47UwW/FmPMnWsJmu6MkBnS5J5ULzvfcHN+rWBCWroHOaqvavSmId5qbxyhz09EVHZiKrllUiFvhyMGMs961ZpEpJJWj+T4mmVHvHjh4xKjGLOdt0yz44LWI8C1oGbVBBZksfVGqe11111HL3/5y3dfc801b9+wYUPP4rFzDRRCWNWBXQDytDuXw6LW11S1rXodnMajv4FW5ett5lXYENJesM5DRRTYS6qrh7oeNoab5boRYYIW1amU1Eo4k4yQQUdKV0RhAJ7IlFC8C+S9IpzBW3Ik5sjVMi35r3R2aGsPVrMGSa7OMN5uqtUcmGpnnhQklNqp6GI3VWL6b5tG6Ml8jA42SpQ76GCQURUFC679bEwI2NFlHFigssRk3IWN6Sy853tGlrc0ZLIYjrAta2B1uHPnTsRjtw8ODi4pwNrhuNNx4aLqoJvrqNh115yzVaA9jUefA606yP/ZKiFY62cgf9BAqFnp/Jnc6ey1M10pZnwSAFxo8IcvYYKujndqPap+QYlynuT43Yz5oCU3zmNS2upqlJeq4pDZZbkssU8X8i0sCrJFB1v1dFILICveC1lB1aaTevCoLVgNLHCSsXgJ+PAvRJv0PKY2v38vnKIRv0EPRx4NDvgUwiAmm6RMLBcLIRbjcOaJlla3pEwzXavvwSErA1POpEsGlBC6//ncM8TztcbD6biiyXnC5yY+CCg/1koQmL2LXzHKhD1m0s02DQ0O0/N/8gX0yle8Yvf555/fE9nWQof1OrBDWPYiQlGWYBh2PsSAO9njqa6OHo2+jtHCMlR6BphtlACIb95SlpuGAa50oC0OZSiWhkh9gQsASe2/p60OowZRu67jivJ8XWsPfacoG5wOcnWgZGFfc/9vvkcrA7L6kzILCXpEDdR4qr4unND0VC8Q6DQAdUHUlPY5ZLrV2pgy3oPnGLFvt1zc0f1/wizmObhyLso5fAnKzJLLBHsXVJtFuatZNrwOBPT0lxQu8Gu3+X8+Zu3BoyCXMuaYF4PY0e3BM4nhwt6R5g39VCnkY3gS38WRXVlZU830UfQQwMuWj4QCFgbssh9S2QmozQc9PNmkX7z9dvr1X/s1Z7lBFkMZbwJs+V3pChJ0vSuyQA1GbAxwVkH2NB59zWj5cjvGt+mQ1jjpm80STIArKsUy03LlBOmVyYB3mLBoYBnYwA6bk5IAc/JU3+jWIFtNg+vMaXQ157l/Ow+ZcQ045dhuxjzPkMFp3ZDUIUBZIAYy8n484+uQSahARbH2MbAh626m2OWA6qESeBT7qZTPhrw4ZWhZ/v+3d60xcp7V+bzfbWZ29m57N3audXAupA0BGScFqlaNSGgRpVLzIzTqD+AXaitV+VGJqvwpEkj8aBu1aaoWAlIoRVVRQ4sEFlSFRImUJqQhqUMwiZ3Ybny3d70zOzPf7e05533fb76ZnV17jc3sDOdxJjvX7/4973nP5Tnp2lQsaulDqVyN3IcwiWESGfGcTiD0V6EVTkAzmCDhM5iIJ2A1aCDhZkVQsoyTJOzNnRYC1qmNtfGe5BEOjNSKZzWECp37SgpLVNjbwt+0cziHZ/3E0fOw7737ruIR2Rhuyp+WxGU2mxtc7oJrc3EXcGZw6qpssOBnxkgTLdGO6TLLWbNgppFmaq+tD4Gj6z2/sqzDX7IiMC7wgtafJsFrfHiuZNflXoLJz+1flPm7CRrLB9c3rRfz4e1A5gmQJKjaC6bqAKQDgIMAJw6ztWtkDinv1COCbbWKsloX9FJXUuNwzcbnsOB70PY0W9kRjgJNtGr7Ly7aFbIoyUer8g50kghOQwL3zSn4w103wF+f8uDHnQQmcFdXAiRhlkEc7JrZEc5DR8ewjMRNA6bn2vUkKUyHJif2QpvynjNoxRkcy3zo4LqpIII0FWrgv3z1DsjGcP2+ym10LifoV9b1FZLd2hhposU7q8GXJ+fOWv4srlfFU+6QrFHPZCMoZ5laX2xG6VG2qow0C3LbI8srav6Vdd9qrvbKvbU3g0ugWovBxLZetH9dHy0SqNfBnavVACZrZk1Z2i0woO33FZe0kug4tEh/gabQebcleH51dRdIE/YdAeWp4jojDaQpQ9VnhQ9VGV8z/QuRYNpIeqeRZG+eVvBnO6rwoaoPUbAKvxX58CNNATWSs0whWw0gDwdbeu2kiWSFpK4iiPF4rOQxd7qtoGV9up1ADd87iWZuJ6/y90M8f5NoKXeyNjTQ8o6V/s+rdkAugizLTqFFu1AuVigLeV8KypkZ9rc34PMjV3GzBT8DRppoM1vrWqRYWTFvZSuliGgj37P5td12Ntr6/nKcdnIjQltSC2kbDcOcW1I74Rm+mCnMpEuSLBv4Di+G9X61XvuyjG6k6SrkaMny+tFiUxWy4EwBAG8jBZBIoJpFqjPQkWLxa9ZwzctaD1cHKvTgl+tV8PD45eSj9UIkQKcJbGcYVj6ymTaghdb4pxavhz+5BoeD4DwkeQVauIz37dBw09FVeCuOYU7VcD9DFgYaVMCnAo/ahkEjaUMGHbi54sOdtTp8JMrgj5aq8FpMuglkHQfslshVCDG3nq+wnOO11y4+fNUOyEWA1uyFMAwXXCrbZlW7HFwwzBL0SMdbxh0jTbR4ecWcqamdq6BEY4ryEz22Wh851IQoM5Vi5jPrbFA04/ZsZ4SELT9qWZ6qoli3CGCZn3mFl0DZZXA9PkXgyYfqrAyu7s1siM3848/w7dCzurBWY9VwkeZaKyquIKV9zxJozsvG704o8FdjU4RAFiySWZUUrrS1yMmvTBkG9JcGCQ+KHmY0pSZfZWhEGDhgSG7dOk3fbRZF3zHl37hwnNX75n2JPOMXznB/q6xiptkXHuB7zbwGc/UG7nYMVJhMy6baffosseemisv9pelp+Pj2Otw9lcIJHOCieIZ7guWtJszqCfhN/PGTHpJ2QqXDLR4gPZsXzYE8ylqwg+U7kVTfXc/glpoP1+PgM6U6cAqt1cbbHluy9QlT7ks6uDFZ/HhiVRAg4Xpw/NhJvfO6xavput4I3B/cdXYYhIv5bF3+rbOGm83m4AUJtgRGmmjxnutwx1TqnOoZP2TOql30IfkLfbRUE3j0UANM/0HdTc+C3kCNK0Iwv+y/wI3/T9t+Uq6rLX+XlbtCS1i0FpO3ywq4yu8mN2nn2si50yvBNQMkdDxKl9Km8swmnfJAgJabzhom8KXNPmRMnFY+0Pb0srpdSESpW2OhJkYZlim18abIGBGNj9NotPgy6LWkitYutGyV287Bmn2wdGQjv4rbgtNxfD2FRJtx77UcLcsEKkECs2kGtaoHrSBDcgs5rQq8CDcq4+yH80kORy9E8NwKDmi5D+R2TvwUIu4cXAHqoTODx3gH5QZPJUCx+EpGHliaYZA4uIYTnTaco+IRNE+P4Pn9Dg6mjVCxnkW1pZC4cjiCz2epMi01gUQcliiRzDT4zROTleGrhy7vovvZUa/XVyh/17WjKecOb0YG0rkdiHBXV1fFot3CGG2iXQNbCWb9qnTlhUgsU7qXVHNnUfZZDMpZxYMudFqsH9m1lD8nM7PT/Z39iNOMSpHhbtsUMGpZvP6uj476X5FFnVvtXI+rpzyTL6q8Ytlm3TatqWhXbcmfW66rwldtsrpwGZUUEiS/iLW/Y15vVPE4Wu/2pasERSlbiV1XbpTIclsQQlahr9niTcgnq41ASjWqwUoSwwxNzwNqcNhhqxk5GNpUmovfb6EV/n9eBbe8Cgk1UaT0JrS+m6SHgOucyKfgbKsN7bADi2Qlr2po4zrPUnPFpA3LOGCStLqH5yBQE5BUYljC5aZo+YYxHsOgA82gCbXOAkxHq6BDnJDaAAAWS0lEQVT98xAnNbS8J3CbEhxk1pzR1mavriuFOI5Tyh2mPmTLy8s9JFtGT5eQPvR3EUGyFot2C2O0iVbj/VuqGzd6seaD3AaAXK09v2vf823OaV72NBTPaTmDq8m0FRLn5+4iZ/eBbyi+6HpLxJji8jNwnR6KlWjPEqHu8jInEcQ8RfZJwSqwgwUY65fdAJ4pZS1Ka8kNQGIu4MpWgaviOOPXK5cG57a5osdNF0l/ICKiZzEaVXLsFf6Sou5eEwXaYKLZ/ISPKxVIhIp6IShOvaI0utloErK0jWSOJBskLNmYI8lGugVeEsAFqJAzl9vC10g8MTANF2eRHzivF1ZgnqhC1+Hwis9T/XaI+5fkLGIThgH+SvE5yKiPWFpFax8/x0EkSNCCzkKY9RcgrSEhp2QJV7mbbgvXz0USa12Yl1EyeGXQQFAZLnXXnZycZM3b9UR01nMflINothRXLNotjNEmWgtXvqhdXn7JejHWos+ElVv7zbPEZSLjqs+IHVyUWtb+5NegbP4tcBVSUdfKzmJTBhzY8lxdLJl4NnULtMkPJmocJhPg7EvtzFEwKaS6vE025pdwDrApWyXyo7QmrQ1RKxUYF0VR2pmyFZviI6bc4oxqHqrcUrysnVtY3Y7Mux+YP4FiUqWGj9Q/zM+1bY4YosW5BCu6AdOsnFaBejoFy5UVmMABp5F7sIKWJckiBtWEp/MJ5fhWfHYbsBwiMW9mZgJtJPc2HqapjJTCWkjc5GMlP5HC7/swoSqcZRF0Uh4EEiThNmfiZRC2KhCihb0KbdapmNABVHUEjbVNYpsbXlRXEWEYxqSvQH3IpqeneVZCrzeTT+uyFEqaB2LRbmGMOtH23D0mEVzbII5hXePTTJ0DE5xH03QdNb5Qh6LYawDTOgu0F8pYyTn0ydyRR9MzpFjOKCMiTP2C3PMst25WD1ZVu7xYE/gCQ8SZFbPxWVMWOKjnMrc85UOax1xaWkfrKGTRbFW0SWEpPrT42mhBJSplny4NADmVyZLEi/YLl4nbVmfRKudXdtuVhpztwCoKfsj0n6JVHeLGTuWTSMQ1tE4TCPIWnKs2oJp40EDL8jj5qilvtKK6qWlkuHdyMybSQBfQYIOWqZdAjN+bwG2lFuktkmXEr1eQ2CeUx2I6sTadfHOqAuS27kj3uFxqo97ylvE016CSkuh4yLoLy7pdzGpKaPe/8fMCntNmWfuWuuu61uaEsgthoxxb977tGSYW7RbGSBMtXmgpJ19lJvrtUqTWhLKK6Ff5x4O+uRHWSehypa3FMh3y0nq6y0j90huuWpim/yXCK35og2I0K+Qbk+Qa2Ro34jb0eYxW3ez0FCzumIcLS0tw/uRpOH/unKkoo6h+FEF9fg627bqGdVBPnz4DSxearJVAZE5ZFpyNQVkauNzcKkqBglK1mh0x8sRsMsXKtNNP0JDgoEXauJQh0cDvzeAHU9SPzI9gBUmPfhWRChrJJ1KJMFjfdG4sdVq0j+eQOudSWppHi0ZLVHU0DxxM6MTRKi9S1diWZj9waqoBeariQ1XVcR/MFKXjpeweCsFaf+TTLTQFvKF1ja1Uq0lqS7uJXGnb6NzQMSE3AkDXZdDvvy13vi1LSiJpC9FuYYw00eIlxopFnAZl3+nSlO4jObhoKunGwd7N6FwN+rX5/3r5srx83f0mwxIZESC5BoLQ5PeSQHVGhQxITjfuvIZbhT/3g6fh/JmznFVAOg80+/c9o+qVvv02wMsvw+TsLLz37rthZmoG3jx+whCrVT8jy5hagHO6kS7d2G5Deox/ZYsgzHNl+5BluN4WsmQ9pDxatNLxdYecASwynhUtzcol0W6AcuOec2WwSlrJD9Q7kLlKQBP+LMbMwg1islCA09tMwM78XpdnHkMj2jAK24XgNw0I1LuNfNdUlIIg8XF6TbOR1Ga6mM3vXhv9LgZNUxPBlsVIE62mano7ve2d444PXEI7+WKNkj4JbFdZ+2DX/AycfOstOHTwpxDTtBvfz3wrJM0pbx4HzPyU/Ko+tFca8OwPnoJbbr8NblpYhNPLF2C1E6PVGzJJVqIKriNeI8JzMXAjRRsIjJHsVtCiTHAgoHSstMiIYBVc4zu+SsdqY9gLxLIybtPQXAc5zcRKLgH661rSkGVLATIiX1c55r7jUP5dyU8rRLuFMdrTDVPtWQSWxhF0IznLxsjr5dwcctfUNBz80cvw2o9eAo+0X4ksPeMX5gg2FQzgbyjvld6nqX2GZE2+zVeefwGOHTwIC3Nz3OWALFki5zb+pXVdDuhC8ijw7YewisR7rpPj39Dao6Xg3jBHQ+sSsZsytPQuHDDb5dxZ5wKgmQoFxSjti1rrOD87YaMAmRDt1sdoEy0F38fRjC2hp8xSGRK9dtcuePuNg3D8zcMwvW0HEmQCXjUEL/SMYAn5cNOMg2yeDUZXpifxOxHESH212Rk4dOgQHD96DK5dXGQCovQpIspNNGLtbqMy/cS4uy45CfwALdoIrVmfNReMJWsChJfT2eGKwGWvdX3zw7NosyzO816r1BEv+Wip+y4R7dTUVE+2S3/n275cWiHaLYyRdh2AzYUcX3vWZvUigZHvlCye7du3w9lzZ+HQ4YMQoOVzoYNjTaUGeZKYbhK+X6pW0OyjDZFwO8sNY82hVdsivx+S7sFXD8D0/CzMzczA0krD3MCcrrs5PwxLcPsmqMYPsMXHqltZZkjWs770n3cKqyvi0EVKHgzRoo2iSuEfdmlaNnOAZxRt1qxQTLb0IDcCoVyg0J+ZIES7tTHSFi3e1Akl6SOTmN5Y4wjOBMPTFIQ87Z9EonztuecgC6s2gp5xcQTfdhT8Kiw2ZQsiMkh0xgQLvlWIom4RRMi+glf/5yWYsFYvt8HJsk1P71UR3FJFsKsblPRcvR4HzPQ6sodXF9p2qvBMGA039Zprtg0tj7bZbKTVKOpxDehScMx8p8nWLQXIiGzJdVRulc6/0V3VLyRnIdotjJEmWnDBsHIa0pjBU0b8JaWW2JUKnDp5gmUQe9LABkL3fDYoZ8Ij63a1BQ2cqoZhZIVvXPrT5uDUztZuQ//2DOkc9aZMw4kTZ+vD2RDqPhTENDtxwS4iXLRyi+IVsmrpQd8hsiWipSoy5zJYx48uRLuFMfpEO+5wRRSZhgqS4akTJ03alhO26alW2+SiPVPdRm22qRMtW0ejfkVcOmrDWnGSJonrYOsaRJJ7wPX/KssmEtFSBRnnQ9fN2OA6+fZp0grRbmGM+m019kRrusRqTsGiYoJOu81ZBtBTiQYb5OeuD5YxDANoNVdN5wetC4HuXwBUh7VitEgTN/3nXnd5brMhui3WnSqX881TNgK5EYhsc9tzrBwkE1GZrY1RD4aNf4tlrmiy3U7pBqO0rfVm93qd9zcC5elScz/KCii6sf5CYGgWbWu1lRJpunbj7DpAQs2sZCK5BohIy5YrWbX0mnJsCWTpOsK1xCwW7RbGqFu0vxBES+RHU0u6KVO8sZJ1AkqbpkhbDEGlvT43s8y6jSjHH0OzaK+77rrk+PHjRWCL/lLlHxEpnWc+J9aF4CrDyHVA5EpVY87SdWRsCXfUjaaxxkgTLZWuc+1/ZhS6xjHNi7oZELHWKzUIU2Bt18hmF3AMXdtkdsqB3YAklR7gXlA51Ciwgv81VAxhEOFblxcM29pQnGFBMX4WGfe420ZlWFvz+x/72BfvvfdeeOutt2BpaYnPHxWLUP6sI1OyYCnzgJ7T4+zZs/weWbgnT54s2ozTd8i1cOrUqa8Oa38EF8eoj4LsozWCIfRs3AiCMtcCbtDYTmOcUlaM1COlsgWh0dOlaD+pgHkbE+TAJrg4QKVZClPVKpJ3AKvJKlpKlUtW+B8d6OIAuK7H1OFnmFv0yCOPqBdffPEvkTjvrdfrdxJpPvbYY/D888+zL7ZcEej8sddffz185jOfKTro0ufLy8v7W63WC3fcccefD3N/BBtj1Ik2GUcrtgwSviYJQWq7TepXc9u2wamjlAJqZQ1ZfSvjogAKPOeXwJGmiYOGqh+hVdSBiYlJamXLN7ARcRk3ogXr5y4XhqmhuQ4c3vOe9/Q0iHzooYc0ES75YV0GAsGlfR0+fJit2r179473RT+GGGnXgaJuWKpcijh+BEE6s7SPYSWCFk4vp+fmIU4zY8VmhlwVE6S6iPpYF9oyTtbBwxeGUJuehk6rA2EUFVq0YwcbKNR2cFKeGlowbBCOHTv28OnTp4tmjUS49LxMuOS/feKJJ+izPcPcVsHmMdJEC6Vg2JjSA5rsOVusIaUBJSn4UQXmdl0HIVm4VC3E1iw4XcHBC+lLBXOgqrqZhe3gV6tcfZblrnh2TKFsq3mPO2xsqXSoNE0XyNfqWpA7K9a5EOgvFS5873vfg9dee+1vhr29gs1h1Ik2dTXs4wru7ksVuBpYoiVBMrxxzx6oBviKLHkWz7YyhRvlrPcVkpH7YGZ2FnbeeAN0spTzdJM0HWbt1lWHOwRWBnJLWbR5nu9yhQlkuRK50mtHvM4nS1buo48+ej+Ssli1I4SRJtpts7Vk+8w0TwUzVqzvlf/OL0eKaovBy42l2k4T0L6CNEtgtdmAnTfdzMEwUuyCrAOViBS7jPgIVY5Re3IW3Ma/RNIBC82QLgQJzcQQ4W+33XAjpDG9TCDOU9sTchztWcUNLyleSIn/87Nz0Ig7/zTsrSpjeXl592rL6Ny4NuRkwXJ/OOtGIJBe7Q9/+EN46qmnxKodIYw00e6cX3jp5l0L0OqkUPFrVNrI7ytbZWOCO+MHblQwPwO33PJOmIl9qCK/dppN8CYqpsCBpsbUtNG2dSQt2hRfBST01UxhKpqEm/bcCpWJOjdGVKV+YeMIFslJcgijCg5GCbz/zjth57b59w57u8o48OqreyKbG+uqw/i5Z65jUvSiv5SRQJ9//etfv39paUms2hHBSBPt/I7tL/z6vnfB8VOn2IcQsDoV9FfMDHszrziIE9MYLfj6JCzecRtEc7PgQwD5uQZAjJSKD92hJolgcoypW2wbLVY0aKem5+C6PXsgnZqAZtIxgZa+8s/xgyIhFzh7YRkCT8O73rEb6tXohWFvlQOeg/rBn/xkIapUelrUmOtY244Zpq085dmSNsKzzz5LgbGDQ950wSVipImW8Lu/8+HHd83V4dTZ00yygfVpad1Nixk3GA1wBR2cV7YiH6697Ra44eZ3wMLiIsxMTkCVMhWQRCu461OVCCbRCprdvgiLt98KO27fA3qixi4JKrst86rpHdbXanwMQLvY0RkSVARZpwXve//ex4e9TWXgcd/+xhtv9MzAuoOesWyd79Y1cSRR8Mcffxy+/e1vj+PIOHYYizvqsS8/oT/3t1/kNirVWrWQnuNOAzB+Vi3fhB6VbWZooZmBJQx9bqHu2bJa8kWSX49blKsAvDDgCjPy91W8APzUdJUl90K5m6obpMYtJJboFJaPn4Hf2HcnPPm1L2+p6x7P17s/eN8HX+y0O0yo5bY1NPDFScxWrCu51dwRIyS/LuzcuRM++9nP7r/rrrs+NMRdEFwEY2Huferjf6A+/IH3QwunVR1u32ze5/YqPSSr1jwG/Rv0vc09Bq1r/W3Y6LE2OKVM65kkh3oQ2aIntG7THG9IItgYb9QApuozSLLUdJGCKwHkcQ6qk8FUWOXftKmojknYXgI23aC7xt5tHhQkUz3vX4njNmj/B7zbJw25VkW3d9vpEogbTZgNQvjKY393y5odGT5mqPzWdH8o7QU/10y+NECy8YBWL5EuPSer9tixY/CFL3zh/uFtuuBSMBZES/j7Rz6nHvjwBwHylOvCtfLBRyLSpcwDl05aPFxnAFvCqwr9AN192LzS4lH+DZhAi/su9DyQ2LTpl2Ue7mB3BbBV6eFW4O6z9Wia02U9BQlash2W11Pc+puzDHANARJnnmZ8YxJ8KuPMqVLZBFbIOnLtbVxH2m7FlDIFC8psZ+Hj7vEvlH9QJj3XZqWctltahuuAq03lWf+/4gSseZgDUIg39hwj84L2y60040RZOtia95mEcporDdiOBPXkv35l/+xM7aeXdYFdRXQ6nZm4E/OgV5ZAZLEZ3H5HsC6v1nVbIJBs4oEDB+CBBx7Q+Pc7Q94VwTrYUlOoK4F/+Oq/6H984p/hf18/jNPlCmxbWIAgT3ss26K5Xd/02M2YVXn4KfVp8sDrtnq2wtvK/cZ8qVh2gtY0R/Rth4TCTtS9tmG/0AvbMCUiSwJLVHl5+2Fd33M5e8CRdA7d5jRlt4CRRBxgqSpXbWePknY8tjZYRu8FTkfAtbOx8Nx7ym4NRdIBBoqL6y6V9oC6jLmiPw3dc+EGhtKi+Uu1Sg0aSKwTJEPYacOJY0egXgvh+//xb/tv33PTlpxeHzly5Esf/ehHP0H+V+eDpSwDIlTXDde5C1zKIp1/+txZu2fOnIE77rgDPv/5z8Pu3bvH7r4edYzlCfnpm8e+9LUn//0T//XMM3D0+AlYafb1E7Ns5DNZ2Rp4R6DaWEIOXWJR4CvjB6Ub3ikCkAXsCJiIlQsIuJeTKqblZTk8UtlaM8mlt+00URcWoyHbgES+eyxltwuDTp0GXZC/7lqfXn8xgyXPdXzXqkziulghGen20KkeOcVytnK3gSAeA19z1NwNSEb8R4Fr0ajsYKW7R2Lttqiu9kKxz2y5Zj3HwA0MabsJ1coEku0qzNUr8ODvfQT+9OE/vmVuemrLWbIO3/3ud/UnP/lJ2LZtGxMoVYgtLi7yawqSEYhwnUXrihgIzsIld8K5c+eYbD/96U//Ff59eKN1Cn6+GEuidTi/dH7v0SNH7vrJ0ZMhXpAkoBOWHoHOUsrlx+eaXwPn9mv6S6999z37WZjlOkC6rBgq1jUmDlAVQ9dQtWQaWbKp2qMbWQu1aqeCkaWuyFmzXSvWvlEORhVNJw1xFhbwemfOmKNmmWC/z1zlBpLussnqHmRFJmlmOdpO/Wk6S6WgdKODc3wYYqPBBVLexhhfRvh2Az+dxE/PZDrdjr9/Gz/bhcRwCJ/vTpLstThJb8PnL+HRugv/PofLuVtr9X0cJX4Dv7sfjCob+T7SGFkEv0PPM/qLj5QfoFNcZqLoeySXqal/nE5mJivJtu0LyfzsbPqBX70n+ZV37vniuhfIFsGrr76qv/Wtb7Flevbs2UN4Hf33gw8++ON77rnnL/bv3/+lZ5555hNPP/00EymRLVm2ZMnS9eYKGZzVS26zW2+99eVvfvOb7xrybglKGGuiFQjGBa1Wa++RI0d++xvf+MbtSL77Xn/99d2kRUvkPD09zW3o6Tm5HChI9sorr8i9vYUgJ0MgGEGg9TqPVux1aOXufPPNN3/twIEDe5Fk7yeLdt++fXDffffJvS0QCAQCgUAgEAgEAoFAIBAIBAKBQCAQCAQCgUAgEAgEAoFAIBAIBAKBQCAQCAQCgUAgEAgEAoFAIBAIBAKBQCAQCAQCgUAgEAgEAoFAIBAIBAKBQCAQCAQCgUAgEAgEAoFAIBAIBAKBQCAQCAQCgUAgEAgEAoFAIBAIBAKBQCAQCAQCgUAgEAgEAoFAIBAIBAKBQCAQCAQCgUAgEAgEAoFAIBAIBAKBQCAQCAQCgeDS8f+z+vJ8cn6S3gAAAABJRU5ErkJggg==;" vertex="1" parent="1">
          <mxGeometry x="787.65" y="300" width="151.62" height="156" as="geometry" />
        </mxCell>
        <mxCell id="aOc6eSdLFPW7Dq4YAHv8-39" style="edgeStyle=orthogonalEdgeStyle;rounded=0;orthogonalLoop=1;jettySize=auto;html=1;exitX=1;exitY=1;exitDx=0;exitDy=0;entryX=0;entryY=0.5;entryDx=0;entryDy=0;strokeColor=#0B4D6A;" edge="1" parent="1" source="aOc6eSdLFPW7Dq4YAHv8-26" target="aOc6eSdLFPW7Dq4YAHv8-38">
          <mxGeometry relative="1" as="geometry" />
        </mxCell>
      </root>
    </mxGraphModel>
  </diagram>
</mxfile>
